<?xml version="1.0" encoding="utf-8" standalone="no"?>
<!DOCTYPE svg PUBLIC "-//W3C//DTD SVG 1.1//EN"
  "http://www.w3.org/Graphics/SVG/1.1/DTD/svg11.dtd">
<svg xmlns:xlink="http://www.w3.org/1999/xlink" width="1000.8pt" height="882.327537pt" viewBox="0 0 1000.8 882.327537" xmlns="http://www.w3.org/2000/svg" version="1.1">
 <metadata>
  <rdf:RDF xmlns:dc="http://purl.org/dc/elements/1.1/" xmlns:cc="http://creativecommons.org/ns#" xmlns:rdf="http://www.w3.org/1999/02/22-rdf-syntax-ns#">
   <cc:Work>
    <dc:type rdf:resource="http://purl.org/dc/dcmitype/StillImage"/>
    <dc:date>2022-01-01T05:00:00+00:00</dc:date>
    <dc:format>image/svg+xml</dc:format>
    <dc:creator>
     <cc:Agent>
      <dc:title>Matplotlib v3.10.9, https://matplotlib.org/</dc:title>
     </cc:Agent>
    </dc:creator>
   </cc:Work>
  </rdf:RDF>
 </metadata>
 <defs>
  <style type="text/css">*{stroke-linejoin: round; stroke-linecap: butt}</style>
 </defs>
 <g id="figure_1">
  <g id="patch_1">
   <path d="M 0 882.327537 
L 1000.8 882.327537 
L 1000.8 0 
L 0 0 
z
" style="fill: #ffffff"/>
  </g>
  <g id="axes_1">
   <g id="patch_2">
    <path d="M 344.682457 385.623204 
C 331.054105 385.874175 317.511406 383.406487 304.847483 378.36466 
C 292.18356 373.322834 280.650555 365.807251 270.923894 356.258061 
C 261.197233 346.708871 253.470576 335.3162 248.196433 322.747255 
C 242.922289 310.17831 240.205669 296.683342 240.205669 283.05268 
C 240.205669 269.422017 242.922289 255.927049 248.196433 243.358104 
C 253.470576 230.789159 261.197233 219.396488 270.923894 209.847298 
C 280.650555 200.298108 292.18356 192.782526 304.847483 187.740699 
C 317.511406 182.698872 331.054105 180.231185 344.682457 180.482156 
C 334.161157 167.592606 321.718977 156.39831 307.793229 147.29272 
C 293.86748 138.187129 278.623248 131.278187 262.596329 126.808725 
C 246.569409 122.339263 229.949795 120.362265 213.321623 120.947218 
C 196.693452 121.532171 180.253845 124.672139 164.580612 130.256763 
C 148.907379 135.841386 134.186321 143.804459 120.934846 153.866102 
C 107.68337 163.927745 96.058569 175.968678 86.469024 189.565696 
C 76.87948 203.162713 69.438872 218.154626 64.40872 234.014507 
C 59.378568 249.874388 56.818502 266.414223 56.818502 283.05268 
C 56.818502 299.691137 59.378568 316.230972 64.40872 332.090853 
C 69.438872 347.950734 76.87948 362.942646 86.469024 376.539664 
C 96.058569 390.136681 107.68337 402.177615 120.934846 412.239257 
C 134.186321 422.3009 148.907379 430.263973 164.580612 435.848597 
C 180.253845 441.43322 196.693452 444.573189 213.321623 445.158142 
C 229.949795 445.743094 246.569409 443.766097 262.596329 439.296635 
C 278.623248 434.827173 293.86748 427.91823 307.793229 418.81264 
C 321.718977 409.707049 334.161157 398.512753 344.682457 385.623204 
" clip-path="url(#p1412ce2ef8)" style="fill: #ff0000; opacity: 0.4"/>
   </g>
   <g id="patch_3">
    <path d="M 344.682457 180.482156 
C 368.314435 209.433478 381.229973 245.680906 381.229973 283.05268 
C 381.229973 320.424453 368.314435 356.671881 344.682457 385.623204 
C 371.548944 385.128448 397.174005 374.09719 415.998965 354.92237 
C 434.823926 335.747549 445.381498 309.923722 445.381498 283.05268 
C 445.381498 256.181638 434.823926 230.357811 415.998965 211.18299 
C 397.174005 192.008169 371.548944 180.976912 344.682457 180.482156 
" clip-path="url(#p1412ce2ef8)" style="fill: #008000; opacity: 0.4"/>
   </g>
   <g id="patch_4">
    <path d="M 344.682457 385.623204 
C 368.314435 356.671881 381.229973 320.424453 381.229973 283.05268 
C 381.229973 245.680906 368.314435 209.433478 344.682457 180.482156 
C 331.054105 180.231185 317.511406 182.698872 304.847483 187.740699 
C 292.18356 192.782526 280.650555 200.298108 270.923894 209.847298 
C 261.197233 219.396488 253.470576 230.789159 248.196433 243.358104 
C 242.922289 255.927049 240.205669 269.422017 240.205669 283.05268 
C 240.205669 296.683342 242.922289 310.17831 248.196433 322.747255 
C 253.470576 335.3162 261.197233 346.708871 270.923894 356.258061 
C 280.650555 365.807251 292.18356 373.322834 304.847483 378.36466 
C 317.511406 383.406487 331.054105 385.874175 344.682457 385.623204 
" clip-path="url(#p1412ce2ef8)" style="fill: #b25900; opacity: 0.4"/>
   </g>
   <g id="text_1">
    <!-- 33 -->
    <g transform="translate(142.149585 285.812055) scale(0.1 -0.1)">
     <defs>
      <path id="DejaVuSans-33" d="M 2597 2516 
Q 3050 2419 3304 2112 
Q 3559 1806 3559 1356 
Q 3559 666 3084 287 
Q 2609 -91 1734 -91 
Q 1441 -91 1130 -33 
Q 819 25 488 141 
L 488 750 
Q 750 597 1062 519 
Q 1375 441 1716 441 
Q 2309 441 2620 675 
Q 2931 909 2931 1356 
Q 2931 1769 2642 2001 
Q 2353 2234 1838 2234 
L 1294 2234 
L 1294 2753 
L 1863 2753 
Q 2328 2753 2575 2939 
Q 2822 3125 2822 3475 
Q 2822 3834 2567 4026 
Q 2313 4219 1838 4219 
Q 1578 4219 1281 4162 
Q 984 4106 628 3988 
L 628 4550 
Q 988 4650 1302 4700 
Q 1616 4750 1894 4750 
Q 2613 4750 3031 4423 
Q 3450 4097 3450 3541 
Q 3450 3153 3228 2886 
Q 3006 2619 2597 2516 
z
" transform="scale(0.015625)"/>
     </defs>
     <use xlink:href="#DejaVuSans-33"/>
     <use xlink:href="#DejaVuSans-33" transform="translate(63.623047 0)"/>
    </g>
   </g>
   <g id="text_2">
    <!-- 6 -->
    <g transform="translate(410.124485 285.812055) scale(0.1 -0.1)">
     <defs>
      <path id="DejaVuSans-36" d="M 2113 2584 
Q 1688 2584 1439 2293 
Q 1191 2003 1191 1497 
Q 1191 994 1439 701 
Q 1688 409 2113 409 
Q 2538 409 2786 701 
Q 3034 994 3034 1497 
Q 3034 2003 2786 2293 
Q 2538 2584 2113 2584 
z
M 3366 4563 
L 3366 3988 
Q 3128 4100 2886 4159 
Q 2644 4219 2406 4219 
Q 1781 4219 1451 3797 
Q 1122 3375 1075 2522 
Q 1259 2794 1537 2939 
Q 1816 3084 2150 3084 
Q 2853 3084 3261 2657 
Q 3669 2231 3669 1497 
Q 3669 778 3244 343 
Q 2819 -91 2113 -91 
Q 1303 -91 875 529 
Q 447 1150 447 2328 
Q 447 3434 972 4092 
Q 1497 4750 2381 4750 
Q 2619 4750 2861 4703 
Q 3103 4656 3366 4563 
z
" transform="scale(0.015625)"/>
     </defs>
     <use xlink:href="#DejaVuSans-36"/>
    </g>
   </g>
   <g id="text_3">
    <!-- 12 -->
    <g transform="translate(304.355321 285.812055) scale(0.1 -0.1)">
     <defs>
      <path id="DejaVuSans-31" d="M 794 531 
L 1825 531 
L 1825 4091 
L 703 3866 
L 703 4441 
L 1819 4666 
L 2450 4666 
L 2450 531 
L 3481 531 
L 3481 0 
L 794 0 
L 794 531 
z
" transform="scale(0.015625)"/>
      <path id="DejaVuSans-32" d="M 1228 531 
L 3431 531 
L 3431 0 
L 469 0 
L 469 531 
Q 828 903 1448 1529 
Q 2069 2156 2228 2338 
Q 2531 2678 2651 2914 
Q 2772 3150 2772 3378 
Q 2772 3750 2511 3984 
Q 2250 4219 1831 4219 
Q 1534 4219 1204 4116 
Q 875 4013 500 3803 
L 500 4441 
Q 881 4594 1212 4672 
Q 1544 4750 1819 4750 
Q 2544 4750 2975 4387 
Q 3406 4025 3406 3419 
Q 3406 3131 3298 2873 
Q 3191 2616 2906 2266 
Q 2828 2175 2409 1742 
Q 1991 1309 1228 531 
z
" transform="scale(0.015625)"/>
     </defs>
     <use xlink:href="#DejaVuSans-31"/>
     <use xlink:href="#DejaVuSans-32" transform="translate(63.623047 0)"/>
    </g>
   </g>
   <g id="text_4">
    <!-- Root -->
    <g transform="translate(191.836737 467.616223) scale(0.12 -0.12)">
     <defs>
      <path id="DejaVuSans-52" d="M 2841 2188 
Q 3044 2119 3236 1894 
Q 3428 1669 3622 1275 
L 4263 0 
L 3584 0 
L 2988 1197 
Q 2756 1666 2539 1819 
Q 2322 1972 1947 1972 
L 1259 1972 
L 1259 0 
L 628 0 
L 628 4666 
L 2053 4666 
Q 2853 4666 3247 4331 
Q 3641 3997 3641 3322 
Q 3641 2881 3436 2590 
Q 3231 2300 2841 2188 
z
M 1259 4147 
L 1259 2491 
L 2053 2491 
Q 2509 2491 2742 2702 
Q 2975 2913 2975 3322 
Q 2975 3731 2742 3939 
Q 2509 4147 2053 4147 
L 1259 4147 
z
" transform="scale(0.015625)"/>
      <path id="DejaVuSans-6f" d="M 1959 3097 
Q 1497 3097 1228 2736 
Q 959 2375 959 1747 
Q 959 1119 1226 758 
Q 1494 397 1959 397 
Q 2419 397 2687 759 
Q 2956 1122 2956 1747 
Q 2956 2369 2687 2733 
Q 2419 3097 1959 3097 
z
M 1959 3584 
Q 2709 3584 3137 3096 
Q 3566 2609 3566 1747 
Q 3566 888 3137 398 
Q 2709 -91 1959 -91 
Q 1206 -91 779 398 
Q 353 888 353 1747 
Q 353 2609 779 3096 
Q 1206 3584 1959 3584 
z
" transform="scale(0.015625)"/>
      <path id="DejaVuSans-74" d="M 1172 4494 
L 1172 3500 
L 2356 3500 
L 2356 3053 
L 1172 3053 
L 1172 1153 
Q 1172 725 1289 603 
Q 1406 481 1766 481 
L 2356 481 
L 2356 0 
L 1766 0 
Q 1100 0 847 248 
Q 594 497 594 1153 
L 594 3053 
L 172 3053 
L 172 3500 
L 594 3500 
L 594 4494 
L 1172 4494 
z
" transform="scale(0.015625)"/>
     </defs>
     <use xlink:href="#DejaVuSans-52"/>
     <use xlink:href="#DejaVuSans-6f" transform="translate(64.982422 0)"/>
     <use xlink:href="#DejaVuSans-6f" transform="translate(126.164062 0)"/>
     <use xlink:href="#DejaVuSans-74" transform="translate(187.345703 0)"/>
    </g>
    <!-- (spaceflight) -->
    <g transform="translate(143.636112 481.053598) scale(0.12 -0.12)">
     <defs>
      <path id="DejaVuSans-28" d="M 1984 4856 
Q 1566 4138 1362 3434 
Q 1159 2731 1159 2009 
Q 1159 1288 1364 580 
Q 1569 -128 1984 -844 
L 1484 -844 
Q 1016 -109 783 600 
Q 550 1309 550 2009 
Q 550 2706 781 3412 
Q 1013 4119 1484 4856 
L 1984 4856 
z
" transform="scale(0.015625)"/>
      <path id="DejaVuSans-73" d="M 2834 3397 
L 2834 2853 
Q 2591 2978 2328 3040 
Q 2066 3103 1784 3103 
Q 1356 3103 1142 2972 
Q 928 2841 928 2578 
Q 928 2378 1081 2264 
Q 1234 2150 1697 2047 
L 1894 2003 
Q 2506 1872 2764 1633 
Q 3022 1394 3022 966 
Q 3022 478 2636 193 
Q 2250 -91 1575 -91 
Q 1294 -91 989 -36 
Q 684 19 347 128 
L 347 722 
Q 666 556 975 473 
Q 1284 391 1588 391 
Q 1994 391 2212 530 
Q 2431 669 2431 922 
Q 2431 1156 2273 1281 
Q 2116 1406 1581 1522 
L 1381 1569 
Q 847 1681 609 1914 
Q 372 2147 372 2553 
Q 372 3047 722 3315 
Q 1072 3584 1716 3584 
Q 2034 3584 2315 3537 
Q 2597 3491 2834 3397 
z
" transform="scale(0.015625)"/>
      <path id="DejaVuSans-70" d="M 1159 525 
L 1159 -1331 
L 581 -1331 
L 581 3500 
L 1159 3500 
L 1159 2969 
Q 1341 3281 1617 3432 
Q 1894 3584 2278 3584 
Q 2916 3584 3314 3078 
Q 3713 2572 3713 1747 
Q 3713 922 3314 415 
Q 2916 -91 2278 -91 
Q 1894 -91 1617 61 
Q 1341 213 1159 525 
z
M 3116 1747 
Q 3116 2381 2855 2742 
Q 2594 3103 2138 3103 
Q 1681 3103 1420 2742 
Q 1159 2381 1159 1747 
Q 1159 1113 1420 752 
Q 1681 391 2138 391 
Q 2594 391 2855 752 
Q 3116 1113 3116 1747 
z
" transform="scale(0.015625)"/>
      <path id="DejaVuSans-61" d="M 2194 1759 
Q 1497 1759 1228 1600 
Q 959 1441 959 1056 
Q 959 750 1161 570 
Q 1363 391 1709 391 
Q 2188 391 2477 730 
Q 2766 1069 2766 1631 
L 2766 1759 
L 2194 1759 
z
M 3341 1997 
L 3341 0 
L 2766 0 
L 2766 531 
Q 2569 213 2275 61 
Q 1981 -91 1556 -91 
Q 1019 -91 701 211 
Q 384 513 384 1019 
Q 384 1609 779 1909 
Q 1175 2209 1959 2209 
L 2766 2209 
L 2766 2266 
Q 2766 2663 2505 2880 
Q 2244 3097 1772 3097 
Q 1472 3097 1187 3025 
Q 903 2953 641 2809 
L 641 3341 
Q 956 3463 1253 3523 
Q 1550 3584 1831 3584 
Q 2591 3584 2966 3190 
Q 3341 2797 3341 1997 
z
" transform="scale(0.015625)"/>
      <path id="DejaVuSans-63" d="M 3122 3366 
L 3122 2828 
Q 2878 2963 2633 3030 
Q 2388 3097 2138 3097 
Q 1578 3097 1268 2742 
Q 959 2388 959 1747 
Q 959 1106 1268 751 
Q 1578 397 2138 397 
Q 2388 397 2633 464 
Q 2878 531 3122 666 
L 3122 134 
Q 2881 22 2623 -34 
Q 2366 -91 2075 -91 
Q 1284 -91 818 406 
Q 353 903 353 1747 
Q 353 2603 823 3093 
Q 1294 3584 2113 3584 
Q 2378 3584 2631 3529 
Q 2884 3475 3122 3366 
z
" transform="scale(0.015625)"/>
      <path id="DejaVuSans-65" d="M 3597 1894 
L 3597 1613 
L 953 1613 
Q 991 1019 1311 708 
Q 1631 397 2203 397 
Q 2534 397 2845 478 
Q 3156 559 3463 722 
L 3463 178 
Q 3153 47 2828 -22 
Q 2503 -91 2169 -91 
Q 1331 -91 842 396 
Q 353 884 353 1716 
Q 353 2575 817 3079 
Q 1281 3584 2069 3584 
Q 2775 3584 3186 3129 
Q 3597 2675 3597 1894 
z
M 3022 2063 
Q 3016 2534 2758 2815 
Q 2500 3097 2075 3097 
Q 1594 3097 1305 2825 
Q 1016 2553 972 2059 
L 3022 2063 
z
" transform="scale(0.015625)"/>
      <path id="DejaVuSans-66" d="M 2375 4863 
L 2375 4384 
L 1825 4384 
Q 1516 4384 1395 4259 
Q 1275 4134 1275 3809 
L 1275 3500 
L 2222 3500 
L 2222 3053 
L 1275 3053 
L 1275 0 
L 697 0 
L 697 3053 
L 147 3053 
L 147 3500 
L 697 3500 
L 697 3744 
Q 697 4328 969 4595 
Q 1241 4863 1831 4863 
L 2375 4863 
z
" transform="scale(0.015625)"/>
      <path id="DejaVuSans-6c" d="M 603 4863 
L 1178 4863 
L 1178 0 
L 603 0 
L 603 4863 
z
" transform="scale(0.015625)"/>
      <path id="DejaVuSans-69" d="M 603 3500 
L 1178 3500 
L 1178 0 
L 603 0 
L 603 3500 
z
M 603 4863 
L 1178 4863 
L 1178 4134 
L 603 4134 
L 603 4863 
z
" transform="scale(0.015625)"/>
      <path id="DejaVuSans-67" d="M 2906 1791 
Q 2906 2416 2648 2759 
Q 2391 3103 1925 3103 
Q 1463 3103 1205 2759 
Q 947 2416 947 1791 
Q 947 1169 1205 825 
Q 1463 481 1925 481 
Q 2391 481 2648 825 
Q 2906 1169 2906 1791 
z
M 3481 434 
Q 3481 -459 3084 -895 
Q 2688 -1331 1869 -1331 
Q 1566 -1331 1297 -1286 
Q 1028 -1241 775 -1147 
L 775 -588 
Q 1028 -725 1275 -790 
Q 1522 -856 1778 -856 
Q 2344 -856 2625 -561 
Q 2906 -266 2906 331 
L 2906 616 
Q 2728 306 2450 153 
Q 2172 0 1784 0 
Q 1141 0 747 490 
Q 353 981 353 1791 
Q 353 2603 747 3093 
Q 1141 3584 1784 3584 
Q 2172 3584 2450 3431 
Q 2728 3278 2906 2969 
L 2906 3500 
L 3481 3500 
L 3481 434 
z
" transform="scale(0.015625)"/>
      <path id="DejaVuSans-68" d="M 3513 2113 
L 3513 0 
L 2938 0 
L 2938 2094 
Q 2938 2591 2744 2837 
Q 2550 3084 2163 3084 
Q 1697 3084 1428 2787 
Q 1159 2491 1159 1978 
L 1159 0 
L 581 0 
L 581 4863 
L 1159 4863 
L 1159 2956 
Q 1366 3272 1645 3428 
Q 1925 3584 2291 3584 
Q 2894 3584 3203 3211 
Q 3513 2838 3513 2113 
z
" transform="scale(0.015625)"/>
      <path id="DejaVuSans-29" d="M 513 4856 
L 1013 4856 
Q 1481 4119 1714 3412 
Q 1947 2706 1947 2009 
Q 1947 1309 1714 600 
Q 1481 -109 1013 -844 
L 513 -844 
Q 928 -128 1133 580 
Q 1338 1288 1338 2009 
Q 1338 2731 1133 3434 
Q 928 4138 513 4856 
z
" transform="scale(0.015625)"/>
     </defs>
     <use xlink:href="#DejaVuSans-28"/>
     <use xlink:href="#DejaVuSans-73" transform="translate(39.013672 0)"/>
     <use xlink:href="#DejaVuSans-70" transform="translate(91.113281 0)"/>
     <use xlink:href="#DejaVuSans-61" transform="translate(154.589844 0)"/>
     <use xlink:href="#DejaVuSans-63" transform="translate(215.869141 0)"/>
     <use xlink:href="#DejaVuSans-65" transform="translate(270.849609 0)"/>
     <use xlink:href="#DejaVuSans-66" transform="translate(332.373047 0)"/>
     <use xlink:href="#DejaVuSans-6c" transform="translate(367.578125 0)"/>
     <use xlink:href="#DejaVuSans-69" transform="translate(395.361328 0)"/>
     <use xlink:href="#DejaVuSans-67" transform="translate(423.144531 0)"/>
     <use xlink:href="#DejaVuSans-68" transform="translate(486.621094 0)"/>
     <use xlink:href="#DejaVuSans-74" transform="translate(550 0)"/>
     <use xlink:href="#DejaVuSans-29" transform="translate(589.208984 0)"/>
    </g>
   </g>
   <g id="text_5">
    <!-- Leaf -->
    <g transform="translate(342.793584 407.998402) scale(0.12 -0.12)">
     <defs>
      <path id="DejaVuSans-4c" d="M 628 4666 
L 1259 4666 
L 1259 531 
L 3531 531 
L 3531 0 
L 628 0 
L 628 4666 
z
" transform="scale(0.015625)"/>
     </defs>
     <use xlink:href="#DejaVuSans-4c"/>
     <use xlink:href="#DejaVuSans-65" transform="translate(53.962891 0)"/>
     <use xlink:href="#DejaVuSans-61" transform="translate(115.486328 0)"/>
     <use xlink:href="#DejaVuSans-66" transform="translate(176.765625 0)"/>
    </g>
    <!-- (blue light) -->
    <g transform="translate(342.793584 421.435777) scale(0.12 -0.12)">
     <defs>
      <path id="DejaVuSans-62" d="M 3116 1747 
Q 3116 2381 2855 2742 
Q 2594 3103 2138 3103 
Q 1681 3103 1420 2742 
Q 1159 2381 1159 1747 
Q 1159 1113 1420 752 
Q 1681 391 2138 391 
Q 2594 391 2855 752 
Q 3116 1113 3116 1747 
z
M 1159 2969 
Q 1341 3281 1617 3432 
Q 1894 3584 2278 3584 
Q 2916 3584 3314 3078 
Q 3713 2572 3713 1747 
Q 3713 922 3314 415 
Q 2916 -91 2278 -91 
Q 1894 -91 1617 61 
Q 1341 213 1159 525 
L 1159 0 
L 581 0 
L 581 4863 
L 1159 4863 
L 1159 2969 
z
" transform="scale(0.015625)"/>
      <path id="DejaVuSans-75" d="M 544 1381 
L 544 3500 
L 1119 3500 
L 1119 1403 
Q 1119 906 1312 657 
Q 1506 409 1894 409 
Q 2359 409 2629 706 
Q 2900 1003 2900 1516 
L 2900 3500 
L 3475 3500 
L 3475 0 
L 2900 0 
L 2900 538 
Q 2691 219 2414 64 
Q 2138 -91 1772 -91 
Q 1169 -91 856 284 
Q 544 659 544 1381 
z
M 1991 3584 
L 1991 3584 
z
" transform="scale(0.015625)"/>
      <path id="DejaVuSans-20" transform="scale(0.015625)"/>
     </defs>
     <use xlink:href="#DejaVuSans-28"/>
     <use xlink:href="#DejaVuSans-62" transform="translate(39.013672 0)"/>
     <use xlink:href="#DejaVuSans-6c" transform="translate(102.490234 0)"/>
     <use xlink:href="#DejaVuSans-75" transform="translate(130.273438 0)"/>
     <use xlink:href="#DejaVuSans-65" transform="translate(193.652344 0)"/>
     <use xlink:href="#DejaVuSans-20" transform="translate(255.175781 0)"/>
     <use xlink:href="#DejaVuSans-6c" transform="translate(286.962891 0)"/>
     <use xlink:href="#DejaVuSans-69" transform="translate(314.746094 0)"/>
     <use xlink:href="#DejaVuSans-67" transform="translate(342.529297 0)"/>
     <use xlink:href="#DejaVuSans-68" transform="translate(406.005859 0)"/>
     <use xlink:href="#DejaVuSans-74" transform="translate(469.384766 0)"/>
     <use xlink:href="#DejaVuSans-29" transform="translate(508.59375 0)"/>
    </g>
   </g>
   <g id="text_6">
    <!-- 12 shared / 51 total (24% overlap) -->
    <g transform="translate(173.418047 495.146627) scale(0.09 -0.09)">
     <defs>
      <path id="DejaVuSans-Oblique-31" d="M 416 531 
L 1447 531 
L 2144 4122 
L 978 3897 
L 1088 4441 
L 2247 4666 
L 2881 4666 
L 2075 531 
L 3103 531 
L 3003 0 
L 313 0 
L 416 531 
z
" transform="scale(0.015625)"/>
      <path id="DejaVuSans-Oblique-32" d="M 2950 2253 
L 934 525 
L 3163 525 
L 3053 0 
L 25 0 
L 128 531 
L 2234 2338 
Q 2656 2703 2832 2979 
Q 3009 3256 3009 3547 
Q 3009 3850 2796 4040 
Q 2584 4231 2241 4231 
Q 1944 4231 1581 4125 
Q 1219 4019 806 3816 
L 922 4441 
Q 1309 4594 1662 4672 
Q 2016 4750 2316 4750 
Q 2928 4750 3301 4425 
Q 3675 4100 3675 3572 
Q 3675 3216 3497 2892 
Q 3319 2569 2950 2253 
z
" transform="scale(0.015625)"/>
      <path id="DejaVuSans-Oblique-20" transform="scale(0.015625)"/>
      <path id="DejaVuSans-Oblique-73" d="M 3200 3397 
L 3091 2853 
Q 2863 2978 2609 3040 
Q 2356 3103 2088 3103 
Q 1634 3103 1373 2948 
Q 1113 2794 1113 2528 
Q 1113 2219 1719 2053 
Q 1766 2041 1788 2034 
L 1972 1978 
Q 2547 1819 2739 1644 
Q 2931 1469 2931 1166 
Q 2931 609 2489 259 
Q 2047 -91 1331 -91 
Q 1053 -91 747 -37 
Q 441 16 72 128 
L 184 722 
Q 500 559 806 475 
Q 1113 391 1394 391 
Q 1816 391 2080 572 
Q 2344 753 2344 1031 
Q 2344 1331 1650 1516 
L 1591 1531 
L 1394 1581 
Q 956 1697 753 1886 
Q 550 2075 550 2369 
Q 550 2928 970 3256 
Q 1391 3584 2113 3584 
Q 2397 3584 2667 3537 
Q 2938 3491 3200 3397 
z
" transform="scale(0.015625)"/>
      <path id="DejaVuSans-Oblique-68" d="M 3566 2113 
L 3156 0 
L 2578 0 
L 2988 2091 
Q 3016 2238 3031 2350 
Q 3047 2463 3047 2528 
Q 3047 2791 2881 2937 
Q 2716 3084 2419 3084 
Q 1956 3084 1617 2771 
Q 1278 2459 1178 1941 
L 800 0 
L 225 0 
L 1172 4863 
L 1747 4863 
L 1375 2950 
Q 1594 3244 1934 3414 
Q 2275 3584 2650 3584 
Q 3113 3584 3367 3334 
Q 3622 3084 3622 2631 
Q 3622 2519 3608 2391 
Q 3594 2263 3566 2113 
z
" transform="scale(0.015625)"/>
      <path id="DejaVuSans-Oblique-61" d="M 3438 1997 
L 3047 0 
L 2472 0 
L 2578 531 
Q 2325 219 2001 64 
Q 1678 -91 1281 -91 
Q 834 -91 548 182 
Q 263 456 263 884 
Q 263 1497 752 1853 
Q 1241 2209 2100 2209 
L 2900 2209 
L 2931 2363 
Q 2938 2388 2941 2417 
Q 2944 2447 2944 2509 
Q 2944 2788 2717 2942 
Q 2491 3097 2081 3097 
Q 1800 3097 1504 3025 
Q 1209 2953 897 2809 
L 997 3341 
Q 1322 3463 1633 3523 
Q 1944 3584 2234 3584 
Q 2853 3584 3176 3315 
Q 3500 3047 3500 2534 
Q 3500 2431 3484 2292 
Q 3469 2153 3438 1997 
z
M 2816 1759 
L 2241 1759 
Q 1534 1759 1195 1570 
Q 856 1381 856 984 
Q 856 709 1029 553 
Q 1203 397 1509 397 
Q 1978 397 2328 733 
Q 2678 1069 2791 1631 
L 2816 1759 
z
" transform="scale(0.015625)"/>
      <path id="DejaVuSans-Oblique-72" d="M 2853 2969 
Q 2766 3016 2653 3041 
Q 2541 3066 2413 3066 
Q 1953 3066 1609 2717 
Q 1266 2369 1153 1784 
L 800 0 
L 225 0 
L 909 3500 
L 1484 3500 
L 1375 2956 
Q 1603 3259 1920 3421 
Q 2238 3584 2597 3584 
Q 2691 3584 2781 3573 
Q 2872 3563 2963 3538 
L 2853 2969 
z
" transform="scale(0.015625)"/>
      <path id="DejaVuSans-Oblique-65" d="M 3078 2063 
Q 3088 2113 3092 2166 
Q 3097 2219 3097 2272 
Q 3097 2653 2873 2875 
Q 2650 3097 2266 3097 
Q 1838 3097 1509 2826 
Q 1181 2556 1013 2059 
L 3078 2063 
z
M 3578 1613 
L 903 1613 
Q 884 1494 878 1425 
Q 872 1356 872 1306 
Q 872 872 1139 634 
Q 1406 397 1894 397 
Q 2269 397 2603 481 
Q 2938 566 3225 728 
L 3116 159 
Q 2806 34 2476 -28 
Q 2147 -91 1806 -91 
Q 1078 -91 686 257 
Q 294 606 294 1247 
Q 294 1794 489 2264 
Q 684 2734 1063 3103 
Q 1306 3334 1642 3459 
Q 1978 3584 2356 3584 
Q 2950 3584 3301 3228 
Q 3653 2872 3653 2272 
Q 3653 2128 3634 1964 
Q 3616 1800 3578 1613 
z
" transform="scale(0.015625)"/>
      <path id="DejaVuSans-Oblique-64" d="M 2675 525 
Q 2444 222 2128 65 
Q 1813 -91 1428 -91 
Q 903 -91 598 267 
Q 294 625 294 1247 
Q 294 1766 478 2236 
Q 663 2706 1013 3078 
Q 1244 3325 1534 3454 
Q 1825 3584 2144 3584 
Q 2481 3584 2739 3421 
Q 2997 3259 3138 2956 
L 3513 4863 
L 4091 4863 
L 3144 0 
L 2566 0 
L 2675 525 
z
M 891 1350 
Q 891 897 1095 644 
Q 1300 391 1663 391 
Q 1931 391 2161 520 
Q 2391 650 2566 903 
Q 2750 1166 2856 1509 
Q 2963 1853 2963 2188 
Q 2963 2622 2758 2865 
Q 2553 3109 2194 3109 
Q 1922 3109 1687 2981 
Q 1453 2853 1288 2613 
Q 1106 2353 998 2009 
Q 891 1666 891 1350 
z
" transform="scale(0.015625)"/>
      <path id="DejaVuSans-Oblique-2f" d="M 2175 4666 
L 2731 4666 
L 84 -594 
L -469 -594 
L 2175 4666 
z
" transform="scale(0.015625)"/>
      <path id="DejaVuSans-Oblique-35" d="M 3719 4666 
L 3622 4141 
L 1691 4141 
L 1466 2988 
Q 1609 3034 1757 3056 
Q 1906 3078 2059 3078 
Q 2706 3078 3081 2731 
Q 3456 2384 3456 1791 
Q 3456 1375 3264 994 
Q 3072 613 2719 325 
Q 2469 125 2108 17 
Q 1747 -91 1319 -91 
Q 1038 -91 744 -41 
Q 450 9 128 109 
L 244 697 
Q 531 556 820 486 
Q 1109 416 1403 416 
Q 2013 416 2411 781 
Q 2809 1147 2809 1697 
Q 2809 2103 2548 2328 
Q 2288 2553 1819 2553 
Q 1572 2553 1305 2495 
Q 1038 2438 756 2322 
L 1209 4666 
L 3719 4666 
z
" transform="scale(0.015625)"/>
      <path id="DejaVuSans-Oblique-74" d="M 2706 3500 
L 2619 3053 
L 1472 3053 
L 1100 1153 
Q 1081 1047 1072 975 
Q 1063 903 1063 863 
Q 1063 663 1183 572 
Q 1303 481 1569 481 
L 2150 481 
L 2053 0 
L 1503 0 
Q 991 0 739 200 
Q 488 400 488 806 
Q 488 878 497 964 
Q 506 1050 525 1153 
L 897 3053 
L 409 3053 
L 500 3500 
L 978 3500 
L 1172 4494 
L 1747 4494 
L 1556 3500 
L 2706 3500 
z
" transform="scale(0.015625)"/>
      <path id="DejaVuSans-Oblique-6f" d="M 1625 -91 
Q 1009 -91 651 289 
Q 294 669 294 1325 
Q 294 1706 417 2101 
Q 541 2497 738 2766 
Q 1047 3184 1428 3384 
Q 1809 3584 2291 3584 
Q 2888 3584 3255 3212 
Q 3622 2841 3622 2241 
Q 3622 1825 3500 1412 
Q 3378 1000 3181 728 
Q 2875 309 2494 109 
Q 2113 -91 1625 -91 
z
M 891 1344 
Q 891 869 1089 633 
Q 1288 397 1691 397 
Q 2269 397 2648 901 
Q 3028 1406 3028 2181 
Q 3028 2634 2825 2865 
Q 2622 3097 2228 3097 
Q 1903 3097 1650 2945 
Q 1397 2794 1197 2484 
Q 1050 2253 970 1956 
Q 891 1659 891 1344 
z
" transform="scale(0.015625)"/>
      <path id="DejaVuSans-Oblique-6c" d="M 1172 4863 
L 1747 4863 
L 800 0 
L 225 0 
L 1172 4863 
z
" transform="scale(0.015625)"/>
      <path id="DejaVuSans-Oblique-28" d="M 2731 4856 
Q 1903 3822 1495 2892 
Q 1088 1963 1088 1100 
Q 1088 606 1206 120 
Q 1325 -366 1563 -844 
L 1063 -844 
Q 775 -306 634 201 
Q 494 709 494 1197 
Q 494 2125 923 3036 
Q 1353 3947 2222 4856 
L 2731 4856 
z
" transform="scale(0.015625)"/>
      <path id="DejaVuSans-Oblique-34" d="M 2753 4666 
L 3547 4666 
L 2950 1625 
L 3616 1625 
L 3513 1100 
L 2847 1100 
L 2638 0 
L 2009 0 
L 2222 1100 
L 116 1100 
L 238 1709 
L 2753 4666 
z
M 2809 4116 
L 728 1625 
L 2322 1625 
L 2809 4116 
z
" transform="scale(0.015625)"/>
      <path id="DejaVuSans-Oblique-25" d="M 1503 2209 
Q 1078 2209 829 2486 
Q 581 2763 581 3238 
Q 581 3913 943 4331 
Q 1306 4750 1888 4750 
Q 2313 4750 2561 4470 
Q 2809 4191 2809 3713 
Q 2809 3044 2446 2626 
Q 2084 2209 1503 2209 
z
M 2309 3694 
Q 2309 4022 2187 4187 
Q 2066 4353 1825 4353 
Q 1475 4353 1278 4050 
Q 1081 3747 1081 3206 
Q 1081 2919 1207 2762 
Q 1334 2606 1569 2606 
Q 1903 2606 2106 2903 
Q 2309 3200 2309 3694 
z
M 4997 1394 
Q 4997 1728 4878 1893 
Q 4759 2059 4519 2059 
Q 4172 2059 3973 1754 
Q 3775 1450 3775 909 
Q 3775 619 3901 462 
Q 4028 306 4263 306 
Q 4597 306 4797 603 
Q 4997 900 4997 1394 
z
M 4197 -91 
Q 3772 -91 3525 187 
Q 3278 466 3278 941 
Q 3278 1616 3639 2033 
Q 4000 2450 4581 2450 
Q 5006 2450 5251 2175 
Q 5497 1900 5497 1422 
Q 5497 750 5136 329 
Q 4775 -91 4197 -91 
z
M 5259 4750 
L 1403 -91 
L 903 -91 
L 4763 4750 
L 5259 4750 
z
" transform="scale(0.015625)"/>
      <path id="DejaVuSans-Oblique-76" d="M 459 3500 
L 1069 3500 
L 1581 525 
L 3256 3500 
L 3866 3500 
L 1875 0 
L 1100 0 
L 459 3500 
z
" transform="scale(0.015625)"/>
      <path id="DejaVuSans-Oblique-70" d="M 3175 2156 
Q 3175 2616 2975 2859 
Q 2775 3103 2400 3103 
Q 2144 3103 1911 2972 
Q 1678 2841 1497 2591 
Q 1319 2344 1212 1994 
Q 1106 1644 1106 1300 
Q 1106 863 1306 627 
Q 1506 391 1875 391 
Q 2147 391 2380 519 
Q 2613 647 2778 891 
Q 2956 1147 3065 1494 
Q 3175 1841 3175 2156 
z
M 1394 2969 
Q 1625 3272 1939 3428 
Q 2253 3584 2638 3584 
Q 3175 3584 3472 3232 
Q 3769 2881 3769 2247 
Q 3769 1728 3584 1258 
Q 3400 788 3053 416 
Q 2822 169 2531 39 
Q 2241 -91 1919 -91 
Q 1547 -91 1294 64 
Q 1041 219 916 525 
L 556 -1331 
L -19 -1331 
L 922 3500 
L 1497 3500 
L 1394 2969 
z
" transform="scale(0.015625)"/>
      <path id="DejaVuSans-Oblique-29" d="M -397 -844 
Q 434 191 840 1120 
Q 1247 2050 1247 2913 
Q 1247 3406 1130 3892 
Q 1013 4378 775 4856 
L 1275 4856 
Q 1563 4316 1703 3812 
Q 1844 3309 1844 2822 
Q 1844 1891 1411 973 
Q 978 56 116 -844 
L -397 -844 
z
" transform="scale(0.015625)"/>
     </defs>
     <use xlink:href="#DejaVuSans-Oblique-31"/>
     <use xlink:href="#DejaVuSans-Oblique-32" transform="translate(63.623047 0)"/>
     <use xlink:href="#DejaVuSans-Oblique-20" transform="translate(127.246094 0)"/>
     <use xlink:href="#DejaVuSans-Oblique-73" transform="translate(159.033203 0)"/>
     <use xlink:href="#DejaVuSans-Oblique-68" transform="translate(211.132812 0)"/>
     <use xlink:href="#DejaVuSans-Oblique-61" transform="translate(274.511719 0)"/>
     <use xlink:href="#DejaVuSans-Oblique-72" transform="translate(335.791016 0)"/>
     <use xlink:href="#DejaVuSans-Oblique-65" transform="translate(376.904297 0)"/>
     <use xlink:href="#DejaVuSans-Oblique-64" transform="translate(438.427734 0)"/>
     <use xlink:href="#DejaVuSans-Oblique-20" transform="translate(501.904297 0)"/>
     <use xlink:href="#DejaVuSans-Oblique-2f" transform="translate(533.691406 0)"/>
     <use xlink:href="#DejaVuSans-Oblique-20" transform="translate(567.382812 0)"/>
     <use xlink:href="#DejaVuSans-Oblique-35" transform="translate(599.169922 0)"/>
     <use xlink:href="#DejaVuSans-Oblique-31" transform="translate(662.792969 0)"/>
     <use xlink:href="#DejaVuSans-Oblique-20" transform="translate(726.416016 0)"/>
     <use xlink:href="#DejaVuSans-Oblique-74" transform="translate(758.203125 0)"/>
     <use xlink:href="#DejaVuSans-Oblique-6f" transform="translate(797.412109 0)"/>
     <use xlink:href="#DejaVuSans-Oblique-74" transform="translate(858.59375 0)"/>
     <use xlink:href="#DejaVuSans-Oblique-61" transform="translate(897.802734 0)"/>
     <use xlink:href="#DejaVuSans-Oblique-6c" transform="translate(959.082031 0)"/>
     <use xlink:href="#DejaVuSans-Oblique-20" transform="translate(986.865234 0)"/>
     <use xlink:href="#DejaVuSans-Oblique-28" transform="translate(1018.652344 0)"/>
     <use xlink:href="#DejaVuSans-Oblique-32" transform="translate(1057.666016 0)"/>
     <use xlink:href="#DejaVuSans-Oblique-34" transform="translate(1121.289062 0)"/>
     <use xlink:href="#DejaVuSans-Oblique-25" transform="translate(1184.912109 0)"/>
     <use xlink:href="#DejaVuSans-Oblique-20" transform="translate(1279.931641 0)"/>
     <use xlink:href="#DejaVuSans-Oblique-6f" transform="translate(1311.71875 0)"/>
     <use xlink:href="#DejaVuSans-Oblique-76" transform="translate(1372.900391 0)"/>
     <use xlink:href="#DejaVuSans-Oblique-65" transform="translate(1432.080078 0)"/>
     <use xlink:href="#DejaVuSans-Oblique-72" transform="translate(1493.603516 0)"/>
     <use xlink:href="#DejaVuSans-Oblique-6c" transform="translate(1534.716797 0)"/>
     <use xlink:href="#DejaVuSans-Oblique-61" transform="translate(1562.5 0)"/>
     <use xlink:href="#DejaVuSans-Oblique-70" transform="translate(1623.779297 0)"/>
     <use xlink:href="#DejaVuSans-Oblique-29" transform="translate(1687.255859 0)"/>
    </g>
   </g>
   <g id="text_7">
    <!-- Phenylpropanoid biosynthesis (UP in both) -->
    <g transform="translate(118.118594 84.24) scale(0.11 -0.11)">
     <defs>
      <path id="DejaVuSans-Bold-50" d="M 588 4666 
L 2584 4666 
Q 3475 4666 3951 4270 
Q 4428 3875 4428 3144 
Q 4428 2409 3951 2014 
Q 3475 1619 2584 1619 
L 1791 1619 
L 1791 0 
L 588 0 
L 588 4666 
z
M 1791 3794 
L 1791 2491 
L 2456 2491 
Q 2806 2491 2997 2661 
Q 3188 2831 3188 3144 
Q 3188 3456 2997 3625 
Q 2806 3794 2456 3794 
L 1791 3794 
z
" transform="scale(0.015625)"/>
      <path id="DejaVuSans-Bold-68" d="M 4056 2131 
L 4056 0 
L 2931 0 
L 2931 347 
L 2931 1625 
Q 2931 2084 2911 2256 
Q 2891 2428 2841 2509 
Q 2775 2619 2662 2680 
Q 2550 2741 2406 2741 
Q 2056 2741 1856 2470 
Q 1656 2200 1656 1722 
L 1656 0 
L 538 0 
L 538 4863 
L 1656 4863 
L 1656 2988 
Q 1909 3294 2193 3439 
Q 2478 3584 2822 3584 
Q 3428 3584 3742 3212 
Q 4056 2841 4056 2131 
z
" transform="scale(0.015625)"/>
      <path id="DejaVuSans-Bold-65" d="M 4031 1759 
L 4031 1441 
L 1416 1441 
Q 1456 1047 1700 850 
Q 1944 653 2381 653 
Q 2734 653 3104 758 
Q 3475 863 3866 1075 
L 3866 213 
Q 3469 63 3072 -14 
Q 2675 -91 2278 -91 
Q 1328 -91 801 392 
Q 275 875 275 1747 
Q 275 2603 792 3093 
Q 1309 3584 2216 3584 
Q 3041 3584 3536 3087 
Q 4031 2591 4031 1759 
z
M 2881 2131 
Q 2881 2450 2695 2645 
Q 2509 2841 2209 2841 
Q 1884 2841 1681 2658 
Q 1478 2475 1428 2131 
L 2881 2131 
z
" transform="scale(0.015625)"/>
      <path id="DejaVuSans-Bold-6e" d="M 4056 2131 
L 4056 0 
L 2931 0 
L 2931 347 
L 2931 1631 
Q 2931 2084 2911 2256 
Q 2891 2428 2841 2509 
Q 2775 2619 2662 2680 
Q 2550 2741 2406 2741 
Q 2056 2741 1856 2470 
Q 1656 2200 1656 1722 
L 1656 0 
L 538 0 
L 538 3500 
L 1656 3500 
L 1656 2988 
Q 1909 3294 2193 3439 
Q 2478 3584 2822 3584 
Q 3428 3584 3742 3212 
Q 4056 2841 4056 2131 
z
" transform="scale(0.015625)"/>
      <path id="DejaVuSans-Bold-79" d="M 78 3500 
L 1197 3500 
L 2138 1125 
L 2938 3500 
L 4056 3500 
L 2584 -331 
Q 2363 -916 2067 -1148 
Q 1772 -1381 1288 -1381 
L 641 -1381 
L 641 -647 
L 991 -647 
Q 1275 -647 1404 -556 
Q 1534 -466 1606 -231 
L 1638 -134 
L 78 3500 
z
" transform="scale(0.015625)"/>
      <path id="DejaVuSans-Bold-6c" d="M 538 4863 
L 1656 4863 
L 1656 0 
L 538 0 
L 538 4863 
z
" transform="scale(0.015625)"/>
      <path id="DejaVuSans-Bold-70" d="M 1656 506 
L 1656 -1331 
L 538 -1331 
L 538 3500 
L 1656 3500 
L 1656 2988 
Q 1888 3294 2169 3439 
Q 2450 3584 2816 3584 
Q 3463 3584 3878 3070 
Q 4294 2556 4294 1747 
Q 4294 938 3878 423 
Q 3463 -91 2816 -91 
Q 2450 -91 2169 54 
Q 1888 200 1656 506 
z
M 2400 2772 
Q 2041 2772 1848 2508 
Q 1656 2244 1656 1747 
Q 1656 1250 1848 986 
Q 2041 722 2400 722 
Q 2759 722 2948 984 
Q 3138 1247 3138 1747 
Q 3138 2247 2948 2509 
Q 2759 2772 2400 2772 
z
" transform="scale(0.015625)"/>
      <path id="DejaVuSans-Bold-72" d="M 3138 2547 
Q 2991 2616 2845 2648 
Q 2700 2681 2553 2681 
Q 2122 2681 1889 2404 
Q 1656 2128 1656 1613 
L 1656 0 
L 538 0 
L 538 3500 
L 1656 3500 
L 1656 2925 
Q 1872 3269 2151 3426 
Q 2431 3584 2822 3584 
Q 2878 3584 2943 3579 
Q 3009 3575 3134 3559 
L 3138 2547 
z
" transform="scale(0.015625)"/>
      <path id="DejaVuSans-Bold-6f" d="M 2203 2784 
Q 1831 2784 1636 2517 
Q 1441 2250 1441 1747 
Q 1441 1244 1636 976 
Q 1831 709 2203 709 
Q 2569 709 2762 976 
Q 2956 1244 2956 1747 
Q 2956 2250 2762 2517 
Q 2569 2784 2203 2784 
z
M 2203 3584 
Q 3106 3584 3614 3096 
Q 4122 2609 4122 1747 
Q 4122 884 3614 396 
Q 3106 -91 2203 -91 
Q 1297 -91 786 396 
Q 275 884 275 1747 
Q 275 2609 786 3096 
Q 1297 3584 2203 3584 
z
" transform="scale(0.015625)"/>
      <path id="DejaVuSans-Bold-61" d="M 2106 1575 
Q 1756 1575 1579 1456 
Q 1403 1338 1403 1106 
Q 1403 894 1545 773 
Q 1688 653 1941 653 
Q 2256 653 2472 879 
Q 2688 1106 2688 1447 
L 2688 1575 
L 2106 1575 
z
M 3816 1997 
L 3816 0 
L 2688 0 
L 2688 519 
Q 2463 200 2181 54 
Q 1900 -91 1497 -91 
Q 953 -91 614 226 
Q 275 544 275 1050 
Q 275 1666 698 1953 
Q 1122 2241 2028 2241 
L 2688 2241 
L 2688 2328 
Q 2688 2594 2478 2717 
Q 2269 2841 1825 2841 
Q 1466 2841 1156 2769 
Q 847 2697 581 2553 
L 581 3406 
Q 941 3494 1303 3539 
Q 1666 3584 2028 3584 
Q 2975 3584 3395 3211 
Q 3816 2838 3816 1997 
z
" transform="scale(0.015625)"/>
      <path id="DejaVuSans-Bold-69" d="M 538 3500 
L 1656 3500 
L 1656 0 
L 538 0 
L 538 3500 
z
M 538 4863 
L 1656 4863 
L 1656 3950 
L 538 3950 
L 538 4863 
z
" transform="scale(0.015625)"/>
      <path id="DejaVuSans-Bold-64" d="M 2919 2988 
L 2919 4863 
L 4044 4863 
L 4044 0 
L 2919 0 
L 2919 506 
Q 2688 197 2409 53 
Q 2131 -91 1766 -91 
Q 1119 -91 703 423 
Q 288 938 288 1747 
Q 288 2556 703 3070 
Q 1119 3584 1766 3584 
Q 2128 3584 2408 3439 
Q 2688 3294 2919 2988 
z
M 2181 722 
Q 2541 722 2730 984 
Q 2919 1247 2919 1747 
Q 2919 2247 2730 2509 
Q 2541 2772 2181 2772 
Q 1825 2772 1636 2509 
Q 1447 2247 1447 1747 
Q 1447 1247 1636 984 
Q 1825 722 2181 722 
z
" transform="scale(0.015625)"/>
      <path id="DejaVuSans-Bold-20" transform="scale(0.015625)"/>
      <path id="DejaVuSans-Bold-62" d="M 2400 722 
Q 2759 722 2948 984 
Q 3138 1247 3138 1747 
Q 3138 2247 2948 2509 
Q 2759 2772 2400 2772 
Q 2041 2772 1848 2508 
Q 1656 2244 1656 1747 
Q 1656 1250 1848 986 
Q 2041 722 2400 722 
z
M 1656 2988 
Q 1888 3294 2169 3439 
Q 2450 3584 2816 3584 
Q 3463 3584 3878 3070 
Q 4294 2556 4294 1747 
Q 4294 938 3878 423 
Q 3463 -91 2816 -91 
Q 2450 -91 2169 54 
Q 1888 200 1656 506 
L 1656 0 
L 538 0 
L 538 4863 
L 1656 4863 
L 1656 2988 
z
" transform="scale(0.015625)"/>
      <path id="DejaVuSans-Bold-73" d="M 3272 3391 
L 3272 2541 
Q 2913 2691 2578 2766 
Q 2244 2841 1947 2841 
Q 1628 2841 1473 2761 
Q 1319 2681 1319 2516 
Q 1319 2381 1436 2309 
Q 1553 2238 1856 2203 
L 2053 2175 
Q 2913 2066 3209 1816 
Q 3506 1566 3506 1031 
Q 3506 472 3093 190 
Q 2681 -91 1863 -91 
Q 1516 -91 1145 -36 
Q 775 19 384 128 
L 384 978 
Q 719 816 1070 734 
Q 1422 653 1784 653 
Q 2113 653 2278 743 
Q 2444 834 2444 1013 
Q 2444 1163 2330 1236 
Q 2216 1309 1875 1350 
L 1678 1375 
Q 931 1469 631 1722 
Q 331 1975 331 2491 
Q 331 3047 712 3315 
Q 1094 3584 1881 3584 
Q 2191 3584 2531 3537 
Q 2872 3491 3272 3391 
z
" transform="scale(0.015625)"/>
      <path id="DejaVuSans-Bold-74" d="M 1759 4494 
L 1759 3500 
L 2913 3500 
L 2913 2700 
L 1759 2700 
L 1759 1216 
Q 1759 972 1856 886 
Q 1953 800 2241 800 
L 2816 800 
L 2816 0 
L 1856 0 
Q 1194 0 917 276 
Q 641 553 641 1216 
L 641 2700 
L 84 2700 
L 84 3500 
L 641 3500 
L 641 4494 
L 1759 4494 
z
" transform="scale(0.015625)"/>
      <path id="DejaVuSans-Bold-28" d="M 2413 -844 
L 1484 -844 
Q 1006 -72 778 623 
Q 550 1319 550 2003 
Q 550 2688 779 3389 
Q 1009 4091 1484 4856 
L 2413 4856 
Q 2013 4116 1813 3408 
Q 1613 2700 1613 2009 
Q 1613 1319 1811 609 
Q 2009 -100 2413 -844 
z
" transform="scale(0.015625)"/>
      <path id="DejaVuSans-Bold-55" d="M 588 4666 
L 1791 4666 
L 1791 1869 
Q 1791 1291 1980 1042 
Q 2169 794 2597 794 
Q 3028 794 3217 1042 
Q 3406 1291 3406 1869 
L 3406 4666 
L 4609 4666 
L 4609 1869 
Q 4609 878 4112 393 
Q 3616 -91 2597 -91 
Q 1581 -91 1084 393 
Q 588 878 588 1869 
L 588 4666 
z
" transform="scale(0.015625)"/>
      <path id="DejaVuSans-Bold-29" d="M 513 -844 
Q 913 -100 1113 609 
Q 1313 1319 1313 2009 
Q 1313 2700 1113 3408 
Q 913 4116 513 4856 
L 1441 4856 
Q 1916 4091 2145 3389 
Q 2375 2688 2375 2003 
Q 2375 1319 2147 623 
Q 1919 -72 1441 -844 
L 513 -844 
z
" transform="scale(0.015625)"/>
     </defs>
     <use xlink:href="#DejaVuSans-Bold-50"/>
     <use xlink:href="#DejaVuSans-Bold-68" transform="translate(73.291016 0)"/>
     <use xlink:href="#DejaVuSans-Bold-65" transform="translate(144.482422 0)"/>
     <use xlink:href="#DejaVuSans-Bold-6e" transform="translate(212.304688 0)"/>
     <use xlink:href="#DejaVuSans-Bold-79" transform="translate(283.496094 0)"/>
     <use xlink:href="#DejaVuSans-Bold-6c" transform="translate(348.681641 0)"/>
     <use xlink:href="#DejaVuSans-Bold-70" transform="translate(382.958984 0)"/>
     <use xlink:href="#DejaVuSans-Bold-72" transform="translate(454.541016 0)"/>
     <use xlink:href="#DejaVuSans-Bold-6f" transform="translate(503.857422 0)"/>
     <use xlink:href="#DejaVuSans-Bold-70" transform="translate(572.558594 0)"/>
     <use xlink:href="#DejaVuSans-Bold-61" transform="translate(644.140625 0)"/>
     <use xlink:href="#DejaVuSans-Bold-6e" transform="translate(711.621094 0)"/>
     <use xlink:href="#DejaVuSans-Bold-6f" transform="translate(782.8125 0)"/>
     <use xlink:href="#DejaVuSans-Bold-69" transform="translate(851.513672 0)"/>
     <use xlink:href="#DejaVuSans-Bold-64" transform="translate(885.791016 0)"/>
     <use xlink:href="#DejaVuSans-Bold-20" transform="translate(957.373047 0)"/>
     <use xlink:href="#DejaVuSans-Bold-62" transform="translate(992.1875 0)"/>
     <use xlink:href="#DejaVuSans-Bold-69" transform="translate(1063.769531 0)"/>
     <use xlink:href="#DejaVuSans-Bold-6f" transform="translate(1098.046875 0)"/>
     <use xlink:href="#DejaVuSans-Bold-73" transform="translate(1166.748047 0)"/>
     <use xlink:href="#DejaVuSans-Bold-79" transform="translate(1226.269531 0)"/>
     <use xlink:href="#DejaVuSans-Bold-6e" transform="translate(1291.455078 0)"/>
     <use xlink:href="#DejaVuSans-Bold-74" transform="translate(1362.646484 0)"/>
     <use xlink:href="#DejaVuSans-Bold-68" transform="translate(1410.449219 0)"/>
     <use xlink:href="#DejaVuSans-Bold-65" transform="translate(1481.640625 0)"/>
     <use xlink:href="#DejaVuSans-Bold-73" transform="translate(1549.462891 0)"/>
     <use xlink:href="#DejaVuSans-Bold-69" transform="translate(1608.984375 0)"/>
     <use xlink:href="#DejaVuSans-Bold-73" transform="translate(1643.261719 0)"/>
     <use xlink:href="#DejaVuSans-Bold-20" transform="translate(1702.783203 0)"/>
     <use xlink:href="#DejaVuSans-Bold-28" transform="translate(1737.597656 0)"/>
     <use xlink:href="#DejaVuSans-Bold-55" transform="translate(1783.300781 0)"/>
     <use xlink:href="#DejaVuSans-Bold-50" transform="translate(1864.501953 0)"/>
     <use xlink:href="#DejaVuSans-Bold-20" transform="translate(1937.792969 0)"/>
     <use xlink:href="#DejaVuSans-Bold-69" transform="translate(1972.607422 0)"/>
     <use xlink:href="#DejaVuSans-Bold-6e" transform="translate(2006.884766 0)"/>
     <use xlink:href="#DejaVuSans-Bold-20" transform="translate(2078.076172 0)"/>
     <use xlink:href="#DejaVuSans-Bold-62" transform="translate(2112.890625 0)"/>
     <use xlink:href="#DejaVuSans-Bold-6f" transform="translate(2184.472656 0)"/>
     <use xlink:href="#DejaVuSans-Bold-74" transform="translate(2253.173828 0)"/>
     <use xlink:href="#DejaVuSans-Bold-68" transform="translate(2300.976562 0)"/>
     <use xlink:href="#DejaVuSans-Bold-29" transform="translate(2372.167969 0)"/>
    </g>
   </g>
  </g>
  <g id="axes_2">
   <g id="patch_5">
    <path d="M 823.966194 417.737938 
C 803.527164 422.794426 782.20275 423.132642 761.613644 418.726879 
C 741.024538 414.321117 721.705901 405.285893 705.125981 392.3079 
C 688.546062 379.329907 675.135812 362.746475 665.914434 343.817972 
C 656.693057 324.889469 651.900237 304.107893 651.900237 283.05268 
C 651.900237 261.997466 656.693057 241.21589 665.914434 222.287387 
C 675.135812 203.358884 688.546062 186.775452 705.125981 173.797459 
C 721.705901 160.819467 741.024538 151.784243 761.613644 147.37848 
C 782.20275 142.972718 803.527164 143.310933 823.966194 148.367421 
C 799.504136 131.791691 770.982283 122.18931 741.476223 120.595727 
C 711.970163 119.002145 682.580012 125.476778 656.474989 139.321449 
C 630.369967 153.16612 608.523384 173.864638 593.291016 199.185026 
C 578.058649 224.505414 570.008426 253.503617 570.008426 283.05268 
C 570.008426 312.601742 578.058649 341.599945 593.291016 366.920333 
C 608.523384 392.240722 630.369967 412.93924 656.474989 426.78391 
C 682.580012 440.628581 711.970163 447.103214 741.476223 445.509632 
C 770.982283 443.91605 799.504136 434.313668 823.966194 417.737938 
" clip-path="url(#pe1f9ed3034)" style="fill: #ff0000; opacity: 0.4"/>
   </g>
   <g id="patch_6">
    <path d="M 823.966194 148.367421 
C 845.966161 163.274814 863.982162 183.347957 876.433375 206.825525 
C 888.884588 230.303093 895.395862 256.477712 895.395862 283.05268 
C 895.395862 309.627647 888.884588 335.802266 876.433375 359.279834 
C 863.982162 382.757402 845.966161 402.830546 823.966194 417.737938 
C 854.053833 410.294445 880.79664 392.97937 899.901126 368.572604 
C 919.005611 344.165838 929.391574 314.047382 929.391574 283.05268 
C 929.391574 252.057977 919.005611 221.939522 899.901126 197.532756 
C 880.79664 173.12599 854.053833 155.810914 823.966194 148.367421 
" clip-path="url(#pe1f9ed3034)" style="fill: #008000; opacity: 0.4"/>
   </g>
   <g id="patch_7">
    <path d="M 823.966194 417.737938 
C 845.966161 402.830546 863.982162 382.757402 876.433375 359.279834 
C 888.884588 335.802266 895.395862 309.627647 895.395862 283.05268 
C 895.395862 256.477712 888.884588 230.303093 876.433375 206.825525 
C 863.982162 183.347957 845.966161 163.274814 823.966194 148.367421 
C 803.527164 143.310933 782.20275 142.972718 761.613644 147.37848 
C 741.024538 151.784243 721.705901 160.819467 705.125981 173.797459 
C 688.546062 186.775452 675.135812 203.358884 665.914434 222.287387 
C 656.693057 241.21589 651.900237 261.997466 651.900237 283.05268 
C 651.900237 304.107893 656.693057 324.889469 665.914434 343.817972 
C 675.135812 362.746475 688.546062 379.329907 705.125981 392.3079 
C 721.705901 405.285893 741.024538 414.321117 761.613644 418.726879 
C 782.20275 423.132642 803.527164 422.794426 823.966194 417.737938 
" clip-path="url(#pe1f9ed3034)" style="fill: #b25900; opacity: 0.4"/>
   </g>
   <g id="text_8">
    <!-- 4 -->
    <g transform="translate(607.773081 285.812055) scale(0.1 -0.1)">
     <defs>
      <path id="DejaVuSans-34" d="M 2419 4116 
L 825 1625 
L 2419 1625 
L 2419 4116 
z
M 2253 4666 
L 3047 4666 
L 3047 1625 
L 3713 1625 
L 3713 1100 
L 3047 1100 
L 3047 0 
L 2419 0 
L 2419 1100 
L 313 1100 
L 313 1709 
L 2253 4666 
z
" transform="scale(0.015625)"/>
     </defs>
     <use xlink:href="#DejaVuSans-34"/>
    </g>
   </g>
   <g id="text_9">
    <!-- 1 -->
    <g transform="translate(909.212468 285.812055) scale(0.1 -0.1)">
     <use xlink:href="#DejaVuSans-31"/>
    </g>
   </g>
   <g id="text_10">
    <!-- 7 -->
    <g transform="translate(770.466799 285.812055) scale(0.1 -0.1)">
     <defs>
      <path id="DejaVuSans-37" d="M 525 4666 
L 3525 4666 
L 3525 4397 
L 1831 0 
L 1172 0 
L 2766 4134 
L 525 4134 
L 525 4666 
z
" transform="scale(0.015625)"/>
     </defs>
     <use xlink:href="#DejaVuSans-37"/>
    </g>
   </g>
   <g id="text_11">
    <!-- Root -->
    <g transform="translate(705.514644 469.936492) scale(0.12 -0.12)">
     <use xlink:href="#DejaVuSans-52"/>
     <use xlink:href="#DejaVuSans-6f" transform="translate(64.982422 0)"/>
     <use xlink:href="#DejaVuSans-6f" transform="translate(126.164062 0)"/>
     <use xlink:href="#DejaVuSans-74" transform="translate(187.345703 0)"/>
    </g>
    <!-- (spaceflight) -->
    <g transform="translate(657.314019 483.373867) scale(0.12 -0.12)">
     <use xlink:href="#DejaVuSans-28"/>
     <use xlink:href="#DejaVuSans-73" transform="translate(39.013672 0)"/>
     <use xlink:href="#DejaVuSans-70" transform="translate(91.113281 0)"/>
     <use xlink:href="#DejaVuSans-61" transform="translate(154.589844 0)"/>
     <use xlink:href="#DejaVuSans-63" transform="translate(215.869141 0)"/>
     <use xlink:href="#DejaVuSans-65" transform="translate(270.849609 0)"/>
     <use xlink:href="#DejaVuSans-66" transform="translate(332.373047 0)"/>
     <use xlink:href="#DejaVuSans-6c" transform="translate(367.578125 0)"/>
     <use xlink:href="#DejaVuSans-69" transform="translate(395.361328 0)"/>
     <use xlink:href="#DejaVuSans-67" transform="translate(423.144531 0)"/>
     <use xlink:href="#DejaVuSans-68" transform="translate(486.621094 0)"/>
     <use xlink:href="#DejaVuSans-74" transform="translate(550 0)"/>
     <use xlink:href="#DejaVuSans-29" transform="translate(589.208984 0)"/>
    </g>
   </g>
   <g id="text_12">
    <!-- Leaf -->
    <g transform="translate(790.645905 445.988443) scale(0.12 -0.12)">
     <use xlink:href="#DejaVuSans-4c"/>
     <use xlink:href="#DejaVuSans-65" transform="translate(53.962891 0)"/>
     <use xlink:href="#DejaVuSans-61" transform="translate(115.486328 0)"/>
     <use xlink:href="#DejaVuSans-66" transform="translate(176.765625 0)"/>
    </g>
    <!-- (blue light) -->
    <g transform="translate(790.645905 459.425818) scale(0.12 -0.12)">
     <use xlink:href="#DejaVuSans-28"/>
     <use xlink:href="#DejaVuSans-62" transform="translate(39.013672 0)"/>
     <use xlink:href="#DejaVuSans-6c" transform="translate(102.490234 0)"/>
     <use xlink:href="#DejaVuSans-75" transform="translate(130.273438 0)"/>
     <use xlink:href="#DejaVuSans-65" transform="translate(193.652344 0)"/>
     <use xlink:href="#DejaVuSans-20" transform="translate(255.175781 0)"/>
     <use xlink:href="#DejaVuSans-6c" transform="translate(286.962891 0)"/>
     <use xlink:href="#DejaVuSans-69" transform="translate(314.746094 0)"/>
     <use xlink:href="#DejaVuSans-67" transform="translate(342.529297 0)"/>
     <use xlink:href="#DejaVuSans-68" transform="translate(406.005859 0)"/>
     <use xlink:href="#DejaVuSans-74" transform="translate(469.384766 0)"/>
     <use xlink:href="#DejaVuSans-29" transform="translate(508.59375 0)"/>
    </g>
   </g>
   <g id="text_13">
    <!-- 7 shared / 12 total (58% overlap) -->
    <g transform="translate(674.881172 495.146627) scale(0.09 -0.09)">
     <defs>
      <path id="DejaVuSans-Oblique-37" d="M 819 4666 
L 4013 4666 
L 3956 4397 
L 1288 0 
L 594 0 
L 3116 4134 
L 716 4134 
L 819 4666 
z
" transform="scale(0.015625)"/>
      <path id="DejaVuSans-Oblique-38" d="M 2847 1416 
Q 2847 1769 2600 1992 
Q 2353 2216 1953 2216 
Q 1466 2216 1148 1923 
Q 831 1631 831 1184 
Q 831 828 1073 618 
Q 1316 409 1728 409 
Q 2219 409 2533 693 
Q 2847 978 2847 1416 
z
M 3169 3591 
Q 3169 3888 2950 4069 
Q 2731 4250 2369 4250 
Q 1941 4250 1664 4009 
Q 1388 3769 1388 3406 
Q 1388 3094 1605 2903 
Q 1822 2713 2181 2713 
Q 2613 2713 2891 2961 
Q 3169 3209 3169 3591 
z
M 2741 2456 
Q 3094 2322 3281 2050 
Q 3469 1778 3469 1394 
Q 3469 747 2969 328 
Q 2469 -91 1678 -91 
Q 1006 -91 609 239 
Q 213 569 213 1119 
Q 213 1619 553 2008 
Q 894 2397 1441 2503 
Q 1113 2616 941 2852 
Q 769 3088 769 3425 
Q 769 3991 1239 4370 
Q 1709 4750 2431 4750 
Q 3034 4750 3414 4442 
Q 3794 4134 3794 3659 
Q 3794 3247 3511 2923 
Q 3228 2600 2741 2456 
z
" transform="scale(0.015625)"/>
     </defs>
     <use xlink:href="#DejaVuSans-Oblique-37"/>
     <use xlink:href="#DejaVuSans-Oblique-20" transform="translate(63.623047 0)"/>
     <use xlink:href="#DejaVuSans-Oblique-73" transform="translate(95.410156 0)"/>
     <use xlink:href="#DejaVuSans-Oblique-68" transform="translate(147.509766 0)"/>
     <use xlink:href="#DejaVuSans-Oblique-61" transform="translate(210.888672 0)"/>
     <use xlink:href="#DejaVuSans-Oblique-72" transform="translate(272.167969 0)"/>
     <use xlink:href="#DejaVuSans-Oblique-65" transform="translate(313.28125 0)"/>
     <use xlink:href="#DejaVuSans-Oblique-64" transform="translate(374.804688 0)"/>
     <use xlink:href="#DejaVuSans-Oblique-20" transform="translate(438.28125 0)"/>
     <use xlink:href="#DejaVuSans-Oblique-2f" transform="translate(470.068359 0)"/>
     <use xlink:href="#DejaVuSans-Oblique-20" transform="translate(503.759766 0)"/>
     <use xlink:href="#DejaVuSans-Oblique-31" transform="translate(535.546875 0)"/>
     <use xlink:href="#DejaVuSans-Oblique-32" transform="translate(599.169922 0)"/>
     <use xlink:href="#DejaVuSans-Oblique-20" transform="translate(662.792969 0)"/>
     <use xlink:href="#DejaVuSans-Oblique-74" transform="translate(694.580078 0)"/>
     <use xlink:href="#DejaVuSans-Oblique-6f" transform="translate(733.789062 0)"/>
     <use xlink:href="#DejaVuSans-Oblique-74" transform="translate(794.970703 0)"/>
     <use xlink:href="#DejaVuSans-Oblique-61" transform="translate(834.179688 0)"/>
     <use xlink:href="#DejaVuSans-Oblique-6c" transform="translate(895.458984 0)"/>
     <use xlink:href="#DejaVuSans-Oblique-20" transform="translate(923.242188 0)"/>
     <use xlink:href="#DejaVuSans-Oblique-28" transform="translate(955.029297 0)"/>
     <use xlink:href="#DejaVuSans-Oblique-35" transform="translate(994.042969 0)"/>
     <use xlink:href="#DejaVuSans-Oblique-38" transform="translate(1057.666016 0)"/>
     <use xlink:href="#DejaVuSans-Oblique-25" transform="translate(1121.289062 0)"/>
     <use xlink:href="#DejaVuSans-Oblique-20" transform="translate(1216.308594 0)"/>
     <use xlink:href="#DejaVuSans-Oblique-6f" transform="translate(1248.095703 0)"/>
     <use xlink:href="#DejaVuSans-Oblique-76" transform="translate(1309.277344 0)"/>
     <use xlink:href="#DejaVuSans-Oblique-65" transform="translate(1368.457031 0)"/>
     <use xlink:href="#DejaVuSans-Oblique-72" transform="translate(1429.980469 0)"/>
     <use xlink:href="#DejaVuSans-Oblique-6c" transform="translate(1471.09375 0)"/>
     <use xlink:href="#DejaVuSans-Oblique-61" transform="translate(1498.876953 0)"/>
     <use xlink:href="#DejaVuSans-Oblique-70" transform="translate(1560.15625 0)"/>
     <use xlink:href="#DejaVuSans-Oblique-29" transform="translate(1623.632812 0)"/>
    </g>
   </g>
   <g id="text_14">
    <!-- Flavonoid biosynthesis (UP in both) -->
    <g transform="translate(639.139688 84.24) scale(0.11 -0.11)">
     <defs>
      <path id="DejaVuSans-Bold-46" d="M 588 4666 
L 3834 4666 
L 3834 3756 
L 1791 3756 
L 1791 2888 
L 3713 2888 
L 3713 1978 
L 1791 1978 
L 1791 0 
L 588 0 
L 588 4666 
z
" transform="scale(0.015625)"/>
      <path id="DejaVuSans-Bold-76" d="M 97 3500 
L 1216 3500 
L 2088 1081 
L 2956 3500 
L 4078 3500 
L 2700 0 
L 1472 0 
L 97 3500 
z
" transform="scale(0.015625)"/>
     </defs>
     <use xlink:href="#DejaVuSans-Bold-46"/>
     <use xlink:href="#DejaVuSans-Bold-6c" transform="translate(68.310547 0)"/>
     <use xlink:href="#DejaVuSans-Bold-61" transform="translate(102.587891 0)"/>
     <use xlink:href="#DejaVuSans-Bold-76" transform="translate(170.068359 0)"/>
     <use xlink:href="#DejaVuSans-Bold-6f" transform="translate(235.253906 0)"/>
     <use xlink:href="#DejaVuSans-Bold-6e" transform="translate(303.955078 0)"/>
     <use xlink:href="#DejaVuSans-Bold-6f" transform="translate(375.146484 0)"/>
     <use xlink:href="#DejaVuSans-Bold-69" transform="translate(443.847656 0)"/>
     <use xlink:href="#DejaVuSans-Bold-64" transform="translate(478.125 0)"/>
     <use xlink:href="#DejaVuSans-Bold-20" transform="translate(549.707031 0)"/>
     <use xlink:href="#DejaVuSans-Bold-62" transform="translate(584.521484 0)"/>
     <use xlink:href="#DejaVuSans-Bold-69" transform="translate(656.103516 0)"/>
     <use xlink:href="#DejaVuSans-Bold-6f" transform="translate(690.380859 0)"/>
     <use xlink:href="#DejaVuSans-Bold-73" transform="translate(759.082031 0)"/>
     <use xlink:href="#DejaVuSans-Bold-79" transform="translate(818.603516 0)"/>
     <use xlink:href="#DejaVuSans-Bold-6e" transform="translate(883.789062 0)"/>
     <use xlink:href="#DejaVuSans-Bold-74" transform="translate(954.980469 0)"/>
     <use xlink:href="#DejaVuSans-Bold-68" transform="translate(1002.783203 0)"/>
     <use xlink:href="#DejaVuSans-Bold-65" transform="translate(1073.974609 0)"/>
     <use xlink:href="#DejaVuSans-Bold-73" transform="translate(1141.796875 0)"/>
     <use xlink:href="#DejaVuSans-Bold-69" transform="translate(1201.318359 0)"/>
     <use xlink:href="#DejaVuSans-Bold-73" transform="translate(1235.595703 0)"/>
     <use xlink:href="#DejaVuSans-Bold-20" transform="translate(1295.117188 0)"/>
     <use xlink:href="#DejaVuSans-Bold-28" transform="translate(1329.931641 0)"/>
     <use xlink:href="#DejaVuSans-Bold-55" transform="translate(1375.634766 0)"/>
     <use xlink:href="#DejaVuSans-Bold-50" transform="translate(1456.835938 0)"/>
     <use xlink:href="#DejaVuSans-Bold-20" transform="translate(1530.126953 0)"/>
     <use xlink:href="#DejaVuSans-Bold-69" transform="translate(1564.941406 0)"/>
     <use xlink:href="#DejaVuSans-Bold-6e" transform="translate(1599.21875 0)"/>
     <use xlink:href="#DejaVuSans-Bold-20" transform="translate(1670.410156 0)"/>
     <use xlink:href="#DejaVuSans-Bold-62" transform="translate(1705.224609 0)"/>
     <use xlink:href="#DejaVuSans-Bold-6f" transform="translate(1776.806641 0)"/>
     <use xlink:href="#DejaVuSans-Bold-74" transform="translate(1845.507812 0)"/>
     <use xlink:href="#DejaVuSans-Bold-68" transform="translate(1893.310547 0)"/>
     <use xlink:href="#DejaVuSans-Bold-29" transform="translate(1964.501953 0)"/>
    </g>
   </g>
  </g>
  <g id="axes_3">
   <g id="patch_8">
    <path d="M 251.1 798.869753 
C 232.300489 786.382603 216.87843 769.437011 206.212348 749.547686 
C 195.546266 729.658362 189.963723 707.436116 189.963723 684.86732 
C 189.963723 662.298525 195.546266 640.076279 206.212348 620.186954 
C 216.87843 600.29763 232.300489 583.352038 251.1 570.864888 
C 230.483692 557.170971 206.533763 549.322542 181.811276 548.158864 
C 157.088788 546.995186 132.507538 552.559271 110.696096 564.25613 
C 88.884653 575.952989 70.649217 593.350281 57.939773 614.587643 
C 45.230329 635.825006 38.516647 660.117461 38.516647 684.86732 
C 38.516647 709.61718 45.230329 733.909635 57.939773 755.146997 
C 70.649217 776.38436 88.884653 793.781651 110.696096 805.47851 
C 132.507538 817.175369 157.088788 822.739455 181.811276 821.575777 
C 206.533763 820.412099 230.483692 812.56367 251.1 798.869753 
" clip-path="url(#pc507163b41)" style="fill: #ff0000; opacity: 0.4"/>
   </g>
   <g id="patch_9">
    <path d="M 251.1 570.864888 
C 269.899511 583.352038 285.32157 600.29763 295.987652 620.186954 
C 306.653734 640.076279 312.236277 662.298525 312.236277 684.86732 
C 312.236277 707.436116 306.653734 729.658362 295.987652 749.547686 
C 285.32157 769.437011 269.899511 786.382603 251.1 798.869753 
C 271.716308 812.56367 295.666237 820.412099 320.388724 821.575777 
C 345.111212 822.739455 369.692462 817.175369 391.503904 805.47851 
C 413.315347 793.781651 431.550783 776.38436 444.260227 755.146997 
C 456.969671 733.909635 463.683353 709.61718 463.683353 684.86732 
C 463.683353 660.117461 456.969671 635.825006 444.260227 614.587643 
C 431.550783 593.350281 413.315347 575.952989 391.503904 564.25613 
C 369.692462 552.559271 345.111212 546.995186 320.388724 548.158864 
C 295.666237 549.322542 271.716308 557.170971 251.1 570.864888 
" clip-path="url(#pc507163b41)" style="fill: #008000; opacity: 0.4"/>
   </g>
   <g id="patch_10">
    <path d="M 251.1 798.869753 
C 269.899511 786.382603 285.32157 769.437011 295.987652 749.547686 
C 306.653734 729.658362 312.236277 707.436116 312.236277 684.86732 
C 312.236277 662.298525 306.653734 640.076279 295.987652 620.186954 
C 285.32157 600.29763 269.899511 583.352038 251.1 570.864888 
C 232.300489 583.352038 216.87843 600.29763 206.212348 620.186954 
C 195.546266 640.076279 189.963723 662.298525 189.963723 684.86732 
C 189.963723 707.436116 195.546266 729.658362 206.212348 749.547686 
C 216.87843 769.437011 232.300489 786.382603 251.1 798.869753 
" clip-path="url(#pc507163b41)" style="fill: #b25900; opacity: 0.4"/>
   </g>
   <g id="text_15">
    <!-- 4 -->
    <g transform="translate(111.058935 687.626695) scale(0.1 -0.1)">
     <use xlink:href="#DejaVuSans-34"/>
    </g>
   </g>
   <g id="text_16">
    <!-- 4 -->
    <g transform="translate(384.778565 687.626695) scale(0.1 -0.1)">
     <use xlink:href="#DejaVuSans-34"/>
    </g>
   </g>
   <g id="text_17">
    <!-- 2 -->
    <g transform="translate(247.91875 687.626695) scale(0.1 -0.1)">
     <use xlink:href="#DejaVuSans-32"/>
    </g>
   </g>
   <g id="text_18">
    <!-- Root -->
    <g transform="translate(148.188962 844.531242) scale(0.12 -0.12)">
     <use xlink:href="#DejaVuSans-52"/>
     <use xlink:href="#DejaVuSans-6f" transform="translate(64.982422 0)"/>
     <use xlink:href="#DejaVuSans-6f" transform="translate(126.164062 0)"/>
     <use xlink:href="#DejaVuSans-74" transform="translate(187.345703 0)"/>
    </g>
    <!-- (spaceflight) -->
    <g transform="translate(99.988337 857.968617) scale(0.12 -0.12)">
     <use xlink:href="#DejaVuSans-28"/>
     <use xlink:href="#DejaVuSans-73" transform="translate(39.013672 0)"/>
     <use xlink:href="#DejaVuSans-70" transform="translate(91.113281 0)"/>
     <use xlink:href="#DejaVuSans-61" transform="translate(154.589844 0)"/>
     <use xlink:href="#DejaVuSans-63" transform="translate(215.869141 0)"/>
     <use xlink:href="#DejaVuSans-65" transform="translate(270.849609 0)"/>
     <use xlink:href="#DejaVuSans-66" transform="translate(332.373047 0)"/>
     <use xlink:href="#DejaVuSans-6c" transform="translate(367.578125 0)"/>
     <use xlink:href="#DejaVuSans-69" transform="translate(395.361328 0)"/>
     <use xlink:href="#DejaVuSans-67" transform="translate(423.144531 0)"/>
     <use xlink:href="#DejaVuSans-68" transform="translate(486.621094 0)"/>
     <use xlink:href="#DejaVuSans-74" transform="translate(550 0)"/>
     <use xlink:href="#DejaVuSans-29" transform="translate(589.208984 0)"/>
    </g>
   </g>
   <g id="text_19">
    <!-- Leaf -->
    <g transform="translate(326.823538 844.531242) scale(0.12 -0.12)">
     <use xlink:href="#DejaVuSans-4c"/>
     <use xlink:href="#DejaVuSans-65" transform="translate(53.962891 0)"/>
     <use xlink:href="#DejaVuSans-61" transform="translate(115.486328 0)"/>
     <use xlink:href="#DejaVuSans-66" transform="translate(176.765625 0)"/>
    </g>
    <!-- (blue light) -->
    <g transform="translate(326.823538 857.968617) scale(0.12 -0.12)">
     <use xlink:href="#DejaVuSans-28"/>
     <use xlink:href="#DejaVuSans-62" transform="translate(39.013672 0)"/>
     <use xlink:href="#DejaVuSans-6c" transform="translate(102.490234 0)"/>
     <use xlink:href="#DejaVuSans-75" transform="translate(130.273438 0)"/>
     <use xlink:href="#DejaVuSans-65" transform="translate(193.652344 0)"/>
     <use xlink:href="#DejaVuSans-20" transform="translate(255.175781 0)"/>
     <use xlink:href="#DejaVuSans-6c" transform="translate(286.962891 0)"/>
     <use xlink:href="#DejaVuSans-69" transform="translate(314.746094 0)"/>
     <use xlink:href="#DejaVuSans-67" transform="translate(342.529297 0)"/>
     <use xlink:href="#DejaVuSans-68" transform="translate(406.005859 0)"/>
     <use xlink:href="#DejaVuSans-74" transform="translate(469.384766 0)"/>
     <use xlink:href="#DejaVuSans-29" transform="translate(508.59375 0)"/>
    </g>
   </g>
   <g id="text_20">
    <!-- 2 shared / 10 total (20% overlap) -->
    <g transform="translate(176.281172 869.861428) scale(0.09 -0.09)">
     <defs>
      <path id="DejaVuSans-Oblique-30" d="M 2444 4750 
Q 3078 4750 3414 4328 
Q 3750 3906 3750 3116 
Q 3750 2516 3592 1923 
Q 3434 1331 3150 863 
Q 2859 394 2467 151 
Q 2075 -91 1600 -91 
Q 988 -91 653 334 
Q 319 759 319 1544 
Q 319 2138 480 2733 
Q 641 3328 928 3794 
Q 1216 4263 1602 4506 
Q 1988 4750 2444 4750 
z
M 2406 4250 
Q 2169 4250 1955 4123 
Q 1741 3997 1569 3750 
Q 1281 3338 1111 2720 
Q 941 2103 941 1453 
Q 941 938 1123 673 
Q 1306 409 1663 409 
Q 1913 409 2125 536 
Q 2338 663 2509 909 
Q 2794 1319 2961 1936 
Q 3128 2553 3128 3206 
Q 3128 3722 2945 3986 
Q 2763 4250 2406 4250 
z
" transform="scale(0.015625)"/>
     </defs>
     <use xlink:href="#DejaVuSans-Oblique-32"/>
     <use xlink:href="#DejaVuSans-Oblique-20" transform="translate(63.623047 0)"/>
     <use xlink:href="#DejaVuSans-Oblique-73" transform="translate(95.410156 0)"/>
     <use xlink:href="#DejaVuSans-Oblique-68" transform="translate(147.509766 0)"/>
     <use xlink:href="#DejaVuSans-Oblique-61" transform="translate(210.888672 0)"/>
     <use xlink:href="#DejaVuSans-Oblique-72" transform="translate(272.167969 0)"/>
     <use xlink:href="#DejaVuSans-Oblique-65" transform="translate(313.28125 0)"/>
     <use xlink:href="#DejaVuSans-Oblique-64" transform="translate(374.804688 0)"/>
     <use xlink:href="#DejaVuSans-Oblique-20" transform="translate(438.28125 0)"/>
     <use xlink:href="#DejaVuSans-Oblique-2f" transform="translate(470.068359 0)"/>
     <use xlink:href="#DejaVuSans-Oblique-20" transform="translate(503.759766 0)"/>
     <use xlink:href="#DejaVuSans-Oblique-31" transform="translate(535.546875 0)"/>
     <use xlink:href="#DejaVuSans-Oblique-30" transform="translate(599.169922 0)"/>
     <use xlink:href="#DejaVuSans-Oblique-20" transform="translate(662.792969 0)"/>
     <use xlink:href="#DejaVuSans-Oblique-74" transform="translate(694.580078 0)"/>
     <use xlink:href="#DejaVuSans-Oblique-6f" transform="translate(733.789062 0)"/>
     <use xlink:href="#DejaVuSans-Oblique-74" transform="translate(794.970703 0)"/>
     <use xlink:href="#DejaVuSans-Oblique-61" transform="translate(834.179688 0)"/>
     <use xlink:href="#DejaVuSans-Oblique-6c" transform="translate(895.458984 0)"/>
     <use xlink:href="#DejaVuSans-Oblique-20" transform="translate(923.242188 0)"/>
     <use xlink:href="#DejaVuSans-Oblique-28" transform="translate(955.029297 0)"/>
     <use xlink:href="#DejaVuSans-Oblique-32" transform="translate(994.042969 0)"/>
     <use xlink:href="#DejaVuSans-Oblique-30" transform="translate(1057.666016 0)"/>
     <use xlink:href="#DejaVuSans-Oblique-25" transform="translate(1121.289062 0)"/>
     <use xlink:href="#DejaVuSans-Oblique-20" transform="translate(1216.308594 0)"/>
     <use xlink:href="#DejaVuSans-Oblique-6f" transform="translate(1248.095703 0)"/>
     <use xlink:href="#DejaVuSans-Oblique-76" transform="translate(1309.277344 0)"/>
     <use xlink:href="#DejaVuSans-Oblique-65" transform="translate(1368.457031 0)"/>
     <use xlink:href="#DejaVuSans-Oblique-72" transform="translate(1429.980469 0)"/>
     <use xlink:href="#DejaVuSans-Oblique-6c" transform="translate(1471.09375 0)"/>
     <use xlink:href="#DejaVuSans-Oblique-61" transform="translate(1498.876953 0)"/>
     <use xlink:href="#DejaVuSans-Oblique-70" transform="translate(1560.15625 0)"/>
     <use xlink:href="#DejaVuSans-Oblique-29" transform="translate(1623.632812 0)"/>
    </g>
   </g>
   <g id="text_21">
    <!-- Circadian rhythm (DOWN in both) -->
    <g transform="translate(146.899063 510.690858) scale(0.11 -0.11)">
     <defs>
      <path id="DejaVuSans-Bold-43" d="M 4288 256 
Q 3956 84 3597 -3 
Q 3238 -91 2847 -91 
Q 1681 -91 1000 561 
Q 319 1213 319 2328 
Q 319 3447 1000 4098 
Q 1681 4750 2847 4750 
Q 3238 4750 3597 4662 
Q 3956 4575 4288 4403 
L 4288 3438 
Q 3953 3666 3628 3772 
Q 3303 3878 2944 3878 
Q 2300 3878 1931 3465 
Q 1563 3053 1563 2328 
Q 1563 1606 1931 1193 
Q 2300 781 2944 781 
Q 3303 781 3628 887 
Q 3953 994 4288 1222 
L 4288 256 
z
" transform="scale(0.015625)"/>
      <path id="DejaVuSans-Bold-63" d="M 3366 3391 
L 3366 2478 
Q 3138 2634 2908 2709 
Q 2678 2784 2431 2784 
Q 1963 2784 1702 2511 
Q 1441 2238 1441 1747 
Q 1441 1256 1702 982 
Q 1963 709 2431 709 
Q 2694 709 2930 787 
Q 3166 866 3366 1019 
L 3366 103 
Q 3103 6 2833 -42 
Q 2563 -91 2291 -91 
Q 1344 -91 809 395 
Q 275 881 275 1747 
Q 275 2613 809 3098 
Q 1344 3584 2291 3584 
Q 2566 3584 2833 3536 
Q 3100 3488 3366 3391 
z
" transform="scale(0.015625)"/>
      <path id="DejaVuSans-Bold-6d" d="M 3781 2919 
Q 3994 3244 4286 3414 
Q 4578 3584 4928 3584 
Q 5531 3584 5847 3212 
Q 6163 2841 6163 2131 
L 6163 0 
L 5038 0 
L 5038 1825 
Q 5041 1866 5042 1909 
Q 5044 1953 5044 2034 
Q 5044 2406 4934 2573 
Q 4825 2741 4581 2741 
Q 4263 2741 4089 2478 
Q 3916 2216 3909 1719 
L 3909 0 
L 2784 0 
L 2784 1825 
Q 2784 2406 2684 2573 
Q 2584 2741 2328 2741 
Q 2006 2741 1831 2477 
Q 1656 2213 1656 1722 
L 1656 0 
L 531 0 
L 531 3500 
L 1656 3500 
L 1656 2988 
Q 1863 3284 2130 3434 
Q 2397 3584 2719 3584 
Q 3081 3584 3359 3409 
Q 3638 3234 3781 2919 
z
" transform="scale(0.015625)"/>
      <path id="DejaVuSans-Bold-44" d="M 1791 3756 
L 1791 909 
L 2222 909 
Q 2959 909 3348 1275 
Q 3738 1641 3738 2338 
Q 3738 3031 3350 3393 
Q 2963 3756 2222 3756 
L 1791 3756 
z
M 588 4666 
L 1856 4666 
Q 2919 4666 3439 4514 
Q 3959 4363 4331 4000 
Q 4659 3684 4818 3271 
Q 4978 2859 4978 2338 
Q 4978 1809 4818 1395 
Q 4659 981 4331 666 
Q 3956 303 3431 151 
Q 2906 0 1856 0 
L 588 0 
L 588 4666 
z
" transform="scale(0.015625)"/>
      <path id="DejaVuSans-Bold-4f" d="M 2719 3878 
Q 2169 3878 1866 3472 
Q 1563 3066 1563 2328 
Q 1563 1594 1866 1187 
Q 2169 781 2719 781 
Q 3272 781 3575 1187 
Q 3878 1594 3878 2328 
Q 3878 3066 3575 3472 
Q 3272 3878 2719 3878 
z
M 2719 4750 
Q 3844 4750 4481 4106 
Q 5119 3463 5119 2328 
Q 5119 1197 4481 553 
Q 3844 -91 2719 -91 
Q 1597 -91 958 553 
Q 319 1197 319 2328 
Q 319 3463 958 4106 
Q 1597 4750 2719 4750 
z
" transform="scale(0.015625)"/>
      <path id="DejaVuSans-Bold-57" d="M 191 4666 
L 1344 4666 
L 2150 1275 
L 2950 4666 
L 4109 4666 
L 4909 1275 
L 5716 4666 
L 6859 4666 
L 5759 0 
L 4372 0 
L 3525 3547 
L 2688 0 
L 1300 0 
L 191 4666 
z
" transform="scale(0.015625)"/>
      <path id="DejaVuSans-Bold-4e" d="M 588 4666 
L 1931 4666 
L 3628 1466 
L 3628 4666 
L 4769 4666 
L 4769 0 
L 3425 0 
L 1728 3200 
L 1728 0 
L 588 0 
L 588 4666 
z
" transform="scale(0.015625)"/>
     </defs>
     <use xlink:href="#DejaVuSans-Bold-43"/>
     <use xlink:href="#DejaVuSans-Bold-69" transform="translate(73.388672 0)"/>
     <use xlink:href="#DejaVuSans-Bold-72" transform="translate(107.666016 0)"/>
     <use xlink:href="#DejaVuSans-Bold-63" transform="translate(156.982422 0)"/>
     <use xlink:href="#DejaVuSans-Bold-61" transform="translate(216.259766 0)"/>
     <use xlink:href="#DejaVuSans-Bold-64" transform="translate(283.740234 0)"/>
     <use xlink:href="#DejaVuSans-Bold-69" transform="translate(355.322266 0)"/>
     <use xlink:href="#DejaVuSans-Bold-61" transform="translate(389.599609 0)"/>
     <use xlink:href="#DejaVuSans-Bold-6e" transform="translate(457.080078 0)"/>
     <use xlink:href="#DejaVuSans-Bold-20" transform="translate(528.271484 0)"/>
     <use xlink:href="#DejaVuSans-Bold-72" transform="translate(563.085938 0)"/>
     <use xlink:href="#DejaVuSans-Bold-68" transform="translate(612.402344 0)"/>
     <use xlink:href="#DejaVuSans-Bold-79" transform="translate(683.59375 0)"/>
     <use xlink:href="#DejaVuSans-Bold-74" transform="translate(748.779297 0)"/>
     <use xlink:href="#DejaVuSans-Bold-68" transform="translate(796.582031 0)"/>
     <use xlink:href="#DejaVuSans-Bold-6d" transform="translate(867.773438 0)"/>
     <use xlink:href="#DejaVuSans-Bold-20" transform="translate(971.972656 0)"/>
     <use xlink:href="#DejaVuSans-Bold-28" transform="translate(1006.787109 0)"/>
     <use xlink:href="#DejaVuSans-Bold-44" transform="translate(1052.490234 0)"/>
     <use xlink:href="#DejaVuSans-Bold-4f" transform="translate(1135.498047 0)"/>
     <use xlink:href="#DejaVuSans-Bold-57" transform="translate(1220.507812 0)"/>
     <use xlink:href="#DejaVuSans-Bold-4e" transform="translate(1330.810547 0)"/>
     <use xlink:href="#DejaVuSans-Bold-20" transform="translate(1414.501953 0)"/>
     <use xlink:href="#DejaVuSans-Bold-69" transform="translate(1449.316406 0)"/>
     <use xlink:href="#DejaVuSans-Bold-6e" transform="translate(1483.59375 0)"/>
     <use xlink:href="#DejaVuSans-Bold-20" transform="translate(1554.785156 0)"/>
     <use xlink:href="#DejaVuSans-Bold-62" transform="translate(1589.599609 0)"/>
     <use xlink:href="#DejaVuSans-Bold-6f" transform="translate(1661.181641 0)"/>
     <use xlink:href="#DejaVuSans-Bold-74" transform="translate(1729.882812 0)"/>
     <use xlink:href="#DejaVuSans-Bold-68" transform="translate(1777.685547 0)"/>
     <use xlink:href="#DejaVuSans-Bold-29" transform="translate(1848.876953 0)"/>
    </g>
   </g>
  </g>
  <g id="axes_4">
   <g id="patch_11">
    <path d="M 763.907088 794.838656 
C 745.267897 783.173365 729.896875 766.95857 719.243353 747.723161 
C 708.589831 728.487753 702.999515 706.855919 702.999515 684.86732 
C 702.999515 662.878722 708.589831 641.246887 719.243353 622.011479 
C 729.896875 602.776071 745.267897 586.561276 763.907088 574.895985 
C 743.253161 558.585493 718.41613 548.418824 692.253627 545.565706 
C 666.091124 542.712589 639.646544 547.286809 615.962477 558.762078 
C 592.27841 570.237347 572.299407 588.156017 558.324159 610.456449 
C 544.348911 632.756882 536.934768 658.549706 536.934768 684.86732 
C 536.934768 711.184935 544.348911 736.977759 558.324159 759.278191 
C 572.299407 781.578623 592.27841 799.497293 615.962477 810.972563 
C 639.646544 822.447832 666.091124 827.022052 692.253627 824.168934 
C 718.41613 821.315816 743.253161 811.149147 763.907088 794.838656 
" clip-path="url(#p662354966b)" style="fill: #ff0000; opacity: 0.4"/>
   </g>
   <g id="patch_12">
    <path d="M 763.907088 574.895985 
C 780.515956 588.012076 793.939669 604.72197 803.167513 623.767527 
C 812.395358 642.813083 817.189773 663.703995 817.189773 684.86732 
C 817.189773 706.030645 812.395358 726.921558 803.167513 745.967114 
C 793.939669 765.01267 780.515956 781.722565 763.907088 794.838656 
C 783.541616 807.126876 806.113435 813.935371 829.26797 814.553913 
C 852.422504 815.172456 875.325631 809.578763 895.588214 798.356341 
C 915.850798 787.133918 932.742895 770.687044 944.502411 750.731372 
C 956.261926 730.775699 962.465232 708.030115 962.465232 684.86732 
C 962.465232 661.704525 956.261926 638.958941 944.502411 619.003269 
C 932.742895 599.047596 915.850798 582.600723 895.588214 571.3783 
C 875.325631 560.155877 852.422504 554.562185 829.26797 555.180727 
C 806.113435 555.79927 783.541616 562.607764 763.907088 574.895985 
" clip-path="url(#p662354966b)" style="fill: #008000; opacity: 0.4"/>
   </g>
   <g id="patch_13">
    <path d="M 763.907088 794.838656 
C 780.515956 781.722565 793.939669 765.01267 803.167513 745.967114 
C 812.395358 726.921558 817.189773 706.030645 817.189773 684.86732 
C 817.189773 663.703995 812.395358 642.813083 803.167513 623.767527 
C 793.939669 604.72197 780.515956 588.012076 763.907088 574.895985 
C 745.267897 586.561276 729.896875 602.776071 719.243353 622.011479 
C 708.589831 641.246887 702.999515 662.878722 702.999515 684.86732 
C 702.999515 706.855919 708.589831 728.487753 719.243353 747.723161 
C 729.896875 766.95857 745.267897 783.173365 763.907088 794.838656 
" clip-path="url(#p662354966b)" style="fill: #b25900; opacity: 0.4"/>
   </g>
   <g id="text_22">
    <!-- 5 -->
    <g transform="translate(616.785892 687.626695) scale(0.1 -0.1)">
     <defs>
      <path id="DejaVuSans-35" d="M 691 4666 
L 3169 4666 
L 3169 4134 
L 1269 4134 
L 1269 2991 
Q 1406 3038 1543 3061 
Q 1681 3084 1819 3084 
Q 2600 3084 3056 2656 
Q 3513 2228 3513 1497 
Q 3513 744 3044 326 
Q 2575 -91 1722 -91 
Q 1428 -91 1123 -41 
Q 819 9 494 109 
L 494 744 
Q 775 591 1075 516 
Q 1375 441 1709 441 
Q 2250 441 2565 725 
Q 2881 1009 2881 1497 
Q 2881 1984 2565 2268 
Q 2250 2553 1709 2553 
Q 1456 2553 1204 2497 
Q 953 2441 691 2322 
L 691 4666 
z
" transform="scale(0.015625)"/>
     </defs>
     <use xlink:href="#DejaVuSans-35"/>
    </g>
   </g>
   <g id="text_23">
    <!-- 4 -->
    <g transform="translate(886.646252 687.626695) scale(0.1 -0.1)">
     <use xlink:href="#DejaVuSans-34"/>
    </g>
   </g>
   <g id="text_24">
    <!-- 2 -->
    <g transform="translate(756.913394 687.626695) scale(0.1 -0.1)">
     <use xlink:href="#DejaVuSans-32"/>
    </g>
   </g>
   <g id="text_25">
    <!-- Root -->
    <g transform="translate(649.874771 847.605966) scale(0.12 -0.12)">
     <use xlink:href="#DejaVuSans-52"/>
     <use xlink:href="#DejaVuSans-6f" transform="translate(64.982422 0)"/>
     <use xlink:href="#DejaVuSans-6f" transform="translate(126.164062 0)"/>
     <use xlink:href="#DejaVuSans-74" transform="translate(187.345703 0)"/>
    </g>
    <!-- (spaceflight) -->
    <g transform="translate(601.674146 861.043341) scale(0.12 -0.12)">
     <use xlink:href="#DejaVuSans-28"/>
     <use xlink:href="#DejaVuSans-73" transform="translate(39.013672 0)"/>
     <use xlink:href="#DejaVuSans-70" transform="translate(91.113281 0)"/>
     <use xlink:href="#DejaVuSans-61" transform="translate(154.589844 0)"/>
     <use xlink:href="#DejaVuSans-63" transform="translate(215.869141 0)"/>
     <use xlink:href="#DejaVuSans-65" transform="translate(270.849609 0)"/>
     <use xlink:href="#DejaVuSans-66" transform="translate(332.373047 0)"/>
     <use xlink:href="#DejaVuSans-6c" transform="translate(367.578125 0)"/>
     <use xlink:href="#DejaVuSans-69" transform="translate(395.361328 0)"/>
     <use xlink:href="#DejaVuSans-67" transform="translate(423.144531 0)"/>
     <use xlink:href="#DejaVuSans-68" transform="translate(486.621094 0)"/>
     <use xlink:href="#DejaVuSans-74" transform="translate(550 0)"/>
     <use xlink:href="#DejaVuSans-29" transform="translate(589.208984 0)"/>
    </g>
   </g>
   <g id="text_26">
    <!-- Leaf -->
    <g transform="translate(832.732373 837.211322) scale(0.12 -0.12)">
     <use xlink:href="#DejaVuSans-4c"/>
     <use xlink:href="#DejaVuSans-65" transform="translate(53.962891 0)"/>
     <use xlink:href="#DejaVuSans-61" transform="translate(115.486328 0)"/>
     <use xlink:href="#DejaVuSans-66" transform="translate(176.765625 0)"/>
    </g>
    <!-- (blue light) -->
    <g transform="translate(832.732373 850.648697) scale(0.12 -0.12)">
     <use xlink:href="#DejaVuSans-28"/>
     <use xlink:href="#DejaVuSans-62" transform="translate(39.013672 0)"/>
     <use xlink:href="#DejaVuSans-6c" transform="translate(102.490234 0)"/>
     <use xlink:href="#DejaVuSans-75" transform="translate(130.273438 0)"/>
     <use xlink:href="#DejaVuSans-65" transform="translate(193.652344 0)"/>
     <use xlink:href="#DejaVuSans-20" transform="translate(255.175781 0)"/>
     <use xlink:href="#DejaVuSans-6c" transform="translate(286.962891 0)"/>
     <use xlink:href="#DejaVuSans-69" transform="translate(314.746094 0)"/>
     <use xlink:href="#DejaVuSans-67" transform="translate(342.529297 0)"/>
     <use xlink:href="#DejaVuSans-68" transform="translate(406.005859 0)"/>
     <use xlink:href="#DejaVuSans-74" transform="translate(469.384766 0)"/>
     <use xlink:href="#DejaVuSans-29" transform="translate(508.59375 0)"/>
    </g>
   </g>
   <g id="text_27">
    <!-- 2 shared / 11 total (18% overlap) -->
    <g transform="translate(674.881172 873.255818) scale(0.09 -0.09)">
     <use xlink:href="#DejaVuSans-Oblique-32"/>
     <use xlink:href="#DejaVuSans-Oblique-20" transform="translate(63.623047 0)"/>
     <use xlink:href="#DejaVuSans-Oblique-73" transform="translate(95.410156 0)"/>
     <use xlink:href="#DejaVuSans-Oblique-68" transform="translate(147.509766 0)"/>
     <use xlink:href="#DejaVuSans-Oblique-61" transform="translate(210.888672 0)"/>
     <use xlink:href="#DejaVuSans-Oblique-72" transform="translate(272.167969 0)"/>
     <use xlink:href="#DejaVuSans-Oblique-65" transform="translate(313.28125 0)"/>
     <use xlink:href="#DejaVuSans-Oblique-64" transform="translate(374.804688 0)"/>
     <use xlink:href="#DejaVuSans-Oblique-20" transform="translate(438.28125 0)"/>
     <use xlink:href="#DejaVuSans-Oblique-2f" transform="translate(470.068359 0)"/>
     <use xlink:href="#DejaVuSans-Oblique-20" transform="translate(503.759766 0)"/>
     <use xlink:href="#DejaVuSans-Oblique-31" transform="translate(535.546875 0)"/>
     <use xlink:href="#DejaVuSans-Oblique-31" transform="translate(599.169922 0)"/>
     <use xlink:href="#DejaVuSans-Oblique-20" transform="translate(662.792969 0)"/>
     <use xlink:href="#DejaVuSans-Oblique-74" transform="translate(694.580078 0)"/>
     <use xlink:href="#DejaVuSans-Oblique-6f" transform="translate(733.789062 0)"/>
     <use xlink:href="#DejaVuSans-Oblique-74" transform="translate(794.970703 0)"/>
     <use xlink:href="#DejaVuSans-Oblique-61" transform="translate(834.179688 0)"/>
     <use xlink:href="#DejaVuSans-Oblique-6c" transform="translate(895.458984 0)"/>
     <use xlink:href="#DejaVuSans-Oblique-20" transform="translate(923.242188 0)"/>
     <use xlink:href="#DejaVuSans-Oblique-28" transform="translate(955.029297 0)"/>
     <use xlink:href="#DejaVuSans-Oblique-31" transform="translate(994.042969 0)"/>
     <use xlink:href="#DejaVuSans-Oblique-38" transform="translate(1057.666016 0)"/>
     <use xlink:href="#DejaVuSans-Oblique-25" transform="translate(1121.289062 0)"/>
     <use xlink:href="#DejaVuSans-Oblique-20" transform="translate(1216.308594 0)"/>
     <use xlink:href="#DejaVuSans-Oblique-6f" transform="translate(1248.095703 0)"/>
     <use xlink:href="#DejaVuSans-Oblique-76" transform="translate(1309.277344 0)"/>
     <use xlink:href="#DejaVuSans-Oblique-65" transform="translate(1368.457031 0)"/>
     <use xlink:href="#DejaVuSans-Oblique-72" transform="translate(1429.980469 0)"/>
     <use xlink:href="#DejaVuSans-Oblique-6c" transform="translate(1471.09375 0)"/>
     <use xlink:href="#DejaVuSans-Oblique-61" transform="translate(1498.876953 0)"/>
     <use xlink:href="#DejaVuSans-Oblique-70" transform="translate(1560.15625 0)"/>
     <use xlink:href="#DejaVuSans-Oblique-29" transform="translate(1623.632812 0)"/>
    </g>
   </g>
   <g id="text_28">
    <!-- Calvin cycle (DOWN in both) -->
    <g transform="translate(662.300703 507.60505) scale(0.11 -0.11)">
     <use xlink:href="#DejaVuSans-Bold-43"/>
     <use xlink:href="#DejaVuSans-Bold-61" transform="translate(73.388672 0)"/>
     <use xlink:href="#DejaVuSans-Bold-6c" transform="translate(140.869141 0)"/>
     <use xlink:href="#DejaVuSans-Bold-76" transform="translate(175.146484 0)"/>
     <use xlink:href="#DejaVuSans-Bold-69" transform="translate(240.332031 0)"/>
     <use xlink:href="#DejaVuSans-Bold-6e" transform="translate(274.609375 0)"/>
     <use xlink:href="#DejaVuSans-Bold-20" transform="translate(345.800781 0)"/>
     <use xlink:href="#DejaVuSans-Bold-63" transform="translate(380.615234 0)"/>
     <use xlink:href="#DejaVuSans-Bold-79" transform="translate(439.892578 0)"/>
     <use xlink:href="#DejaVuSans-Bold-63" transform="translate(505.078125 0)"/>
     <use xlink:href="#DejaVuSans-Bold-6c" transform="translate(564.355469 0)"/>
     <use xlink:href="#DejaVuSans-Bold-65" transform="translate(598.632812 0)"/>
     <use xlink:href="#DejaVuSans-Bold-20" transform="translate(666.455078 0)"/>
     <use xlink:href="#DejaVuSans-Bold-28" transform="translate(701.269531 0)"/>
     <use xlink:href="#DejaVuSans-Bold-44" transform="translate(746.972656 0)"/>
     <use xlink:href="#DejaVuSans-Bold-4f" transform="translate(829.980469 0)"/>
     <use xlink:href="#DejaVuSans-Bold-57" transform="translate(914.990234 0)"/>
     <use xlink:href="#DejaVuSans-Bold-4e" transform="translate(1025.292969 0)"/>
     <use xlink:href="#DejaVuSans-Bold-20" transform="translate(1108.984375 0)"/>
     <use xlink:href="#DejaVuSans-Bold-69" transform="translate(1143.798828 0)"/>
     <use xlink:href="#DejaVuSans-Bold-6e" transform="translate(1178.076172 0)"/>
     <use xlink:href="#DejaVuSans-Bold-20" transform="translate(1249.267578 0)"/>
     <use xlink:href="#DejaVuSans-Bold-62" transform="translate(1284.082031 0)"/>
     <use xlink:href="#DejaVuSans-Bold-6f" transform="translate(1355.664062 0)"/>
     <use xlink:href="#DejaVuSans-Bold-74" transform="translate(1424.365234 0)"/>
     <use xlink:href="#DejaVuSans-Bold-68" transform="translate(1472.167969 0)"/>
     <use xlink:href="#DejaVuSans-Bold-29" transform="translate(1543.359375 0)"/>
    </g>
   </g>
  </g>
  <g id="text_29">
   <!-- Gene Overlap in Shared KEGG Pathways -->
   <g transform="translate(342.403437 17.837812) scale(0.14 -0.14)">
    <defs>
     <path id="DejaVuSans-Bold-47" d="M 4781 347 
Q 4331 128 3847 18 
Q 3363 -91 2847 -91 
Q 1681 -91 1000 561 
Q 319 1213 319 2328 
Q 319 3456 1012 4103 
Q 1706 4750 2913 4750 
Q 3378 4750 3804 4662 
Q 4231 4575 4609 4403 
L 4609 3438 
Q 4219 3659 3833 3768 
Q 3447 3878 3059 3878 
Q 2341 3878 1952 3476 
Q 1563 3075 1563 2328 
Q 1563 1588 1938 1184 
Q 2313 781 3003 781 
Q 3191 781 3352 804 
Q 3513 828 3641 878 
L 3641 1784 
L 2906 1784 
L 2906 2591 
L 4781 2591 
L 4781 347 
z
" transform="scale(0.015625)"/>
     <path id="DejaVuSans-Bold-53" d="M 3834 4519 
L 3834 3531 
Q 3450 3703 3084 3790 
Q 2719 3878 2394 3878 
Q 1963 3878 1756 3759 
Q 1550 3641 1550 3391 
Q 1550 3203 1689 3098 
Q 1828 2994 2194 2919 
L 2706 2816 
Q 3484 2659 3812 2340 
Q 4141 2022 4141 1434 
Q 4141 663 3683 286 
Q 3225 -91 2284 -91 
Q 1841 -91 1394 -6 
Q 947 78 500 244 
L 500 1259 
Q 947 1022 1364 901 
Q 1781 781 2169 781 
Q 2563 781 2772 912 
Q 2981 1044 2981 1288 
Q 2981 1506 2839 1625 
Q 2697 1744 2272 1838 
L 1806 1941 
Q 1106 2091 782 2419 
Q 459 2747 459 3303 
Q 459 4000 909 4375 
Q 1359 4750 2203 4750 
Q 2588 4750 2994 4692 
Q 3400 4634 3834 4519 
z
" transform="scale(0.015625)"/>
     <path id="DejaVuSans-Bold-4b" d="M 588 4666 
L 1791 4666 
L 1791 2963 
L 3525 4666 
L 4922 4666 
L 2675 2456 
L 5153 0 
L 3647 0 
L 1791 1838 
L 1791 0 
L 588 0 
L 588 4666 
z
" transform="scale(0.015625)"/>
     <path id="DejaVuSans-Bold-45" d="M 588 4666 
L 3834 4666 
L 3834 3756 
L 1791 3756 
L 1791 2888 
L 3713 2888 
L 3713 1978 
L 1791 1978 
L 1791 909 
L 3903 909 
L 3903 0 
L 588 0 
L 588 4666 
z
" transform="scale(0.015625)"/>
     <path id="DejaVuSans-Bold-77" d="M 225 3500 
L 1313 3500 
L 1900 1088 
L 2491 3500 
L 3425 3500 
L 4013 1113 
L 4603 3500 
L 5691 3500 
L 4769 0 
L 3547 0 
L 2956 2406 
L 2369 0 
L 1147 0 
L 225 3500 
z
" transform="scale(0.015625)"/>
    </defs>
    <use xlink:href="#DejaVuSans-Bold-47"/>
    <use xlink:href="#DejaVuSans-Bold-65" transform="translate(82.080078 0)"/>
    <use xlink:href="#DejaVuSans-Bold-6e" transform="translate(149.902344 0)"/>
    <use xlink:href="#DejaVuSans-Bold-65" transform="translate(221.09375 0)"/>
    <use xlink:href="#DejaVuSans-Bold-20" transform="translate(288.916016 0)"/>
    <use xlink:href="#DejaVuSans-Bold-4f" transform="translate(323.730469 0)"/>
    <use xlink:href="#DejaVuSans-Bold-76" transform="translate(408.740234 0)"/>
    <use xlink:href="#DejaVuSans-Bold-65" transform="translate(473.925781 0)"/>
    <use xlink:href="#DejaVuSans-Bold-72" transform="translate(541.748047 0)"/>
    <use xlink:href="#DejaVuSans-Bold-6c" transform="translate(591.064453 0)"/>
    <use xlink:href="#DejaVuSans-Bold-61" transform="translate(625.341797 0)"/>
    <use xlink:href="#DejaVuSans-Bold-70" transform="translate(692.822266 0)"/>
    <use xlink:href="#DejaVuSans-Bold-20" transform="translate(764.404297 0)"/>
    <use xlink:href="#DejaVuSans-Bold-69" transform="translate(799.21875 0)"/>
    <use xlink:href="#DejaVuSans-Bold-6e" transform="translate(833.496094 0)"/>
    <use xlink:href="#DejaVuSans-Bold-20" transform="translate(904.6875 0)"/>
    <use xlink:href="#DejaVuSans-Bold-53" transform="translate(939.501953 0)"/>
    <use xlink:href="#DejaVuSans-Bold-68" transform="translate(1011.523438 0)"/>
    <use xlink:href="#DejaVuSans-Bold-61" transform="translate(1082.714844 0)"/>
    <use xlink:href="#DejaVuSans-Bold-72" transform="translate(1150.195312 0)"/>
    <use xlink:href="#DejaVuSans-Bold-65" transform="translate(1199.511719 0)"/>
    <use xlink:href="#DejaVuSans-Bold-64" transform="translate(1267.333984 0)"/>
    <use xlink:href="#DejaVuSans-Bold-20" transform="translate(1338.916016 0)"/>
    <use xlink:href="#DejaVuSans-Bold-4b" transform="translate(1373.730469 0)"/>
    <use xlink:href="#DejaVuSans-Bold-45" transform="translate(1451.220703 0)"/>
    <use xlink:href="#DejaVuSans-Bold-47" transform="translate(1519.53125 0)"/>
    <use xlink:href="#DejaVuSans-Bold-47" transform="translate(1601.611328 0)"/>
    <use xlink:href="#DejaVuSans-Bold-20" transform="translate(1683.691406 0)"/>
    <use xlink:href="#DejaVuSans-Bold-50" transform="translate(1718.505859 0)"/>
    <use xlink:href="#DejaVuSans-Bold-61" transform="translate(1789.171875 0)"/>
    <use xlink:href="#DejaVuSans-Bold-74" transform="translate(1856.652344 0)"/>
    <use xlink:href="#DejaVuSans-Bold-68" transform="translate(1904.455078 0)"/>
    <use xlink:href="#DejaVuSans-Bold-77" transform="translate(1975.646484 0)"/>
    <use xlink:href="#DejaVuSans-Bold-61" transform="translate(2068.029297 0)"/>
    <use xlink:href="#DejaVuSans-Bold-79" transform="translate(2132.384766 0)"/>
    <use xlink:href="#DejaVuSans-Bold-73" transform="translate(2197.570312 0)"/>
   </g>
   <!-- Root Spaceflight vs Leaf Light Quality -->
   <g transform="translate(350.732344 33.624125) scale(0.14 -0.14)">
    <defs>
     <path id="DejaVuSans-Bold-52" d="M 2297 2597 
Q 2675 2597 2839 2737 
Q 3003 2878 3003 3200 
Q 3003 3519 2839 3656 
Q 2675 3794 2297 3794 
L 1791 3794 
L 1791 2597 
L 2297 2597 
z
M 1791 1766 
L 1791 0 
L 588 0 
L 588 4666 
L 2425 4666 
Q 3347 4666 3776 4356 
Q 4206 4047 4206 3378 
Q 4206 2916 3982 2619 
Q 3759 2322 3309 2181 
Q 3556 2125 3751 1926 
Q 3947 1728 4147 1325 
L 4800 0 
L 3519 0 
L 2950 1159 
Q 2778 1509 2601 1637 
Q 2425 1766 2131 1766 
L 1791 1766 
z
" transform="scale(0.015625)"/>
     <path id="DejaVuSans-Bold-66" d="M 2841 4863 
L 2841 4128 
L 2222 4128 
Q 1984 4128 1890 4042 
Q 1797 3956 1797 3744 
L 1797 3500 
L 2753 3500 
L 2753 2700 
L 1797 2700 
L 1797 0 
L 678 0 
L 678 2700 
L 122 2700 
L 122 3500 
L 678 3500 
L 678 3744 
Q 678 4316 997 4589 
Q 1316 4863 1984 4863 
L 2841 4863 
z
" transform="scale(0.015625)"/>
     <path id="DejaVuSans-Bold-67" d="M 2919 594 
Q 2688 288 2409 144 
Q 2131 0 1766 0 
Q 1125 0 706 504 
Q 288 1009 288 1791 
Q 288 2575 706 3076 
Q 1125 3578 1766 3578 
Q 2131 3578 2409 3434 
Q 2688 3291 2919 2981 
L 2919 3500 
L 4044 3500 
L 4044 353 
Q 4044 -491 3511 -936 
Q 2978 -1381 1966 -1381 
Q 1638 -1381 1331 -1331 
Q 1025 -1281 716 -1178 
L 716 -306 
Q 1009 -475 1290 -558 
Q 1572 -641 1856 -641 
Q 2406 -641 2662 -400 
Q 2919 -159 2919 353 
L 2919 594 
z
M 2181 2772 
Q 1834 2772 1640 2515 
Q 1447 2259 1447 1791 
Q 1447 1309 1634 1061 
Q 1822 813 2181 813 
Q 2531 813 2725 1069 
Q 2919 1325 2919 1791 
Q 2919 2259 2725 2515 
Q 2531 2772 2181 2772 
z
" transform="scale(0.015625)"/>
     <path id="DejaVuSans-Bold-4c" d="M 588 4666 
L 1791 4666 
L 1791 909 
L 3903 909 
L 3903 0 
L 588 0 
L 588 4666 
z
" transform="scale(0.015625)"/>
     <path id="DejaVuSans-Bold-51" d="M 2847 -84 
L 2753 -84 
Q 1600 -84 959 553 
Q 319 1191 319 2328 
Q 319 3463 958 4106 
Q 1597 4750 2719 4750 
Q 3853 4750 4486 4112 
Q 5119 3475 5119 2328 
Q 5119 1541 4783 972 
Q 4447 403 3816 116 
L 4756 -934 
L 3609 -934 
L 2847 -84 
z
M 2719 3878 
Q 2169 3878 1866 3472 
Q 1563 3066 1563 2328 
Q 1563 1578 1859 1179 
Q 2156 781 2719 781 
Q 3272 781 3575 1187 
Q 3878 1594 3878 2328 
Q 3878 3066 3575 3472 
Q 3272 3878 2719 3878 
z
" transform="scale(0.015625)"/>
     <path id="DejaVuSans-Bold-75" d="M 500 1363 
L 500 3500 
L 1625 3500 
L 1625 3150 
Q 1625 2866 1622 2436 
Q 1619 2006 1619 1863 
Q 1619 1441 1641 1255 
Q 1663 1069 1716 984 
Q 1784 875 1895 815 
Q 2006 756 2150 756 
Q 2500 756 2700 1025 
Q 2900 1294 2900 1772 
L 2900 3500 
L 4019 3500 
L 4019 0 
L 2900 0 
L 2900 506 
Q 2647 200 2364 54 
Q 2081 -91 1741 -91 
Q 1134 -91 817 281 
Q 500 653 500 1363 
z
" transform="scale(0.015625)"/>
    </defs>
    <use xlink:href="#DejaVuSans-Bold-52"/>
    <use xlink:href="#DejaVuSans-Bold-6f" transform="translate(77.001953 0)"/>
    <use xlink:href="#DejaVuSans-Bold-6f" transform="translate(145.703125 0)"/>
    <use xlink:href="#DejaVuSans-Bold-74" transform="translate(214.404297 0)"/>
    <use xlink:href="#DejaVuSans-Bold-20" transform="translate(262.207031 0)"/>
    <use xlink:href="#DejaVuSans-Bold-53" transform="translate(297.021484 0)"/>
    <use xlink:href="#DejaVuSans-Bold-70" transform="translate(369.042969 0)"/>
    <use xlink:href="#DejaVuSans-Bold-61" transform="translate(440.625 0)"/>
    <use xlink:href="#DejaVuSans-Bold-63" transform="translate(508.105469 0)"/>
    <use xlink:href="#DejaVuSans-Bold-65" transform="translate(567.382812 0)"/>
    <use xlink:href="#DejaVuSans-Bold-66" transform="translate(635.205078 0)"/>
    <use xlink:href="#DejaVuSans-Bold-6c" transform="translate(678.710938 0)"/>
    <use xlink:href="#DejaVuSans-Bold-69" transform="translate(712.988281 0)"/>
    <use xlink:href="#DejaVuSans-Bold-67" transform="translate(747.265625 0)"/>
    <use xlink:href="#DejaVuSans-Bold-68" transform="translate(818.847656 0)"/>
    <use xlink:href="#DejaVuSans-Bold-74" transform="translate(890.039062 0)"/>
    <use xlink:href="#DejaVuSans-Bold-20" transform="translate(937.841797 0)"/>
    <use xlink:href="#DejaVuSans-Bold-76" transform="translate(972.65625 0)"/>
    <use xlink:href="#DejaVuSans-Bold-73" transform="translate(1037.841797 0)"/>
    <use xlink:href="#DejaVuSans-Bold-20" transform="translate(1097.363281 0)"/>
    <use xlink:href="#DejaVuSans-Bold-4c" transform="translate(1132.177734 0)"/>
    <use xlink:href="#DejaVuSans-Bold-65" transform="translate(1195.898438 0)"/>
    <use xlink:href="#DejaVuSans-Bold-61" transform="translate(1263.720703 0)"/>
    <use xlink:href="#DejaVuSans-Bold-66" transform="translate(1331.201172 0)"/>
    <use xlink:href="#DejaVuSans-Bold-20" transform="translate(1374.707031 0)"/>
    <use xlink:href="#DejaVuSans-Bold-4c" transform="translate(1409.521484 0)"/>
    <use xlink:href="#DejaVuSans-Bold-69" transform="translate(1473.242188 0)"/>
    <use xlink:href="#DejaVuSans-Bold-67" transform="translate(1507.519531 0)"/>
    <use xlink:href="#DejaVuSans-Bold-68" transform="translate(1579.101562 0)"/>
    <use xlink:href="#DejaVuSans-Bold-74" transform="translate(1650.292969 0)"/>
    <use xlink:href="#DejaVuSans-Bold-20" transform="translate(1698.095703 0)"/>
    <use xlink:href="#DejaVuSans-Bold-51" transform="translate(1732.910156 0)"/>
    <use xlink:href="#DejaVuSans-Bold-75" transform="translate(1817.919922 0)"/>
    <use xlink:href="#DejaVuSans-Bold-61" transform="translate(1889.111328 0)"/>
    <use xlink:href="#DejaVuSans-Bold-6c" transform="translate(1956.591797 0)"/>
    <use xlink:href="#DejaVuSans-Bold-69" transform="translate(1990.869141 0)"/>
    <use xlink:href="#DejaVuSans-Bold-74" transform="translate(2025.146484 0)"/>
    <use xlink:href="#DejaVuSans-Bold-79" transform="translate(2072.949219 0)"/>
   </g>
  </g>
 </g>
 <defs>
  <clipPath id="p1412ce2ef8">
   <rect x="26.211558" y="90.24" width="449.776885" height="385.625359"/>
  </clipPath>
  <clipPath id="pe1f9ed3034">
   <rect x="539.889464" y="90.24" width="419.621072" height="385.625359"/>
  </clipPath>
  <clipPath id="pc507163b41">
   <rect x="7.2" y="516.690858" width="487.8" height="336.352924"/>
  </clipPath>
  <clipPath id="p662354966b">
   <rect x="505.8" y="513.60505" width="487.8" height="342.524542"/>
  </clipPath>
 </defs>
</svg>
