<?xml version="1.0" encoding="utf-8" standalone="no"?>
<!DOCTYPE svg PUBLIC "-//W3C//DTD SVG 1.1//EN"
  "http://www.w3.org/Graphics/SVG/1.1/DTD/svg11.dtd">
<svg xmlns:xlink="http://www.w3.org/1999/xlink" width="498.299358pt" height="258.462375pt" viewBox="0 0 498.299358 258.462375" xmlns="http://www.w3.org/2000/svg" version="1.1">
 <metadata>
  <rdf:RDF xmlns:dc="http://purl.org/dc/elements/1.1/" xmlns:cc="http://creativecommons.org/ns#" xmlns:rdf="http://www.w3.org/1999/02/22-rdf-syntax-ns#">
   <cc:Work>
    <dc:type rdf:resource="http://purl.org/dc/dcmitype/StillImage"/>
    <dc:date>2022-01-01T05:00:00+00:00</dc:date>
    <dc:format>image/svg+xml</dc:format>
    <dc:creator>
     <cc:Agent>
      <dc:title>Matplotlib v3.10.9, https://matplotlib.org/</dc:title>
     </cc:Agent>
    </dc:creator>
   </cc:Work>
  </rdf:RDF>
 </metadata>
 <defs>
  <style type="text/css">*{stroke-linejoin: round; stroke-linecap: butt}</style>
 </defs>
 <g id="figure_1">
  <g id="patch_1">
   <path d="M 0 258.462375 
L 498.299358 258.462375 
L 498.299358 0 
L 0 0 
z
" style="fill: #ffffff"/>
  </g>
  <g id="axes_1">
   <g id="patch_2">
    <path d="M 47.851484 230.39875 
L 234.938099 230.39875 
L 234.938099 11.51875 
L 47.851484 11.51875 
z
" style="fill: #ffffff"/>
   </g>
   <g id="matplotlib.axis_1">
    <g id="xtick_1">
     <g id="line2d_1">
      <path d="M 47.851484 230.39875 
L 47.851484 11.51875 
" clip-path="url(#p33f179a45d)" style="fill: none; stroke: #cccccc; stroke-width: 0.8; stroke-linecap: round"/>
     </g>
     <g id="text_1">
      <!-- 0 -->
      <g style="fill: #262626" transform="translate(45.051984 245.385375) scale(0.088 -0.088)">
       <defs>
        <path id="DejaVuSans-30" d="M 2034 4250 
Q 1547 4250 1301 3770 
Q 1056 3291 1056 2328 
Q 1056 1369 1301 889 
Q 1547 409 2034 409 
Q 2525 409 2770 889 
Q 3016 1369 3016 2328 
Q 3016 3291 2770 3770 
Q 2525 4250 2034 4250 
z
M 2034 4750 
Q 2819 4750 3233 4129 
Q 3647 3509 3647 2328 
Q 3647 1150 3233 529 
Q 2819 -91 2034 -91 
Q 1250 -91 836 529 
Q 422 1150 422 2328 
Q 422 3509 836 4129 
Q 1250 4750 2034 4750 
z
" transform="scale(0.015625)"/>
       </defs>
       <use xlink:href="#DejaVuSans-30"/>
      </g>
     </g>
    </g>
    <g id="xtick_2">
     <g id="line2d_2">
      <path d="M 92.201137 230.39875 
L 92.201137 11.51875 
" clip-path="url(#p33f179a45d)" style="fill: none; stroke: #cccccc; stroke-width: 0.8; stroke-linecap: round"/>
     </g>
     <g id="text_2">
      <!-- 5 -->
      <g style="fill: #262626" transform="translate(89.401637 245.385375) scale(0.088 -0.088)">
       <defs>
        <path id="DejaVuSans-35" d="M 691 4666 
L 3169 4666 
L 3169 4134 
L 1269 4134 
L 1269 2991 
Q 1406 3038 1543 3061 
Q 1681 3084 1819 3084 
Q 2600 3084 3056 2656 
Q 3513 2228 3513 1497 
Q 3513 744 3044 326 
Q 2575 -91 1722 -91 
Q 1428 -91 1123 -41 
Q 819 9 494 109 
L 494 744 
Q 775 591 1075 516 
Q 1375 441 1709 441 
Q 2250 441 2565 725 
Q 2881 1009 2881 1497 
Q 2881 1984 2565 2268 
Q 2250 2553 1709 2553 
Q 1456 2553 1204 2497 
Q 953 2441 691 2322 
L 691 4666 
z
" transform="scale(0.015625)"/>
       </defs>
       <use xlink:href="#DejaVuSans-35"/>
      </g>
     </g>
    </g>
    <g id="xtick_3">
     <g id="line2d_3">
      <path d="M 136.550791 230.39875 
L 136.550791 11.51875 
" clip-path="url(#p33f179a45d)" style="fill: none; stroke: #cccccc; stroke-width: 0.8; stroke-linecap: round"/>
     </g>
     <g id="text_3">
      <!-- 10 -->
      <g style="fill: #262626" transform="translate(130.951791 245.385375) scale(0.088 -0.088)">
       <defs>
        <path id="DejaVuSans-31" d="M 794 531 
L 1825 531 
L 1825 4091 
L 703 3866 
L 703 4441 
L 1819 4666 
L 2450 4666 
L 2450 531 
L 3481 531 
L 3481 0 
L 794 0 
L 794 531 
z
" transform="scale(0.015625)"/>
       </defs>
       <use xlink:href="#DejaVuSans-31"/>
       <use xlink:href="#DejaVuSans-30" transform="translate(63.623047 0)"/>
      </g>
     </g>
    </g>
    <g id="xtick_4">
     <g id="line2d_4">
      <path d="M 180.900444 230.39875 
L 180.900444 11.51875 
" clip-path="url(#p33f179a45d)" style="fill: none; stroke: #cccccc; stroke-width: 0.8; stroke-linecap: round"/>
     </g>
     <g id="text_4">
      <!-- 15 -->
      <g style="fill: #262626" transform="translate(175.301444 245.385375) scale(0.088 -0.088)">
       <use xlink:href="#DejaVuSans-31"/>
       <use xlink:href="#DejaVuSans-35" transform="translate(63.623047 0)"/>
      </g>
     </g>
    </g>
    <g id="xtick_5">
     <g id="line2d_5">
      <path d="M 225.250097 230.39875 
L 225.250097 11.51875 
" clip-path="url(#p33f179a45d)" style="fill: none; stroke: #cccccc; stroke-width: 0.8; stroke-linecap: round"/>
     </g>
     <g id="text_5">
      <!-- 20 -->
      <g style="fill: #262626" transform="translate(219.651097 245.385375) scale(0.088 -0.088)">
       <defs>
        <path id="DejaVuSans-32" d="M 1228 531 
L 3431 531 
L 3431 0 
L 469 0 
L 469 531 
Q 828 903 1448 1529 
Q 2069 2156 2228 2338 
Q 2531 2678 2651 2914 
Q 2772 3150 2772 3378 
Q 2772 3750 2511 3984 
Q 2250 4219 1831 4219 
Q 1534 4219 1204 4116 
Q 875 4013 500 3803 
L 500 4441 
Q 881 4594 1212 4672 
Q 1544 4750 1819 4750 
Q 2544 4750 2975 4387 
Q 3406 4025 3406 3419 
Q 3406 3131 3298 2873 
Q 3191 2616 2906 2266 
Q 2828 2175 2409 1742 
Q 1991 1309 1228 531 
z
" transform="scale(0.015625)"/>
       </defs>
       <use xlink:href="#DejaVuSans-32"/>
       <use xlink:href="#DejaVuSans-30" transform="translate(63.623047 0)"/>
      </g>
     </g>
    </g>
    <g id="text_6">
     <!-- Fold Enrichment -->
     <g style="fill: #262626" transform="translate(116.991198 255.774562) scale(0.06 -0.06)">
      <defs>
       <path id="DejaVuSans-46" d="M 628 4666 
L 3309 4666 
L 3309 4134 
L 1259 4134 
L 1259 2759 
L 3109 2759 
L 3109 2228 
L 1259 2228 
L 1259 0 
L 628 0 
L 628 4666 
z
" transform="scale(0.015625)"/>
       <path id="DejaVuSans-6f" d="M 1959 3097 
Q 1497 3097 1228 2736 
Q 959 2375 959 1747 
Q 959 1119 1226 758 
Q 1494 397 1959 397 
Q 2419 397 2687 759 
Q 2956 1122 2956 1747 
Q 2956 2369 2687 2733 
Q 2419 3097 1959 3097 
z
M 1959 3584 
Q 2709 3584 3137 3096 
Q 3566 2609 3566 1747 
Q 3566 888 3137 398 
Q 2709 -91 1959 -91 
Q 1206 -91 779 398 
Q 353 888 353 1747 
Q 353 2609 779 3096 
Q 1206 3584 1959 3584 
z
" transform="scale(0.015625)"/>
       <path id="DejaVuSans-6c" d="M 603 4863 
L 1178 4863 
L 1178 0 
L 603 0 
L 603 4863 
z
" transform="scale(0.015625)"/>
       <path id="DejaVuSans-64" d="M 2906 2969 
L 2906 4863 
L 3481 4863 
L 3481 0 
L 2906 0 
L 2906 525 
Q 2725 213 2448 61 
Q 2172 -91 1784 -91 
Q 1150 -91 751 415 
Q 353 922 353 1747 
Q 353 2572 751 3078 
Q 1150 3584 1784 3584 
Q 2172 3584 2448 3432 
Q 2725 3281 2906 2969 
z
M 947 1747 
Q 947 1113 1208 752 
Q 1469 391 1925 391 
Q 2381 391 2643 752 
Q 2906 1113 2906 1747 
Q 2906 2381 2643 2742 
Q 2381 3103 1925 3103 
Q 1469 3103 1208 2742 
Q 947 2381 947 1747 
z
" transform="scale(0.015625)"/>
       <path id="DejaVuSans-20" transform="scale(0.015625)"/>
       <path id="DejaVuSans-45" d="M 628 4666 
L 3578 4666 
L 3578 4134 
L 1259 4134 
L 1259 2753 
L 3481 2753 
L 3481 2222 
L 1259 2222 
L 1259 531 
L 3634 531 
L 3634 0 
L 628 0 
L 628 4666 
z
" transform="scale(0.015625)"/>
       <path id="DejaVuSans-6e" d="M 3513 2113 
L 3513 0 
L 2938 0 
L 2938 2094 
Q 2938 2591 2744 2837 
Q 2550 3084 2163 3084 
Q 1697 3084 1428 2787 
Q 1159 2491 1159 1978 
L 1159 0 
L 581 0 
L 581 3500 
L 1159 3500 
L 1159 2956 
Q 1366 3272 1645 3428 
Q 1925 3584 2291 3584 
Q 2894 3584 3203 3211 
Q 3513 2838 3513 2113 
z
" transform="scale(0.015625)"/>
       <path id="DejaVuSans-72" d="M 2631 2963 
Q 2534 3019 2420 3045 
Q 2306 3072 2169 3072 
Q 1681 3072 1420 2755 
Q 1159 2438 1159 1844 
L 1159 0 
L 581 0 
L 581 3500 
L 1159 3500 
L 1159 2956 
Q 1341 3275 1631 3429 
Q 1922 3584 2338 3584 
Q 2397 3584 2469 3576 
Q 2541 3569 2628 3553 
L 2631 2963 
z
" transform="scale(0.015625)"/>
       <path id="DejaVuSans-69" d="M 603 3500 
L 1178 3500 
L 1178 0 
L 603 0 
L 603 3500 
z
M 603 4863 
L 1178 4863 
L 1178 4134 
L 603 4134 
L 603 4863 
z
" transform="scale(0.015625)"/>
       <path id="DejaVuSans-63" d="M 3122 3366 
L 3122 2828 
Q 2878 2963 2633 3030 
Q 2388 3097 2138 3097 
Q 1578 3097 1268 2742 
Q 959 2388 959 1747 
Q 959 1106 1268 751 
Q 1578 397 2138 397 
Q 2388 397 2633 464 
Q 2878 531 3122 666 
L 3122 134 
Q 2881 22 2623 -34 
Q 2366 -91 2075 -91 
Q 1284 -91 818 406 
Q 353 903 353 1747 
Q 353 2603 823 3093 
Q 1294 3584 2113 3584 
Q 2378 3584 2631 3529 
Q 2884 3475 3122 3366 
z
" transform="scale(0.015625)"/>
       <path id="DejaVuSans-68" d="M 3513 2113 
L 3513 0 
L 2938 0 
L 2938 2094 
Q 2938 2591 2744 2837 
Q 2550 3084 2163 3084 
Q 1697 3084 1428 2787 
Q 1159 2491 1159 1978 
L 1159 0 
L 581 0 
L 581 4863 
L 1159 4863 
L 1159 2956 
Q 1366 3272 1645 3428 
Q 1925 3584 2291 3584 
Q 2894 3584 3203 3211 
Q 3513 2838 3513 2113 
z
" transform="scale(0.015625)"/>
       <path id="DejaVuSans-6d" d="M 3328 2828 
Q 3544 3216 3844 3400 
Q 4144 3584 4550 3584 
Q 5097 3584 5394 3201 
Q 5691 2819 5691 2113 
L 5691 0 
L 5113 0 
L 5113 2094 
Q 5113 2597 4934 2840 
Q 4756 3084 4391 3084 
Q 3944 3084 3684 2787 
Q 3425 2491 3425 1978 
L 3425 0 
L 2847 0 
L 2847 2094 
Q 2847 2600 2669 2842 
Q 2491 3084 2119 3084 
Q 1678 3084 1418 2786 
Q 1159 2488 1159 1978 
L 1159 0 
L 581 0 
L 581 3500 
L 1159 3500 
L 1159 2956 
Q 1356 3278 1631 3431 
Q 1906 3584 2284 3584 
Q 2666 3584 2933 3390 
Q 3200 3197 3328 2828 
z
" transform="scale(0.015625)"/>
       <path id="DejaVuSans-65" d="M 3597 1894 
L 3597 1613 
L 953 1613 
Q 991 1019 1311 708 
Q 1631 397 2203 397 
Q 2534 397 2845 478 
Q 3156 559 3463 722 
L 3463 178 
Q 3153 47 2828 -22 
Q 2503 -91 2169 -91 
Q 1331 -91 842 396 
Q 353 884 353 1716 
Q 353 2575 817 3079 
Q 1281 3584 2069 3584 
Q 2775 3584 3186 3129 
Q 3597 2675 3597 1894 
z
M 3022 2063 
Q 3016 2534 2758 2815 
Q 2500 3097 2075 3097 
Q 1594 3097 1305 2825 
Q 1016 2553 972 2059 
L 3022 2063 
z
" transform="scale(0.015625)"/>
       <path id="DejaVuSans-74" d="M 1172 4494 
L 1172 3500 
L 2356 3500 
L 2356 3053 
L 1172 3053 
L 1172 1153 
Q 1172 725 1289 603 
Q 1406 481 1766 481 
L 2356 481 
L 2356 0 
L 1766 0 
Q 1100 0 847 248 
Q 594 497 594 1153 
L 594 3053 
L 172 3053 
L 172 3500 
L 594 3500 
L 594 4494 
L 1172 4494 
z
" transform="scale(0.015625)"/>
      </defs>
      <use xlink:href="#DejaVuSans-46"/>
      <use xlink:href="#DejaVuSans-6f" transform="translate(53.894531 0)"/>
      <use xlink:href="#DejaVuSans-6c" transform="translate(115.076172 0)"/>
      <use xlink:href="#DejaVuSans-64" transform="translate(142.859375 0)"/>
      <use xlink:href="#DejaVuSans-20" transform="translate(206.335938 0)"/>
      <use xlink:href="#DejaVuSans-45" transform="translate(238.123047 0)"/>
      <use xlink:href="#DejaVuSans-6e" transform="translate(301.306641 0)"/>
      <use xlink:href="#DejaVuSans-72" transform="translate(364.685547 0)"/>
      <use xlink:href="#DejaVuSans-69" transform="translate(405.798828 0)"/>
      <use xlink:href="#DejaVuSans-63" transform="translate(433.582031 0)"/>
      <use xlink:href="#DejaVuSans-68" transform="translate(488.5625 0)"/>
      <use xlink:href="#DejaVuSans-6d" transform="translate(551.941406 0)"/>
      <use xlink:href="#DejaVuSans-65" transform="translate(649.353516 0)"/>
      <use xlink:href="#DejaVuSans-6e" transform="translate(710.876953 0)"/>
      <use xlink:href="#DejaVuSans-74" transform="translate(774.255859 0)"/>
     </g>
    </g>
   </g>
   <g id="matplotlib.axis_2">
    <g id="ytick_1">
     <g id="line2d_6">
      <path d="M 47.851484 209.789919 
L 234.938099 209.789919 
" clip-path="url(#p33f179a45d)" style="fill: none; stroke: #cccccc; stroke-width: 0.8; stroke-linecap: round"/>
     </g>
     <g id="text_7">
      <!-- Leaf light up -->
      <g style="fill: #262626" transform="translate(11.470078 211.499567) scale(0.045 -0.045)">
       <defs>
        <path id="DejaVuSans-4c" d="M 628 4666 
L 1259 4666 
L 1259 531 
L 3531 531 
L 3531 0 
L 628 0 
L 628 4666 
z
" transform="scale(0.015625)"/>
        <path id="DejaVuSans-61" d="M 2194 1759 
Q 1497 1759 1228 1600 
Q 959 1441 959 1056 
Q 959 750 1161 570 
Q 1363 391 1709 391 
Q 2188 391 2477 730 
Q 2766 1069 2766 1631 
L 2766 1759 
L 2194 1759 
z
M 3341 1997 
L 3341 0 
L 2766 0 
L 2766 531 
Q 2569 213 2275 61 
Q 1981 -91 1556 -91 
Q 1019 -91 701 211 
Q 384 513 384 1019 
Q 384 1609 779 1909 
Q 1175 2209 1959 2209 
L 2766 2209 
L 2766 2266 
Q 2766 2663 2505 2880 
Q 2244 3097 1772 3097 
Q 1472 3097 1187 3025 
Q 903 2953 641 2809 
L 641 3341 
Q 956 3463 1253 3523 
Q 1550 3584 1831 3584 
Q 2591 3584 2966 3190 
Q 3341 2797 3341 1997 
z
" transform="scale(0.015625)"/>
        <path id="DejaVuSans-66" d="M 2375 4863 
L 2375 4384 
L 1825 4384 
Q 1516 4384 1395 4259 
Q 1275 4134 1275 3809 
L 1275 3500 
L 2222 3500 
L 2222 3053 
L 1275 3053 
L 1275 0 
L 697 0 
L 697 3053 
L 147 3053 
L 147 3500 
L 697 3500 
L 697 3744 
Q 697 4328 969 4595 
Q 1241 4863 1831 4863 
L 2375 4863 
z
" transform="scale(0.015625)"/>
        <path id="DejaVuSans-67" d="M 2906 1791 
Q 2906 2416 2648 2759 
Q 2391 3103 1925 3103 
Q 1463 3103 1205 2759 
Q 947 2416 947 1791 
Q 947 1169 1205 825 
Q 1463 481 1925 481 
Q 2391 481 2648 825 
Q 2906 1169 2906 1791 
z
M 3481 434 
Q 3481 -459 3084 -895 
Q 2688 -1331 1869 -1331 
Q 1566 -1331 1297 -1286 
Q 1028 -1241 775 -1147 
L 775 -588 
Q 1028 -725 1275 -790 
Q 1522 -856 1778 -856 
Q 2344 -856 2625 -561 
Q 2906 -266 2906 331 
L 2906 616 
Q 2728 306 2450 153 
Q 2172 0 1784 0 
Q 1141 0 747 490 
Q 353 981 353 1791 
Q 353 2603 747 3093 
Q 1141 3584 1784 3584 
Q 2172 3584 2450 3431 
Q 2728 3278 2906 2969 
L 2906 3500 
L 3481 3500 
L 3481 434 
z
" transform="scale(0.015625)"/>
        <path id="DejaVuSans-75" d="M 544 1381 
L 544 3500 
L 1119 3500 
L 1119 1403 
Q 1119 906 1312 657 
Q 1506 409 1894 409 
Q 2359 409 2629 706 
Q 2900 1003 2900 1516 
L 2900 3500 
L 3475 3500 
L 3475 0 
L 2900 0 
L 2900 538 
Q 2691 219 2414 64 
Q 2138 -91 1772 -91 
Q 1169 -91 856 284 
Q 544 659 544 1381 
z
M 1991 3584 
L 1991 3584 
z
" transform="scale(0.015625)"/>
        <path id="DejaVuSans-70" d="M 1159 525 
L 1159 -1331 
L 581 -1331 
L 581 3500 
L 1159 3500 
L 1159 2969 
Q 1341 3281 1617 3432 
Q 1894 3584 2278 3584 
Q 2916 3584 3314 3078 
Q 3713 2572 3713 1747 
Q 3713 922 3314 415 
Q 2916 -91 2278 -91 
Q 1894 -91 1617 61 
Q 1341 213 1159 525 
z
M 3116 1747 
Q 3116 2381 2855 2742 
Q 2594 3103 2138 3103 
Q 1681 3103 1420 2742 
Q 1159 2381 1159 1747 
Q 1159 1113 1420 752 
Q 1681 391 2138 391 
Q 2594 391 2855 752 
Q 3116 1113 3116 1747 
z
" transform="scale(0.015625)"/>
       </defs>
       <use xlink:href="#DejaVuSans-4c"/>
       <use xlink:href="#DejaVuSans-65" transform="translate(53.962891 0)"/>
       <use xlink:href="#DejaVuSans-61" transform="translate(115.486328 0)"/>
       <use xlink:href="#DejaVuSans-66" transform="translate(176.765625 0)"/>
       <use xlink:href="#DejaVuSans-20" transform="translate(211.970703 0)"/>
       <use xlink:href="#DejaVuSans-6c" transform="translate(243.757812 0)"/>
       <use xlink:href="#DejaVuSans-69" transform="translate(271.541016 0)"/>
       <use xlink:href="#DejaVuSans-67" transform="translate(299.324219 0)"/>
       <use xlink:href="#DejaVuSans-68" transform="translate(362.800781 0)"/>
       <use xlink:href="#DejaVuSans-74" transform="translate(426.179688 0)"/>
       <use xlink:href="#DejaVuSans-20" transform="translate(465.388672 0)"/>
       <use xlink:href="#DejaVuSans-75" transform="translate(497.175781 0)"/>
       <use xlink:href="#DejaVuSans-70" transform="translate(560.554688 0)"/>
      </g>
     </g>
    </g>
    <g id="ytick_2">
     <g id="line2d_7">
      <path d="M 47.851484 174.257451 
L 234.938099 174.257451 
" clip-path="url(#p33f179a45d)" style="fill: none; stroke: #cccccc; stroke-width: 0.8; stroke-linecap: round"/>
     </g>
     <g id="text_8">
      <!-- Leaf int pos -->
      <g style="fill: #262626" transform="translate(13.33125 175.9671) scale(0.045 -0.045)">
       <defs>
        <path id="DejaVuSans-73" d="M 2834 3397 
L 2834 2853 
Q 2591 2978 2328 3040 
Q 2066 3103 1784 3103 
Q 1356 3103 1142 2972 
Q 928 2841 928 2578 
Q 928 2378 1081 2264 
Q 1234 2150 1697 2047 
L 1894 2003 
Q 2506 1872 2764 1633 
Q 3022 1394 3022 966 
Q 3022 478 2636 193 
Q 2250 -91 1575 -91 
Q 1294 -91 989 -36 
Q 684 19 347 128 
L 347 722 
Q 666 556 975 473 
Q 1284 391 1588 391 
Q 1994 391 2212 530 
Q 2431 669 2431 922 
Q 2431 1156 2273 1281 
Q 2116 1406 1581 1522 
L 1381 1569 
Q 847 1681 609 1914 
Q 372 2147 372 2553 
Q 372 3047 722 3315 
Q 1072 3584 1716 3584 
Q 2034 3584 2315 3537 
Q 2597 3491 2834 3397 
z
" transform="scale(0.015625)"/>
       </defs>
       <use xlink:href="#DejaVuSans-4c"/>
       <use xlink:href="#DejaVuSans-65" transform="translate(53.962891 0)"/>
       <use xlink:href="#DejaVuSans-61" transform="translate(115.486328 0)"/>
       <use xlink:href="#DejaVuSans-66" transform="translate(176.765625 0)"/>
       <use xlink:href="#DejaVuSans-20" transform="translate(211.970703 0)"/>
       <use xlink:href="#DejaVuSans-69" transform="translate(243.757812 0)"/>
       <use xlink:href="#DejaVuSans-6e" transform="translate(271.541016 0)"/>
       <use xlink:href="#DejaVuSans-74" transform="translate(334.919922 0)"/>
       <use xlink:href="#DejaVuSans-20" transform="translate(374.128906 0)"/>
       <use xlink:href="#DejaVuSans-70" transform="translate(405.916016 0)"/>
       <use xlink:href="#DejaVuSans-6f" transform="translate(469.392578 0)"/>
       <use xlink:href="#DejaVuSans-73" transform="translate(530.574219 0)"/>
      </g>
     </g>
    </g>
    <g id="ytick_3">
     <g id="line2d_8">
      <path d="M 47.851484 138.724984 
L 234.938099 138.724984 
" clip-path="url(#p33f179a45d)" style="fill: none; stroke: #cccccc; stroke-width: 0.8; stroke-linecap: round"/>
     </g>
     <g id="text_9">
      <!-- Leaf int neg -->
      <g style="fill: #262626" transform="translate(12.808125 140.434632) scale(0.045 -0.045)">
       <use xlink:href="#DejaVuSans-4c"/>
       <use xlink:href="#DejaVuSans-65" transform="translate(53.962891 0)"/>
       <use xlink:href="#DejaVuSans-61" transform="translate(115.486328 0)"/>
       <use xlink:href="#DejaVuSans-66" transform="translate(176.765625 0)"/>
       <use xlink:href="#DejaVuSans-20" transform="translate(211.970703 0)"/>
       <use xlink:href="#DejaVuSans-69" transform="translate(243.757812 0)"/>
       <use xlink:href="#DejaVuSans-6e" transform="translate(271.541016 0)"/>
       <use xlink:href="#DejaVuSans-74" transform="translate(334.919922 0)"/>
       <use xlink:href="#DejaVuSans-20" transform="translate(374.128906 0)"/>
       <use xlink:href="#DejaVuSans-6e" transform="translate(405.916016 0)"/>
       <use xlink:href="#DejaVuSans-65" transform="translate(469.294922 0)"/>
       <use xlink:href="#DejaVuSans-67" transform="translate(530.818359 0)"/>
      </g>
     </g>
    </g>
    <g id="ytick_4">
     <g id="line2d_9">
      <path d="M 47.851484 103.192516 
L 234.938099 103.192516 
" clip-path="url(#p33f179a45d)" style="fill: none; stroke: #cccccc; stroke-width: 0.8; stroke-linecap: round"/>
     </g>
     <g id="text_10">
      <!-- Root light up -->
      <g style="fill: #262626" transform="translate(10.814063 104.902165) scale(0.045 -0.045)">
       <defs>
        <path id="DejaVuSans-52" d="M 2841 2188 
Q 3044 2119 3236 1894 
Q 3428 1669 3622 1275 
L 4263 0 
L 3584 0 
L 2988 1197 
Q 2756 1666 2539 1819 
Q 2322 1972 1947 1972 
L 1259 1972 
L 1259 0 
L 628 0 
L 628 4666 
L 2053 4666 
Q 2853 4666 3247 4331 
Q 3641 3997 3641 3322 
Q 3641 2881 3436 2590 
Q 3231 2300 2841 2188 
z
M 1259 4147 
L 1259 2491 
L 2053 2491 
Q 2509 2491 2742 2702 
Q 2975 2913 2975 3322 
Q 2975 3731 2742 3939 
Q 2509 4147 2053 4147 
L 1259 4147 
z
" transform="scale(0.015625)"/>
       </defs>
       <use xlink:href="#DejaVuSans-52"/>
       <use xlink:href="#DejaVuSans-6f" transform="translate(64.982422 0)"/>
       <use xlink:href="#DejaVuSans-6f" transform="translate(126.164062 0)"/>
       <use xlink:href="#DejaVuSans-74" transform="translate(187.345703 0)"/>
       <use xlink:href="#DejaVuSans-20" transform="translate(226.554688 0)"/>
       <use xlink:href="#DejaVuSans-6c" transform="translate(258.341797 0)"/>
       <use xlink:href="#DejaVuSans-69" transform="translate(286.125 0)"/>
       <use xlink:href="#DejaVuSans-67" transform="translate(313.908203 0)"/>
       <use xlink:href="#DejaVuSans-68" transform="translate(377.384766 0)"/>
       <use xlink:href="#DejaVuSans-74" transform="translate(440.763672 0)"/>
       <use xlink:href="#DejaVuSans-20" transform="translate(479.972656 0)"/>
       <use xlink:href="#DejaVuSans-75" transform="translate(511.759766 0)"/>
       <use xlink:href="#DejaVuSans-70" transform="translate(575.138672 0)"/>
      </g>
     </g>
    </g>
    <g id="ytick_5">
     <g id="line2d_10">
      <path d="M 47.851484 67.660049 
L 234.938099 67.660049 
" clip-path="url(#p33f179a45d)" style="fill: none; stroke: #cccccc; stroke-width: 0.8; stroke-linecap: round"/>
     </g>
     <g id="text_11">
      <!-- Comb light down -->
      <g style="fill: #262626" transform="translate(1.44 69.369697) scale(0.045 -0.045)">
       <defs>
        <path id="DejaVuSans-43" d="M 4122 4306 
L 4122 3641 
Q 3803 3938 3442 4084 
Q 3081 4231 2675 4231 
Q 1875 4231 1450 3742 
Q 1025 3253 1025 2328 
Q 1025 1406 1450 917 
Q 1875 428 2675 428 
Q 3081 428 3442 575 
Q 3803 722 4122 1019 
L 4122 359 
Q 3791 134 3420 21 
Q 3050 -91 2638 -91 
Q 1578 -91 968 557 
Q 359 1206 359 2328 
Q 359 3453 968 4101 
Q 1578 4750 2638 4750 
Q 3056 4750 3426 4639 
Q 3797 4528 4122 4306 
z
" transform="scale(0.015625)"/>
        <path id="DejaVuSans-62" d="M 3116 1747 
Q 3116 2381 2855 2742 
Q 2594 3103 2138 3103 
Q 1681 3103 1420 2742 
Q 1159 2381 1159 1747 
Q 1159 1113 1420 752 
Q 1681 391 2138 391 
Q 2594 391 2855 752 
Q 3116 1113 3116 1747 
z
M 1159 2969 
Q 1341 3281 1617 3432 
Q 1894 3584 2278 3584 
Q 2916 3584 3314 3078 
Q 3713 2572 3713 1747 
Q 3713 922 3314 415 
Q 2916 -91 2278 -91 
Q 1894 -91 1617 61 
Q 1341 213 1159 525 
L 1159 0 
L 581 0 
L 581 4863 
L 1159 4863 
L 1159 2969 
z
" transform="scale(0.015625)"/>
        <path id="DejaVuSans-77" d="M 269 3500 
L 844 3500 
L 1563 769 
L 2278 3500 
L 2956 3500 
L 3675 769 
L 4391 3500 
L 4966 3500 
L 4050 0 
L 3372 0 
L 2619 2869 
L 1863 0 
L 1184 0 
L 269 3500 
z
" transform="scale(0.015625)"/>
       </defs>
       <use xlink:href="#DejaVuSans-43"/>
       <use xlink:href="#DejaVuSans-6f" transform="translate(69.824219 0)"/>
       <use xlink:href="#DejaVuSans-6d" transform="translate(131.005859 0)"/>
       <use xlink:href="#DejaVuSans-62" transform="translate(228.417969 0)"/>
       <use xlink:href="#DejaVuSans-20" transform="translate(291.894531 0)"/>
       <use xlink:href="#DejaVuSans-6c" transform="translate(323.681641 0)"/>
       <use xlink:href="#DejaVuSans-69" transform="translate(351.464844 0)"/>
       <use xlink:href="#DejaVuSans-67" transform="translate(379.248047 0)"/>
       <use xlink:href="#DejaVuSans-68" transform="translate(442.724609 0)"/>
       <use xlink:href="#DejaVuSans-74" transform="translate(506.103516 0)"/>
       <use xlink:href="#DejaVuSans-20" transform="translate(545.3125 0)"/>
       <use xlink:href="#DejaVuSans-64" transform="translate(577.099609 0)"/>
       <use xlink:href="#DejaVuSans-6f" transform="translate(640.576172 0)"/>
       <use xlink:href="#DejaVuSans-77" transform="translate(701.757812 0)"/>
       <use xlink:href="#DejaVuSans-6e" transform="translate(783.544922 0)"/>
      </g>
     </g>
    </g>
    <g id="ytick_6">
     <g id="line2d_11">
      <path d="M 47.851484 32.127581 
L 234.938099 32.127581 
" clip-path="url(#p33f179a45d)" style="fill: none; stroke: #cccccc; stroke-width: 0.8; stroke-linecap: round"/>
     </g>
     <g id="text_12">
      <!-- Comb int pos -->
      <g style="fill: #262626" transform="translate(9.734766 33.83723) scale(0.045 -0.045)">
       <use xlink:href="#DejaVuSans-43"/>
       <use xlink:href="#DejaVuSans-6f" transform="translate(69.824219 0)"/>
       <use xlink:href="#DejaVuSans-6d" transform="translate(131.005859 0)"/>
       <use xlink:href="#DejaVuSans-62" transform="translate(228.417969 0)"/>
       <use xlink:href="#DejaVuSans-20" transform="translate(291.894531 0)"/>
       <use xlink:href="#DejaVuSans-69" transform="translate(323.681641 0)"/>
       <use xlink:href="#DejaVuSans-6e" transform="translate(351.464844 0)"/>
       <use xlink:href="#DejaVuSans-74" transform="translate(414.84375 0)"/>
       <use xlink:href="#DejaVuSans-20" transform="translate(454.052734 0)"/>
       <use xlink:href="#DejaVuSans-70" transform="translate(485.839844 0)"/>
       <use xlink:href="#DejaVuSans-6f" transform="translate(549.316406 0)"/>
       <use xlink:href="#DejaVuSans-73" transform="translate(610.498047 0)"/>
      </g>
     </g>
    </g>
   </g>
   <g id="patch_3">
    <path d="M 47.851484 220.449659 
L 148.233303 220.449659 
L 148.233303 199.130179 
L 47.851484 199.130179 
z
" clip-path="url(#p33f179a45d)" style="fill: #75a025; opacity: 0.9; stroke: #ffffff; stroke-width: 0.2; stroke-linejoin: miter"/>
   </g>
   <g id="patch_4">
    <path d="M 47.851484 184.917192 
L 82.831161 184.917192 
L 82.831161 163.597711 
L 47.851484 163.597711 
z
" clip-path="url(#p33f179a45d)" style="fill: #75a025; opacity: 0.9; stroke: #ffffff; stroke-width: 0.2; stroke-linejoin: miter"/>
   </g>
   <g id="patch_5">
    <path d="M 47.851484 149.384724 
L 90.829027 149.384724 
L 90.829027 128.065244 
L 47.851484 128.065244 
z
" clip-path="url(#p33f179a45d)" style="fill: url(#he3d29786b5); opacity: 0.5; stroke: #ffffff; stroke-width: 0.2; stroke-linejoin: miter"/>
   </g>
   <g id="patch_6">
    <path d="M 47.851484 113.852256 
L 226.029212 113.852256 
L 226.029212 92.532776 
L 47.851484 92.532776 
z
" clip-path="url(#p33f179a45d)" style="fill: #0279ee; opacity: 0.9; stroke: #ffffff; stroke-width: 0.2; stroke-linejoin: miter"/>
   </g>
   <g id="patch_7">
    <path d="M 47.851484 78.319789 
L 201.951141 78.319789 
L 201.951141 57.000308 
L 47.851484 57.000308 
z
" clip-path="url(#p33f179a45d)" style="fill: url(#hf2dfabc264); opacity: 0.5; stroke: #ffffff; stroke-width: 0.2; stroke-linejoin: miter"/>
   </g>
   <g id="patch_8">
    <path d="M 47.851484 42.787321 
L 135.300676 42.787321 
L 135.300676 21.467841 
L 47.851484 21.467841 
z
" clip-path="url(#p33f179a45d)" style="fill: #0279ee; opacity: 0.9; stroke: #ffffff; stroke-width: 0.2; stroke-linejoin: miter"/>
   </g>
   <g id="line2d_12">
    <path d="M 56.721415 230.39875 
L 56.721415 11.51875 
" clip-path="url(#p33f179a45d)" style="fill: none; stroke-dasharray: 0.3,0.495; stroke-dashoffset: 0; stroke: #808080; stroke-width: 0.3"/>
   </g>
   <g id="patch_9">
    <path d="M 47.851484 230.39875 
L 47.851484 11.51875 
" style="fill: none; stroke: #cccccc; stroke-linejoin: miter; stroke-linecap: square"/>
   </g>
   <g id="patch_10">
    <path d="M 47.851484 230.39875 
L 234.938099 230.39875 
" style="fill: none; stroke: #cccccc; stroke-linejoin: miter; stroke-linecap: square"/>
   </g>
   <g id="text_13">
    <!-- n=5 -->
    <g style="fill: #262626" transform="translate(150.007289 210.893669) scale(0.04 -0.04)">
     <defs>
      <path id="DejaVuSans-3d" d="M 678 2906 
L 4684 2906 
L 4684 2381 
L 678 2381 
L 678 2906 
z
M 678 1631 
L 4684 1631 
L 4684 1100 
L 678 1100 
L 678 1631 
z
" transform="scale(0.015625)"/>
     </defs>
     <use xlink:href="#DejaVuSans-6e"/>
     <use xlink:href="#DejaVuSans-3d" transform="translate(63.378906 0)"/>
     <use xlink:href="#DejaVuSans-35" transform="translate(147.167969 0)"/>
    </g>
   </g>
   <g id="text_14">
    <!-- n=6 -->
    <g style="fill: #262626" transform="translate(84.605147 175.361201) scale(0.04 -0.04)">
     <defs>
      <path id="DejaVuSans-36" d="M 2113 2584 
Q 1688 2584 1439 2293 
Q 1191 2003 1191 1497 
Q 1191 994 1439 701 
Q 1688 409 2113 409 
Q 2538 409 2786 701 
Q 3034 994 3034 1497 
Q 3034 2003 2786 2293 
Q 2538 2584 2113 2584 
z
M 3366 4563 
L 3366 3988 
Q 3128 4100 2886 4159 
Q 2644 4219 2406 4219 
Q 1781 4219 1451 3797 
Q 1122 3375 1075 2522 
Q 1259 2794 1537 2939 
Q 1816 3084 2150 3084 
Q 2853 3084 3261 2657 
Q 3669 2231 3669 1497 
Q 3669 778 3244 343 
Q 2819 -91 2113 -91 
Q 1303 -91 875 529 
Q 447 1150 447 2328 
Q 447 3434 972 4092 
Q 1497 4750 2381 4750 
Q 2619 4750 2861 4703 
Q 3103 4656 3366 4563 
z
" transform="scale(0.015625)"/>
     </defs>
     <use xlink:href="#DejaVuSans-6e"/>
     <use xlink:href="#DejaVuSans-3d" transform="translate(63.378906 0)"/>
     <use xlink:href="#DejaVuSans-36" transform="translate(147.167969 0)"/>
    </g>
   </g>
   <g id="text_15">
    <!-- n=6 -->
    <g style="fill: #262626" transform="translate(92.603013 139.828734) scale(0.04 -0.04)">
     <use xlink:href="#DejaVuSans-6e"/>
     <use xlink:href="#DejaVuSans-3d" transform="translate(63.378906 0)"/>
     <use xlink:href="#DejaVuSans-36" transform="translate(147.167969 0)"/>
    </g>
   </g>
   <g id="text_16">
    <!-- n=2 -->
    <g style="fill: #262626" transform="translate(227.803198 104.296266) scale(0.04 -0.04)">
     <use xlink:href="#DejaVuSans-6e"/>
     <use xlink:href="#DejaVuSans-3d" transform="translate(63.378906 0)"/>
     <use xlink:href="#DejaVuSans-32" transform="translate(147.167969 0)"/>
    </g>
   </g>
   <g id="text_17">
    <!-- n=2 -->
    <g style="fill: #262626" transform="translate(203.725127 68.763799) scale(0.04 -0.04)">
     <use xlink:href="#DejaVuSans-6e"/>
     <use xlink:href="#DejaVuSans-3d" transform="translate(63.378906 0)"/>
     <use xlink:href="#DejaVuSans-32" transform="translate(147.167969 0)"/>
    </g>
   </g>
   <g id="text_18">
    <!-- n=5 -->
    <g style="fill: #262626" transform="translate(137.074662 33.231331) scale(0.04 -0.04)">
     <use xlink:href="#DejaVuSans-6e"/>
     <use xlink:href="#DejaVuSans-3d" transform="translate(63.378906 0)"/>
     <use xlink:href="#DejaVuSans-35" transform="translate(147.167969 0)"/>
    </g>
   </g>
   <g id="text_19">
    <!-- a  Flavonoid pathway enrichment -->
    <g style="fill: #262626" transform="translate(47.851484 7.51875) scale(0.08 -0.08)">
     <defs>
      <path id="DejaVuSans-Bold-61" d="M 2106 1575 
Q 1756 1575 1579 1456 
Q 1403 1338 1403 1106 
Q 1403 894 1545 773 
Q 1688 653 1941 653 
Q 2256 653 2472 879 
Q 2688 1106 2688 1447 
L 2688 1575 
L 2106 1575 
z
M 3816 1997 
L 3816 0 
L 2688 0 
L 2688 519 
Q 2463 200 2181 54 
Q 1900 -91 1497 -91 
Q 953 -91 614 226 
Q 275 544 275 1050 
Q 275 1666 698 1953 
Q 1122 2241 2028 2241 
L 2688 2241 
L 2688 2328 
Q 2688 2594 2478 2717 
Q 2269 2841 1825 2841 
Q 1466 2841 1156 2769 
Q 847 2697 581 2553 
L 581 3406 
Q 941 3494 1303 3539 
Q 1666 3584 2028 3584 
Q 2975 3584 3395 3211 
Q 3816 2838 3816 1997 
z
" transform="scale(0.015625)"/>
      <path id="DejaVuSans-Bold-20" transform="scale(0.015625)"/>
      <path id="DejaVuSans-Bold-46" d="M 588 4666 
L 3834 4666 
L 3834 3756 
L 1791 3756 
L 1791 2888 
L 3713 2888 
L 3713 1978 
L 1791 1978 
L 1791 0 
L 588 0 
L 588 4666 
z
" transform="scale(0.015625)"/>
      <path id="DejaVuSans-Bold-6c" d="M 538 4863 
L 1656 4863 
L 1656 0 
L 538 0 
L 538 4863 
z
" transform="scale(0.015625)"/>
      <path id="DejaVuSans-Bold-76" d="M 97 3500 
L 1216 3500 
L 2088 1081 
L 2956 3500 
L 4078 3500 
L 2700 0 
L 1472 0 
L 97 3500 
z
" transform="scale(0.015625)"/>
      <path id="DejaVuSans-Bold-6f" d="M 2203 2784 
Q 1831 2784 1636 2517 
Q 1441 2250 1441 1747 
Q 1441 1244 1636 976 
Q 1831 709 2203 709 
Q 2569 709 2762 976 
Q 2956 1244 2956 1747 
Q 2956 2250 2762 2517 
Q 2569 2784 2203 2784 
z
M 2203 3584 
Q 3106 3584 3614 3096 
Q 4122 2609 4122 1747 
Q 4122 884 3614 396 
Q 3106 -91 2203 -91 
Q 1297 -91 786 396 
Q 275 884 275 1747 
Q 275 2609 786 3096 
Q 1297 3584 2203 3584 
z
" transform="scale(0.015625)"/>
      <path id="DejaVuSans-Bold-6e" d="M 4056 2131 
L 4056 0 
L 2931 0 
L 2931 347 
L 2931 1631 
Q 2931 2084 2911 2256 
Q 2891 2428 2841 2509 
Q 2775 2619 2662 2680 
Q 2550 2741 2406 2741 
Q 2056 2741 1856 2470 
Q 1656 2200 1656 1722 
L 1656 0 
L 538 0 
L 538 3500 
L 1656 3500 
L 1656 2988 
Q 1909 3294 2193 3439 
Q 2478 3584 2822 3584 
Q 3428 3584 3742 3212 
Q 4056 2841 4056 2131 
z
" transform="scale(0.015625)"/>
      <path id="DejaVuSans-Bold-69" d="M 538 3500 
L 1656 3500 
L 1656 0 
L 538 0 
L 538 3500 
z
M 538 4863 
L 1656 4863 
L 1656 3950 
L 538 3950 
L 538 4863 
z
" transform="scale(0.015625)"/>
      <path id="DejaVuSans-Bold-64" d="M 2919 2988 
L 2919 4863 
L 4044 4863 
L 4044 0 
L 2919 0 
L 2919 506 
Q 2688 197 2409 53 
Q 2131 -91 1766 -91 
Q 1119 -91 703 423 
Q 288 938 288 1747 
Q 288 2556 703 3070 
Q 1119 3584 1766 3584 
Q 2128 3584 2408 3439 
Q 2688 3294 2919 2988 
z
M 2181 722 
Q 2541 722 2730 984 
Q 2919 1247 2919 1747 
Q 2919 2247 2730 2509 
Q 2541 2772 2181 2772 
Q 1825 2772 1636 2509 
Q 1447 2247 1447 1747 
Q 1447 1247 1636 984 
Q 1825 722 2181 722 
z
" transform="scale(0.015625)"/>
      <path id="DejaVuSans-Bold-70" d="M 1656 506 
L 1656 -1331 
L 538 -1331 
L 538 3500 
L 1656 3500 
L 1656 2988 
Q 1888 3294 2169 3439 
Q 2450 3584 2816 3584 
Q 3463 3584 3878 3070 
Q 4294 2556 4294 1747 
Q 4294 938 3878 423 
Q 3463 -91 2816 -91 
Q 2450 -91 2169 54 
Q 1888 200 1656 506 
z
M 2400 2772 
Q 2041 2772 1848 2508 
Q 1656 2244 1656 1747 
Q 1656 1250 1848 986 
Q 2041 722 2400 722 
Q 2759 722 2948 984 
Q 3138 1247 3138 1747 
Q 3138 2247 2948 2509 
Q 2759 2772 2400 2772 
z
" transform="scale(0.015625)"/>
      <path id="DejaVuSans-Bold-74" d="M 1759 4494 
L 1759 3500 
L 2913 3500 
L 2913 2700 
L 1759 2700 
L 1759 1216 
Q 1759 972 1856 886 
Q 1953 800 2241 800 
L 2816 800 
L 2816 0 
L 1856 0 
Q 1194 0 917 276 
Q 641 553 641 1216 
L 641 2700 
L 84 2700 
L 84 3500 
L 641 3500 
L 641 4494 
L 1759 4494 
z
" transform="scale(0.015625)"/>
      <path id="DejaVuSans-Bold-68" d="M 4056 2131 
L 4056 0 
L 2931 0 
L 2931 347 
L 2931 1625 
Q 2931 2084 2911 2256 
Q 2891 2428 2841 2509 
Q 2775 2619 2662 2680 
Q 2550 2741 2406 2741 
Q 2056 2741 1856 2470 
Q 1656 2200 1656 1722 
L 1656 0 
L 538 0 
L 538 4863 
L 1656 4863 
L 1656 2988 
Q 1909 3294 2193 3439 
Q 2478 3584 2822 3584 
Q 3428 3584 3742 3212 
Q 4056 2841 4056 2131 
z
" transform="scale(0.015625)"/>
      <path id="DejaVuSans-Bold-77" d="M 225 3500 
L 1313 3500 
L 1900 1088 
L 2491 3500 
L 3425 3500 
L 4013 1113 
L 4603 3500 
L 5691 3500 
L 4769 0 
L 3547 0 
L 2956 2406 
L 2369 0 
L 1147 0 
L 225 3500 
z
" transform="scale(0.015625)"/>
      <path id="DejaVuSans-Bold-79" d="M 78 3500 
L 1197 3500 
L 2138 1125 
L 2938 3500 
L 4056 3500 
L 2584 -331 
Q 2363 -916 2067 -1148 
Q 1772 -1381 1288 -1381 
L 641 -1381 
L 641 -647 
L 991 -647 
Q 1275 -647 1404 -556 
Q 1534 -466 1606 -231 
L 1638 -134 
L 78 3500 
z
" transform="scale(0.015625)"/>
      <path id="DejaVuSans-Bold-65" d="M 4031 1759 
L 4031 1441 
L 1416 1441 
Q 1456 1047 1700 850 
Q 1944 653 2381 653 
Q 2734 653 3104 758 
Q 3475 863 3866 1075 
L 3866 213 
Q 3469 63 3072 -14 
Q 2675 -91 2278 -91 
Q 1328 -91 801 392 
Q 275 875 275 1747 
Q 275 2603 792 3093 
Q 1309 3584 2216 3584 
Q 3041 3584 3536 3087 
Q 4031 2591 4031 1759 
z
M 2881 2131 
Q 2881 2450 2695 2645 
Q 2509 2841 2209 2841 
Q 1884 2841 1681 2658 
Q 1478 2475 1428 2131 
L 2881 2131 
z
" transform="scale(0.015625)"/>
      <path id="DejaVuSans-Bold-72" d="M 3138 2547 
Q 2991 2616 2845 2648 
Q 2700 2681 2553 2681 
Q 2122 2681 1889 2404 
Q 1656 2128 1656 1613 
L 1656 0 
L 538 0 
L 538 3500 
L 1656 3500 
L 1656 2925 
Q 1872 3269 2151 3426 
Q 2431 3584 2822 3584 
Q 2878 3584 2943 3579 
Q 3009 3575 3134 3559 
L 3138 2547 
z
" transform="scale(0.015625)"/>
      <path id="DejaVuSans-Bold-63" d="M 3366 3391 
L 3366 2478 
Q 3138 2634 2908 2709 
Q 2678 2784 2431 2784 
Q 1963 2784 1702 2511 
Q 1441 2238 1441 1747 
Q 1441 1256 1702 982 
Q 1963 709 2431 709 
Q 2694 709 2930 787 
Q 3166 866 3366 1019 
L 3366 103 
Q 3103 6 2833 -42 
Q 2563 -91 2291 -91 
Q 1344 -91 809 395 
Q 275 881 275 1747 
Q 275 2613 809 3098 
Q 1344 3584 2291 3584 
Q 2566 3584 2833 3536 
Q 3100 3488 3366 3391 
z
" transform="scale(0.015625)"/>
      <path id="DejaVuSans-Bold-6d" d="M 3781 2919 
Q 3994 3244 4286 3414 
Q 4578 3584 4928 3584 
Q 5531 3584 5847 3212 
Q 6163 2841 6163 2131 
L 6163 0 
L 5038 0 
L 5038 1825 
Q 5041 1866 5042 1909 
Q 5044 1953 5044 2034 
Q 5044 2406 4934 2573 
Q 4825 2741 4581 2741 
Q 4263 2741 4089 2478 
Q 3916 2216 3909 1719 
L 3909 0 
L 2784 0 
L 2784 1825 
Q 2784 2406 2684 2573 
Q 2584 2741 2328 2741 
Q 2006 2741 1831 2477 
Q 1656 2213 1656 1722 
L 1656 0 
L 531 0 
L 531 3500 
L 1656 3500 
L 1656 2988 
Q 1863 3284 2130 3434 
Q 2397 3584 2719 3584 
Q 3081 3584 3359 3409 
Q 3638 3234 3781 2919 
z
" transform="scale(0.015625)"/>
     </defs>
     <use xlink:href="#DejaVuSans-Bold-61"/>
     <use xlink:href="#DejaVuSans-Bold-20" transform="translate(67.480469 0)"/>
     <use xlink:href="#DejaVuSans-Bold-20" transform="translate(102.294922 0)"/>
     <use xlink:href="#DejaVuSans-Bold-46" transform="translate(137.109375 0)"/>
     <use xlink:href="#DejaVuSans-Bold-6c" transform="translate(205.419922 0)"/>
     <use xlink:href="#DejaVuSans-Bold-61" transform="translate(239.697266 0)"/>
     <use xlink:href="#DejaVuSans-Bold-76" transform="translate(307.177734 0)"/>
     <use xlink:href="#DejaVuSans-Bold-6f" transform="translate(372.363281 0)"/>
     <use xlink:href="#DejaVuSans-Bold-6e" transform="translate(441.064453 0)"/>
     <use xlink:href="#DejaVuSans-Bold-6f" transform="translate(512.255859 0)"/>
     <use xlink:href="#DejaVuSans-Bold-69" transform="translate(580.957031 0)"/>
     <use xlink:href="#DejaVuSans-Bold-64" transform="translate(615.234375 0)"/>
     <use xlink:href="#DejaVuSans-Bold-20" transform="translate(686.816406 0)"/>
     <use xlink:href="#DejaVuSans-Bold-70" transform="translate(721.630859 0)"/>
     <use xlink:href="#DejaVuSans-Bold-61" transform="translate(793.212891 0)"/>
     <use xlink:href="#DejaVuSans-Bold-74" transform="translate(860.693359 0)"/>
     <use xlink:href="#DejaVuSans-Bold-68" transform="translate(908.496094 0)"/>
     <use xlink:href="#DejaVuSans-Bold-77" transform="translate(979.6875 0)"/>
     <use xlink:href="#DejaVuSans-Bold-61" transform="translate(1072.070312 0)"/>
     <use xlink:href="#DejaVuSans-Bold-79" transform="translate(1136.425781 0)"/>
     <use xlink:href="#DejaVuSans-Bold-20" transform="translate(1201.611328 0)"/>
     <use xlink:href="#DejaVuSans-Bold-65" transform="translate(1236.425781 0)"/>
     <use xlink:href="#DejaVuSans-Bold-6e" transform="translate(1304.248047 0)"/>
     <use xlink:href="#DejaVuSans-Bold-72" transform="translate(1375.439453 0)"/>
     <use xlink:href="#DejaVuSans-Bold-69" transform="translate(1424.755859 0)"/>
     <use xlink:href="#DejaVuSans-Bold-63" transform="translate(1459.033203 0)"/>
     <use xlink:href="#DejaVuSans-Bold-68" transform="translate(1518.310547 0)"/>
     <use xlink:href="#DejaVuSans-Bold-6d" transform="translate(1589.501953 0)"/>
     <use xlink:href="#DejaVuSans-Bold-65" transform="translate(1693.701172 0)"/>
     <use xlink:href="#DejaVuSans-Bold-6e" transform="translate(1761.523438 0)"/>
     <use xlink:href="#DejaVuSans-Bold-74" transform="translate(1832.714844 0)"/>
    </g>
   </g>
  </g>
  <g id="axes_2">
   <g id="patch_11">
    <path d="M 337.835736 48.45475 
L 412.670382 48.45475 
Q 413.605815 48.45475 413.605815 47.08675 
L 413.605815 30.67075 
Q 413.605815 29.30275 412.670382 29.30275 
L 337.835736 29.30275 
Q 336.900303 29.30275 336.900303 30.67075 
L 336.900303 47.08675 
Q 336.900303 48.45475 337.835736 48.45475 
z
" clip-path="url(#pde829d871a)" style="fill: #faf9f3; stroke: #ff9400; stroke-width: 0.5; stroke-linejoin: miter"/>
   </g>
   <g id="patch_12">
    <path d="M 337.835736 81.28675 
L 412.670382 81.28675 
Q 413.605815 81.28675 413.605815 79.91875 
L 413.605815 63.50275 
Q 413.605815 62.13475 412.670382 62.13475 
L 337.835736 62.13475 
Q 336.900303 62.13475 336.900303 63.50275 
L 336.900303 79.91875 
Q 336.900303 81.28675 337.835736 81.28675 
z
" clip-path="url(#pde829d871a)" style="fill: #faf9f3; stroke: #ff9400; stroke-width: 0.5; stroke-linejoin: miter"/>
   </g>
   <g id="patch_13">
    <path d="M 337.835736 114.11875 
L 412.670382 114.11875 
Q 413.605815 114.11875 413.605815 112.75075 
L 413.605815 96.33475 
Q 413.605815 94.96675 412.670382 94.96675 
L 337.835736 94.96675 
Q 336.900303 94.96675 336.900303 96.33475 
L 336.900303 112.75075 
Q 336.900303 114.11875 337.835736 114.11875 
z
" clip-path="url(#pde829d871a)" style="fill: #faf9f3; stroke: #ff9400; stroke-width: 0.5; stroke-linejoin: miter"/>
   </g>
   <g id="patch_14">
    <path d="M 337.835736 146.95075 
L 412.670382 146.95075 
Q 413.605815 146.95075 413.605815 145.58275 
L 413.605815 129.16675 
Q 413.605815 127.79875 412.670382 127.79875 
L 337.835736 127.79875 
Q 336.900303 127.79875 336.900303 129.16675 
L 336.900303 145.58275 
Q 336.900303 146.95075 337.835736 146.95075 
z
" clip-path="url(#pde829d871a)" style="fill: #faf9f3; stroke: #ff9400; stroke-width: 0.5; stroke-linejoin: miter"/>
   </g>
   <g id="patch_15">
    <path d="M 337.835736 179.78275 
L 412.670382 179.78275 
Q 413.605815 179.78275 413.605815 178.41475 
L 413.605815 161.99875 
Q 413.605815 160.63075 412.670382 160.63075 
L 337.835736 160.63075 
Q 336.900303 160.63075 336.900303 161.99875 
L 336.900303 178.41475 
Q 336.900303 179.78275 337.835736 179.78275 
z
" clip-path="url(#pde829d871a)" style="fill: #faf9f3; stroke: #ff9400; stroke-width: 0.5; stroke-linejoin: miter"/>
   </g>
   <g id="patch_16">
    <path d="M 337.835736 212.61475 
L 412.670382 212.61475 
Q 413.605815 212.61475 413.605815 211.24675 
L 413.605815 194.83075 
Q 413.605815 193.46275 412.670382 193.46275 
L 337.835736 193.46275 
Q 336.900303 193.46275 336.900303 194.83075 
L 336.900303 211.24675 
Q 336.900303 212.61475 337.835736 212.61475 
z
" clip-path="url(#pde829d871a)" style="fill: #faf9f3; stroke: #ff9400; stroke-width: 0.5; stroke-linejoin: miter"/>
   </g>
   <g id="text_20">
    <!-- p-Coumaroyl CoA -->
    <g style="fill: #333333" transform="translate(355.658723 40.120469) scale(0.045 -0.045)">
     <defs>
      <path id="DejaVuSans-2d" d="M 313 2009 
L 1997 2009 
L 1997 1497 
L 313 1497 
L 313 2009 
z
" transform="scale(0.015625)"/>
      <path id="DejaVuSans-79" d="M 2059 -325 
Q 1816 -950 1584 -1140 
Q 1353 -1331 966 -1331 
L 506 -1331 
L 506 -850 
L 844 -850 
Q 1081 -850 1212 -737 
Q 1344 -625 1503 -206 
L 1606 56 
L 191 3500 
L 800 3500 
L 1894 763 
L 2988 3500 
L 3597 3500 
L 2059 -325 
z
" transform="scale(0.015625)"/>
      <path id="DejaVuSans-41" d="M 2188 4044 
L 1331 1722 
L 3047 1722 
L 2188 4044 
z
M 1831 4666 
L 2547 4666 
L 4325 0 
L 3669 0 
L 3244 1197 
L 1141 1197 
L 716 0 
L 50 0 
L 1831 4666 
z
" transform="scale(0.015625)"/>
     </defs>
     <use xlink:href="#DejaVuSans-70"/>
     <use xlink:href="#DejaVuSans-2d" transform="translate(63.476562 0)"/>
     <use xlink:href="#DejaVuSans-43" transform="translate(99.560547 0)"/>
     <use xlink:href="#DejaVuSans-6f" transform="translate(169.384766 0)"/>
     <use xlink:href="#DejaVuSans-75" transform="translate(230.566406 0)"/>
     <use xlink:href="#DejaVuSans-6d" transform="translate(293.945312 0)"/>
     <use xlink:href="#DejaVuSans-61" transform="translate(391.357422 0)"/>
     <use xlink:href="#DejaVuSans-72" transform="translate(452.636719 0)"/>
     <use xlink:href="#DejaVuSans-6f" transform="translate(491.5 0)"/>
     <use xlink:href="#DejaVuSans-79" transform="translate(552.681641 0)"/>
     <use xlink:href="#DejaVuSans-6c" transform="translate(611.861328 0)"/>
     <use xlink:href="#DejaVuSans-20" transform="translate(639.644531 0)"/>
     <use xlink:href="#DejaVuSans-43" transform="translate(671.431641 0)"/>
     <use xlink:href="#DejaVuSans-6f" transform="translate(741.255859 0)"/>
     <use xlink:href="#DejaVuSans-41" transform="translate(802.4375 0)"/>
    </g>
   </g>
   <g id="patch_17">
    <path d="M 375.253059 61.502852 
Q 375.253059 55.296114 375.253059 49.648394 
" style="fill: none; stroke: #333333; stroke-width: 0.5; stroke-linecap: round"/>
    <path d="M 373.333059 53.488394 
L 375.253059 49.648394 
L 377.173059 53.488394 
" style="fill: none; stroke: #333333; stroke-width: 0.5; stroke-linecap: round"/>
   </g>
   <g id="text_21">
    <!-- Chalcone -->
    <g style="fill: #333333" transform="translate(364.827825 72.952469) scale(0.045 -0.045)">
     <use xlink:href="#DejaVuSans-43"/>
     <use xlink:href="#DejaVuSans-68" transform="translate(69.824219 0)"/>
     <use xlink:href="#DejaVuSans-61" transform="translate(133.203125 0)"/>
     <use xlink:href="#DejaVuSans-6c" transform="translate(194.482422 0)"/>
     <use xlink:href="#DejaVuSans-63" transform="translate(222.265625 0)"/>
     <use xlink:href="#DejaVuSans-6f" transform="translate(277.246094 0)"/>
     <use xlink:href="#DejaVuSans-6e" transform="translate(338.427734 0)"/>
     <use xlink:href="#DejaVuSans-65" transform="translate(401.806641 0)"/>
    </g>
   </g>
   <g id="patch_18">
    <path d="M 375.253059 94.334852 
Q 375.253059 88.128114 375.253059 82.480394 
" style="fill: none; stroke: #333333; stroke-width: 0.5; stroke-linecap: round"/>
    <path d="M 373.333059 86.320394 
L 375.253059 82.480394 
L 377.173059 86.320394 
" style="fill: none; stroke: #333333; stroke-width: 0.5; stroke-linecap: round"/>
   </g>
   <g id="text_22">
    <!-- Naringenin -->
    <g style="fill: #333333" transform="translate(362.925169 105.784469) scale(0.045 -0.045)">
     <defs>
      <path id="DejaVuSans-4e" d="M 628 4666 
L 1478 4666 
L 3547 763 
L 3547 4666 
L 4159 4666 
L 4159 0 
L 3309 0 
L 1241 3903 
L 1241 0 
L 628 0 
L 628 4666 
z
" transform="scale(0.015625)"/>
     </defs>
     <use xlink:href="#DejaVuSans-4e"/>
     <use xlink:href="#DejaVuSans-61" transform="translate(74.804688 0)"/>
     <use xlink:href="#DejaVuSans-72" transform="translate(136.083984 0)"/>
     <use xlink:href="#DejaVuSans-69" transform="translate(177.197266 0)"/>
     <use xlink:href="#DejaVuSans-6e" transform="translate(204.980469 0)"/>
     <use xlink:href="#DejaVuSans-67" transform="translate(268.359375 0)"/>
     <use xlink:href="#DejaVuSans-65" transform="translate(331.835938 0)"/>
     <use xlink:href="#DejaVuSans-6e" transform="translate(393.359375 0)"/>
     <use xlink:href="#DejaVuSans-69" transform="translate(456.738281 0)"/>
     <use xlink:href="#DejaVuSans-6e" transform="translate(484.521484 0)"/>
    </g>
   </g>
   <g id="patch_19">
    <path d="M 375.253059 127.166852 
Q 375.253059 120.960114 375.253059 115.312394 
" style="fill: none; stroke: #333333; stroke-width: 0.5; stroke-linecap: round"/>
    <path d="M 373.333059 119.152394 
L 375.253059 115.312394 
L 377.173059 119.152394 
" style="fill: none; stroke: #333333; stroke-width: 0.5; stroke-linecap: round"/>
   </g>
   <g id="text_23">
    <!-- Dihydrokaempferol -->
    <g style="fill: #333333" transform="translate(353.758879 138.616469) scale(0.045 -0.045)">
     <defs>
      <path id="DejaVuSans-44" d="M 1259 4147 
L 1259 519 
L 2022 519 
Q 2988 519 3436 956 
Q 3884 1394 3884 2338 
Q 3884 3275 3436 3711 
Q 2988 4147 2022 4147 
L 1259 4147 
z
M 628 4666 
L 1925 4666 
Q 3281 4666 3915 4102 
Q 4550 3538 4550 2338 
Q 4550 1131 3912 565 
Q 3275 0 1925 0 
L 628 0 
L 628 4666 
z
" transform="scale(0.015625)"/>
      <path id="DejaVuSans-6b" d="M 581 4863 
L 1159 4863 
L 1159 1991 
L 2875 3500 
L 3609 3500 
L 1753 1863 
L 3688 0 
L 2938 0 
L 1159 1709 
L 1159 0 
L 581 0 
L 581 4863 
z
" transform="scale(0.015625)"/>
     </defs>
     <use xlink:href="#DejaVuSans-44"/>
     <use xlink:href="#DejaVuSans-69" transform="translate(77.001953 0)"/>
     <use xlink:href="#DejaVuSans-68" transform="translate(104.785156 0)"/>
     <use xlink:href="#DejaVuSans-79" transform="translate(168.164062 0)"/>
     <use xlink:href="#DejaVuSans-64" transform="translate(227.34375 0)"/>
     <use xlink:href="#DejaVuSans-72" transform="translate(290.820312 0)"/>
     <use xlink:href="#DejaVuSans-6f" transform="translate(329.683594 0)"/>
     <use xlink:href="#DejaVuSans-6b" transform="translate(390.865234 0)"/>
     <use xlink:href="#DejaVuSans-61" transform="translate(447.025391 0)"/>
     <use xlink:href="#DejaVuSans-65" transform="translate(508.304688 0)"/>
     <use xlink:href="#DejaVuSans-6d" transform="translate(569.828125 0)"/>
     <use xlink:href="#DejaVuSans-70" transform="translate(667.240234 0)"/>
     <use xlink:href="#DejaVuSans-66" transform="translate(730.716797 0)"/>
     <use xlink:href="#DejaVuSans-65" transform="translate(765.921875 0)"/>
     <use xlink:href="#DejaVuSans-72" transform="translate(827.445312 0)"/>
     <use xlink:href="#DejaVuSans-6f" transform="translate(866.308594 0)"/>
     <use xlink:href="#DejaVuSans-6c" transform="translate(927.490234 0)"/>
    </g>
   </g>
   <g id="patch_20">
    <path d="M 375.253059 159.998852 
Q 375.253059 153.792114 375.253059 148.144394 
" style="fill: none; stroke: #333333; stroke-width: 0.5; stroke-linecap: round"/>
    <path d="M 373.333059 151.984394 
L 375.253059 148.144394 
L 377.173059 151.984394 
" style="fill: none; stroke: #333333; stroke-width: 0.5; stroke-linecap: round"/>
   </g>
   <g id="text_24">
    <!-- Kaempferol -->
    <g style="fill: #333333" transform="translate(362.38095 171.448469) scale(0.045 -0.045)">
     <defs>
      <path id="DejaVuSans-4b" d="M 628 4666 
L 1259 4666 
L 1259 2694 
L 3353 4666 
L 4166 4666 
L 1850 2491 
L 4331 0 
L 3500 0 
L 1259 2247 
L 1259 0 
L 628 0 
L 628 4666 
z
" transform="scale(0.015625)"/>
     </defs>
     <use xlink:href="#DejaVuSans-4b"/>
     <use xlink:href="#DejaVuSans-61" transform="translate(63.826172 0)"/>
     <use xlink:href="#DejaVuSans-65" transform="translate(125.105469 0)"/>
     <use xlink:href="#DejaVuSans-6d" transform="translate(186.628906 0)"/>
     <use xlink:href="#DejaVuSans-70" transform="translate(284.041016 0)"/>
     <use xlink:href="#DejaVuSans-66" transform="translate(347.517578 0)"/>
     <use xlink:href="#DejaVuSans-65" transform="translate(382.722656 0)"/>
     <use xlink:href="#DejaVuSans-72" transform="translate(444.246094 0)"/>
     <use xlink:href="#DejaVuSans-6f" transform="translate(483.109375 0)"/>
     <use xlink:href="#DejaVuSans-6c" transform="translate(544.291016 0)"/>
    </g>
   </g>
   <g id="patch_21">
    <path d="M 375.253059 192.830852 
Q 375.253059 186.624114 375.253059 180.976394 
" style="fill: none; stroke: #333333; stroke-width: 0.5; stroke-linecap: round"/>
    <path d="M 373.333059 184.816394 
L 375.253059 180.976394 
L 377.173059 184.816394 
" style="fill: none; stroke: #333333; stroke-width: 0.5; stroke-linecap: round"/>
   </g>
   <g id="text_25">
    <!-- Quercetin -->
    <g style="fill: #333333" transform="translate(364.242473 204.280469) scale(0.045 -0.045)">
     <defs>
      <path id="DejaVuSans-51" d="M 2522 4238 
Q 1834 4238 1429 3725 
Q 1025 3213 1025 2328 
Q 1025 1447 1429 934 
Q 1834 422 2522 422 
Q 3209 422 3611 934 
Q 4013 1447 4013 2328 
Q 4013 3213 3611 3725 
Q 3209 4238 2522 4238 
z
M 3406 84 
L 4238 -825 
L 3475 -825 
L 2784 -78 
Q 2681 -84 2626 -87 
Q 2572 -91 2522 -91 
Q 1538 -91 948 567 
Q 359 1225 359 2328 
Q 359 3434 948 4092 
Q 1538 4750 2522 4750 
Q 3503 4750 4090 4092 
Q 4678 3434 4678 2328 
Q 4678 1516 4351 937 
Q 4025 359 3406 84 
z
" transform="scale(0.015625)"/>
     </defs>
     <use xlink:href="#DejaVuSans-51"/>
     <use xlink:href="#DejaVuSans-75" transform="translate(78.710938 0)"/>
     <use xlink:href="#DejaVuSans-65" transform="translate(142.089844 0)"/>
     <use xlink:href="#DejaVuSans-72" transform="translate(203.613281 0)"/>
     <use xlink:href="#DejaVuSans-63" transform="translate(242.476562 0)"/>
     <use xlink:href="#DejaVuSans-65" transform="translate(297.457031 0)"/>
     <use xlink:href="#DejaVuSans-74" transform="translate(358.980469 0)"/>
     <use xlink:href="#DejaVuSans-69" transform="translate(398.189453 0)"/>
     <use xlink:href="#DejaVuSans-6e" transform="translate(425.972656 0)"/>
    </g>
   </g>
   <g id="text_26">
    <!-- CHS -->
    <g style="fill: #ff9400" transform="translate(435.00603 56.674437) scale(0.05 -0.05)">
     <defs>
      <path id="DejaVuSans-Bold-43" d="M 4288 256 
Q 3956 84 3597 -3 
Q 3238 -91 2847 -91 
Q 1681 -91 1000 561 
Q 319 1213 319 2328 
Q 319 3447 1000 4098 
Q 1681 4750 2847 4750 
Q 3238 4750 3597 4662 
Q 3956 4575 4288 4403 
L 4288 3438 
Q 3953 3666 3628 3772 
Q 3303 3878 2944 3878 
Q 2300 3878 1931 3465 
Q 1563 3053 1563 2328 
Q 1563 1606 1931 1193 
Q 2300 781 2944 781 
Q 3303 781 3628 887 
Q 3953 994 4288 1222 
L 4288 256 
z
" transform="scale(0.015625)"/>
      <path id="DejaVuSans-Bold-48" d="M 588 4666 
L 1791 4666 
L 1791 2888 
L 3566 2888 
L 3566 4666 
L 4769 4666 
L 4769 0 
L 3566 0 
L 3566 1978 
L 1791 1978 
L 1791 0 
L 588 0 
L 588 4666 
z
" transform="scale(0.015625)"/>
      <path id="DejaVuSans-Bold-53" d="M 3834 4519 
L 3834 3531 
Q 3450 3703 3084 3790 
Q 2719 3878 2394 3878 
Q 1963 3878 1756 3759 
Q 1550 3641 1550 3391 
Q 1550 3203 1689 3098 
Q 1828 2994 2194 2919 
L 2706 2816 
Q 3484 2659 3812 2340 
Q 4141 2022 4141 1434 
Q 4141 663 3683 286 
Q 3225 -91 2284 -91 
Q 1841 -91 1394 -6 
Q 947 78 500 244 
L 500 1259 
Q 947 1022 1364 901 
Q 1781 781 2169 781 
Q 2563 781 2772 912 
Q 2981 1044 2981 1288 
Q 2981 1506 2839 1625 
Q 2697 1744 2272 1838 
L 1806 1941 
Q 1106 2091 782 2419 
Q 459 2747 459 3303 
Q 459 4000 909 4375 
Q 1359 4750 2203 4750 
Q 2588 4750 2994 4692 
Q 3400 4634 3834 4519 
z
" transform="scale(0.015625)"/>
     </defs>
     <use xlink:href="#DejaVuSans-Bold-43"/>
     <use xlink:href="#DejaVuSans-Bold-48" transform="translate(73.388672 0)"/>
     <use xlink:href="#DejaVuSans-Bold-53" transform="translate(157.080078 0)"/>
    </g>
   </g>
   <g id="text_27">
    <!-- CHI -->
    <g style="fill: #ff9400" transform="translate(435.876343 89.506437) scale(0.05 -0.05)">
     <defs>
      <path id="DejaVuSans-Bold-49" d="M 588 4666 
L 1791 4666 
L 1791 0 
L 588 0 
L 588 4666 
z
" transform="scale(0.015625)"/>
     </defs>
     <use xlink:href="#DejaVuSans-Bold-43"/>
     <use xlink:href="#DejaVuSans-Bold-48" transform="translate(73.388672 0)"/>
     <use xlink:href="#DejaVuSans-Bold-49" transform="translate(157.080078 0)"/>
    </g>
   </g>
   <g id="text_28">
    <!-- F3H -->
    <g style="fill: #ff9400" transform="translate(435.193921 122.338437) scale(0.05 -0.05)">
     <defs>
      <path id="DejaVuSans-Bold-33" d="M 2981 2516 
Q 3453 2394 3698 2092 
Q 3944 1791 3944 1325 
Q 3944 631 3412 270 
Q 2881 -91 1863 -91 
Q 1503 -91 1142 -33 
Q 781 25 428 141 
L 428 1069 
Q 766 900 1098 814 
Q 1431 728 1753 728 
Q 2231 728 2486 893 
Q 2741 1059 2741 1369 
Q 2741 1688 2480 1852 
Q 2219 2016 1709 2016 
L 1228 2016 
L 1228 2791 
L 1734 2791 
Q 2188 2791 2409 2933 
Q 2631 3075 2631 3366 
Q 2631 3634 2415 3781 
Q 2200 3928 1806 3928 
Q 1516 3928 1219 3862 
Q 922 3797 628 3669 
L 628 4550 
Q 984 4650 1334 4700 
Q 1684 4750 2022 4750 
Q 2931 4750 3382 4451 
Q 3834 4153 3834 3553 
Q 3834 3144 3618 2883 
Q 3403 2622 2981 2516 
z
" transform="scale(0.015625)"/>
     </defs>
     <use xlink:href="#DejaVuSans-Bold-46"/>
     <use xlink:href="#DejaVuSans-Bold-33" transform="translate(68.310547 0)"/>
     <use xlink:href="#DejaVuSans-Bold-48" transform="translate(137.890625 0)"/>
    </g>
   </g>
   <g id="text_29">
    <!-- FLS -->
    <g style="fill: #ff9400" transform="translate(435.632202 155.170437) scale(0.05 -0.05)">
     <defs>
      <path id="DejaVuSans-Bold-4c" d="M 588 4666 
L 1791 4666 
L 1791 909 
L 3903 909 
L 3903 0 
L 588 0 
L 588 4666 
z
" transform="scale(0.015625)"/>
     </defs>
     <use xlink:href="#DejaVuSans-Bold-46"/>
     <use xlink:href="#DejaVuSans-Bold-4c" transform="translate(68.310547 0)"/>
     <use xlink:href="#DejaVuSans-Bold-53" transform="translate(132.03125 0)"/>
    </g>
   </g>
   <g id="text_30">
    <!-- FLS -->
    <g style="fill: #ff9400" transform="translate(435.632202 188.002437) scale(0.05 -0.05)">
     <use xlink:href="#DejaVuSans-Bold-46"/>
     <use xlink:href="#DejaVuSans-Bold-4c" transform="translate(68.310547 0)"/>
     <use xlink:href="#DejaVuSans-Bold-53" transform="translate(132.03125 0)"/>
    </g>
   </g>
   <g id="text_31">
    <!-- b  Flavonoid biosynthesis pathway -->
    <g style="fill: #262626" transform="translate(309.772744 7.51875) scale(0.08 -0.08)">
     <defs>
      <path id="DejaVuSans-Bold-62" d="M 2400 722 
Q 2759 722 2948 984 
Q 3138 1247 3138 1747 
Q 3138 2247 2948 2509 
Q 2759 2772 2400 2772 
Q 2041 2772 1848 2508 
Q 1656 2244 1656 1747 
Q 1656 1250 1848 986 
Q 2041 722 2400 722 
z
M 1656 2988 
Q 1888 3294 2169 3439 
Q 2450 3584 2816 3584 
Q 3463 3584 3878 3070 
Q 4294 2556 4294 1747 
Q 4294 938 3878 423 
Q 3463 -91 2816 -91 
Q 2450 -91 2169 54 
Q 1888 200 1656 506 
L 1656 0 
L 538 0 
L 538 4863 
L 1656 4863 
L 1656 2988 
z
" transform="scale(0.015625)"/>
      <path id="DejaVuSans-Bold-73" d="M 3272 3391 
L 3272 2541 
Q 2913 2691 2578 2766 
Q 2244 2841 1947 2841 
Q 1628 2841 1473 2761 
Q 1319 2681 1319 2516 
Q 1319 2381 1436 2309 
Q 1553 2238 1856 2203 
L 2053 2175 
Q 2913 2066 3209 1816 
Q 3506 1566 3506 1031 
Q 3506 472 3093 190 
Q 2681 -91 1863 -91 
Q 1516 -91 1145 -36 
Q 775 19 384 128 
L 384 978 
Q 719 816 1070 734 
Q 1422 653 1784 653 
Q 2113 653 2278 743 
Q 2444 834 2444 1013 
Q 2444 1163 2330 1236 
Q 2216 1309 1875 1350 
L 1678 1375 
Q 931 1469 631 1722 
Q 331 1975 331 2491 
Q 331 3047 712 3315 
Q 1094 3584 1881 3584 
Q 2191 3584 2531 3537 
Q 2872 3491 3272 3391 
z
" transform="scale(0.015625)"/>
     </defs>
     <use xlink:href="#DejaVuSans-Bold-62"/>
     <use xlink:href="#DejaVuSans-Bold-20" transform="translate(71.582031 0)"/>
     <use xlink:href="#DejaVuSans-Bold-20" transform="translate(106.396484 0)"/>
     <use xlink:href="#DejaVuSans-Bold-46" transform="translate(141.210938 0)"/>
     <use xlink:href="#DejaVuSans-Bold-6c" transform="translate(209.521484 0)"/>
     <use xlink:href="#DejaVuSans-Bold-61" transform="translate(243.798828 0)"/>
     <use xlink:href="#DejaVuSans-Bold-76" transform="translate(311.279297 0)"/>
     <use xlink:href="#DejaVuSans-Bold-6f" transform="translate(376.464844 0)"/>
     <use xlink:href="#DejaVuSans-Bold-6e" transform="translate(445.166016 0)"/>
     <use xlink:href="#DejaVuSans-Bold-6f" transform="translate(516.357422 0)"/>
     <use xlink:href="#DejaVuSans-Bold-69" transform="translate(585.058594 0)"/>
     <use xlink:href="#DejaVuSans-Bold-64" transform="translate(619.335938 0)"/>
     <use xlink:href="#DejaVuSans-Bold-20" transform="translate(690.917969 0)"/>
     <use xlink:href="#DejaVuSans-Bold-62" transform="translate(725.732422 0)"/>
     <use xlink:href="#DejaVuSans-Bold-69" transform="translate(797.314453 0)"/>
     <use xlink:href="#DejaVuSans-Bold-6f" transform="translate(831.591797 0)"/>
     <use xlink:href="#DejaVuSans-Bold-73" transform="translate(900.292969 0)"/>
     <use xlink:href="#DejaVuSans-Bold-79" transform="translate(959.814453 0)"/>
     <use xlink:href="#DejaVuSans-Bold-6e" transform="translate(1025 0)"/>
     <use xlink:href="#DejaVuSans-Bold-74" transform="translate(1096.191406 0)"/>
     <use xlink:href="#DejaVuSans-Bold-68" transform="translate(1143.994141 0)"/>
     <use xlink:href="#DejaVuSans-Bold-65" transform="translate(1215.185547 0)"/>
     <use xlink:href="#DejaVuSans-Bold-73" transform="translate(1283.007812 0)"/>
     <use xlink:href="#DejaVuSans-Bold-69" transform="translate(1342.529297 0)"/>
     <use xlink:href="#DejaVuSans-Bold-73" transform="translate(1376.806641 0)"/>
     <use xlink:href="#DejaVuSans-Bold-20" transform="translate(1436.328125 0)"/>
     <use xlink:href="#DejaVuSans-Bold-70" transform="translate(1471.142578 0)"/>
     <use xlink:href="#DejaVuSans-Bold-61" transform="translate(1542.724609 0)"/>
     <use xlink:href="#DejaVuSans-Bold-74" transform="translate(1610.205078 0)"/>
     <use xlink:href="#DejaVuSans-Bold-68" transform="translate(1658.007812 0)"/>
     <use xlink:href="#DejaVuSans-Bold-77" transform="translate(1729.199219 0)"/>
     <use xlink:href="#DejaVuSans-Bold-61" transform="translate(1821.582031 0)"/>
     <use xlink:href="#DejaVuSans-Bold-79" transform="translate(1885.9375 0)"/>
    </g>
   </g>
  </g>
 </g>
 <defs>
  <clipPath id="p33f179a45d">
   <rect x="47.851484" y="11.51875" width="187.086614" height="218.88"/>
  </clipPath>
  <clipPath id="pde829d871a">
   <rect x="309.772744" y="11.51875" width="187.086614" height="218.88"/>
  </clipPath>
 </defs>
 <defs>
  <pattern id="he3d29786b5" patternUnits="userSpaceOnUse" x="0" y="0" width="72" height="72">
   <rect x="0" y="0" width="73" height="73" fill="#75a025"/>
   <path d="M -36 36 
L 36 -36 
M -32 40 
L 40 -32 
M -28 44 
L 44 -28 
M -24 48 
L 48 -24 
M -20 52 
L 52 -20 
M -16 56 
L 56 -16 
M -12 60 
L 60 -12 
M -8 64 
L 64 -8 
M -4 68 
L 68 -4 
M 0 72 
L 72 0 
M 4 76 
L 76 4 
M 8 80 
L 80 8 
M 12 84 
L 84 12 
M 16 88 
L 88 16 
M 20 92 
L 92 20 
M 24 96 
L 96 24 
M 28 100 
L 100 28 
M 32 104 
L 104 32 
M 36 108 
L 108 36 
" style="fill: #ffffff; stroke: #ffffff; stroke-width: 1.0; stroke-linecap: butt; stroke-linejoin: miter; stroke-opacity: 0.5"/>
  </pattern>
  <pattern id="hf2dfabc264" patternUnits="userSpaceOnUse" x="0" y="0" width="72" height="72">
   <rect x="0" y="0" width="73" height="73" fill="#0279ee"/>
   <path d="M -36 36 
L 36 -36 
M -32 40 
L 40 -32 
M -28 44 
L 44 -28 
M -24 48 
L 48 -24 
M -20 52 
L 52 -20 
M -16 56 
L 56 -16 
M -12 60 
L 60 -12 
M -8 64 
L 64 -8 
M -4 68 
L 68 -4 
M 0 72 
L 72 0 
M 4 76 
L 76 4 
M 8 80 
L 80 8 
M 12 84 
L 84 12 
M 16 88 
L 88 16 
M 20 92 
L 92 20 
M 24 96 
L 96 24 
M 28 100 
L 100 28 
M 32 104 
L 104 32 
M 36 108 
L 108 36 
" style="fill: #ffffff; stroke: #ffffff; stroke-width: 1.0; stroke-linecap: butt; stroke-linejoin: miter; stroke-opacity: 0.5"/>
  </pattern>
 </defs>
</svg>
