<?xml version="1.0" encoding="utf-8" standalone="no"?>
<!DOCTYPE svg PUBLIC "-//W3C//DTD SVG 1.1//EN"
  "http://www.w3.org/Graphics/SVG/1.1/DTD/svg11.dtd">
<svg xmlns:xlink="http://www.w3.org/1999/xlink" width="465.555934pt" height="365.629739pt" viewBox="0 0 465.555934 365.629739" xmlns="http://www.w3.org/2000/svg" version="1.1">
 <metadata>
  <rdf:RDF xmlns:dc="http://purl.org/dc/elements/1.1/" xmlns:cc="http://creativecommons.org/ns#" xmlns:rdf="http://www.w3.org/1999/02/22-rdf-syntax-ns#">
   <cc:Work>
    <dc:type rdf:resource="http://purl.org/dc/dcmitype/StillImage"/>
    <dc:date>2022-01-01T05:00:00+00:00</dc:date>
    <dc:format>image/svg+xml</dc:format>
    <dc:creator>
     <cc:Agent>
      <dc:title>Matplotlib v3.10.9, https://matplotlib.org/</dc:title>
     </cc:Agent>
    </dc:creator>
   </cc:Work>
  </rdf:RDF>
 </metadata>
 <defs>
  <style type="text/css">*{stroke-linejoin: round; stroke-linecap: butt}</style>
 </defs>
 <g id="figure_1">
  <g id="patch_1">
   <path d="M 0 365.629739 
L 465.555934 365.629739 
L 465.555934 0 
L 0 0 
z
" style="fill: #ffffff"/>
  </g>
  <g id="axes_1">
   <g id="patch_2">
    <path d="M 48.244289 119.625576 
C 39.042724 108.947498 33.977631 95.310499 33.977631 81.21475 
C 33.977631 67.119001 39.042724 53.482002 48.244289 42.803924 
C 39.848567 45.133558 32.443815 50.152825 27.170421 57.08872 
C 21.897027 64.024615 19.040355 72.50181 19.040355 81.21475 
C 19.040355 89.92769 21.897027 98.404885 27.170421 105.34078 
C 32.443815 112.276675 39.848567 117.295942 48.244289 119.625576 
" clip-path="url(#pd9a51697b7)" style="fill: #ff9400; opacity: 0.6; stroke: #ff9400; stroke-width: 0.8; stroke-linejoin: miter"/>
   </g>
   <g id="patch_3">
    <path d="M 48.244289 42.803924 
C 54.164541 41.161181 60.38521 40.909193 66.418936 42.067704 
C 72.452662 43.226215 78.137648 45.764158 83.028502 49.482698 
C 87.919357 53.201238 91.88493 58.000661 94.614537 63.504954 
C 97.344144 69.009246 98.76459 75.07081 98.76459 81.21475 
C 98.76459 87.35869 97.344144 93.420254 94.614537 98.924546 
C 91.88493 104.428839 87.919357 109.228262 83.028502 112.946802 
C 78.137648 116.665342 72.452662 119.203285 66.418936 120.361796 
C 60.38521 121.520307 54.164541 121.268319 48.244289 119.625576 
C 52.141378 124.148004 56.704124 128.051122 61.775603 131.20069 
C 66.847081 134.350257 72.368475 136.709747 78.149888 138.198011 
C 83.9313 139.686275 89.905684 140.286052 95.86756 139.976714 
C 101.829437 139.667376 107.709666 138.452511 113.306008 136.373902 
C 118.902351 134.295293 124.149904 131.377045 128.86819 127.719527 
C 133.586476 124.062008 137.720775 119.707636 141.128896 114.806169 
C 144.537017 109.904703 147.179436 104.512986 148.965272 98.816456 
C 150.751107 93.119926 151.659649 87.184646 151.659649 81.21475 
C 151.659649 75.244854 150.751107 69.309574 148.965272 63.613044 
C 147.179436 57.916514 144.537017 52.524797 141.128896 47.623331 
C 137.720775 42.721864 133.586476 38.367492 128.86819 34.709973 
C 124.149904 31.052455 118.902351 28.134207 113.306008 26.055598 
C 107.709666 23.976989 101.829437 22.762124 95.86756 22.452786 
C 89.905684 22.143448 83.9313 22.743225 78.149888 24.231489 
C 72.368475 25.719753 66.847081 28.079243 61.775603 31.22881 
C 56.704124 34.378378 52.141378 38.281496 48.244289 42.803924 
" clip-path="url(#pd9a51697b7)" style="fill: #fd9bed; opacity: 0.6; stroke: #fd9bed; stroke-width: 0.8; stroke-linejoin: miter"/>
   </g>
   <g id="patch_4">
    <path d="M 48.244289 119.625576 
C 54.164541 121.268319 60.38521 121.520307 66.418936 120.361796 
C 72.452662 119.203285 78.137648 116.665342 83.028502 112.946802 
C 87.919357 109.228262 91.88493 104.428839 94.614537 98.924546 
C 97.344144 93.420254 98.76459 87.35869 98.76459 81.21475 
C 98.76459 75.07081 97.344144 69.009246 94.614537 63.504954 
C 91.88493 58.000661 87.919357 53.201238 83.028502 49.482698 
C 78.137648 45.764158 72.452662 43.226215 66.418936 42.067704 
C 60.38521 40.909193 54.164541 41.161181 48.244289 42.803924 
C 39.042724 53.482002 33.977631 67.119001 33.977631 81.21475 
C 33.977631 95.310499 39.042724 108.947498 48.244289 119.625576 
" clip-path="url(#pd9a51697b7)" style="fill: #e9ed4c; opacity: 0.6; stroke: #e9ed4c; stroke-width: 0.8; stroke-linejoin: miter"/>
   </g>
   <g id="text_1">
    <!-- 420 -->
    <g style="fill: #262626" transform="translate(17.346993 83.86375) scale(0.096 -0.096)">
     <defs>
      <path id="DejaVuSans-34" d="M 2419 4116 
L 825 1625 
L 2419 1625 
L 2419 4116 
z
M 2253 4666 
L 3047 4666 
L 3047 1625 
L 3713 1625 
L 3713 1100 
L 3047 1100 
L 3047 0 
L 2419 0 
L 2419 1100 
L 313 1100 
L 313 1709 
L 2253 4666 
z
" transform="scale(0.015625)"/>
      <path id="DejaVuSans-32" d="M 1228 531 
L 3431 531 
L 3431 0 
L 469 0 
L 469 531 
Q 828 903 1448 1529 
Q 2069 2156 2228 2338 
Q 2531 2678 2651 2914 
Q 2772 3150 2772 3378 
Q 2772 3750 2511 3984 
Q 2250 4219 1831 4219 
Q 1534 4219 1204 4116 
Q 875 4013 500 3803 
L 500 4441 
Q 881 4594 1212 4672 
Q 1544 4750 1819 4750 
Q 2544 4750 2975 4387 
Q 3406 4025 3406 3419 
Q 3406 3131 3298 2873 
Q 3191 2616 2906 2266 
Q 2828 2175 2409 1742 
Q 1991 1309 1228 531 
z
" transform="scale(0.015625)"/>
      <path id="DejaVuSans-30" d="M 2034 4250 
Q 1547 4250 1301 3770 
Q 1056 3291 1056 2328 
Q 1056 1369 1301 889 
Q 1547 409 2034 409 
Q 2525 409 2770 889 
Q 3016 1369 3016 2328 
Q 3016 3291 2770 3770 
Q 2525 4250 2034 4250 
z
M 2034 4750 
Q 2819 4750 3233 4129 
Q 3647 3509 3647 2328 
Q 3647 1150 3233 529 
Q 2819 -91 2034 -91 
Q 1250 -91 836 529 
Q 422 1150 422 2328 
Q 422 3509 836 4129 
Q 1250 4750 2034 4750 
z
" transform="scale(0.015625)"/>
     </defs>
     <use xlink:href="#DejaVuSans-34"/>
     <use xlink:href="#DejaVuSans-32" transform="translate(63.623047 0)"/>
     <use xlink:href="#DejaVuSans-30" transform="translate(127.246094 0)"/>
    </g>
   </g>
   <g id="text_2">
    <!-- 3148 -->
    <g style="fill: #262626" transform="translate(112.996119 83.86375) scale(0.096 -0.096)">
     <defs>
      <path id="DejaVuSans-33" d="M 2597 2516 
Q 3050 2419 3304 2112 
Q 3559 1806 3559 1356 
Q 3559 666 3084 287 
Q 2609 -91 1734 -91 
Q 1441 -91 1130 -33 
Q 819 25 488 141 
L 488 750 
Q 750 597 1062 519 
Q 1375 441 1716 441 
Q 2309 441 2620 675 
Q 2931 909 2931 1356 
Q 2931 1769 2642 2001 
Q 2353 2234 1838 2234 
L 1294 2234 
L 1294 2753 
L 1863 2753 
Q 2328 2753 2575 2939 
Q 2822 3125 2822 3475 
Q 2822 3834 2567 4026 
Q 2313 4219 1838 4219 
Q 1578 4219 1281 4162 
Q 984 4106 628 3988 
L 628 4550 
Q 988 4650 1302 4700 
Q 1616 4750 1894 4750 
Q 2613 4750 3031 4423 
Q 3450 4097 3450 3541 
Q 3450 3153 3228 2886 
Q 3006 2619 2597 2516 
z
" transform="scale(0.015625)"/>
      <path id="DejaVuSans-31" d="M 794 531 
L 1825 531 
L 1825 4091 
L 703 3866 
L 703 4441 
L 1819 4666 
L 2450 4666 
L 2450 531 
L 3481 531 
L 3481 0 
L 794 0 
L 794 531 
z
" transform="scale(0.015625)"/>
      <path id="DejaVuSans-38" d="M 2034 2216 
Q 1584 2216 1326 1975 
Q 1069 1734 1069 1313 
Q 1069 891 1326 650 
Q 1584 409 2034 409 
Q 2484 409 2743 651 
Q 3003 894 3003 1313 
Q 3003 1734 2745 1975 
Q 2488 2216 2034 2216 
z
M 1403 2484 
Q 997 2584 770 2862 
Q 544 3141 544 3541 
Q 544 4100 942 4425 
Q 1341 4750 2034 4750 
Q 2731 4750 3128 4425 
Q 3525 4100 3525 3541 
Q 3525 3141 3298 2862 
Q 3072 2584 2669 2484 
Q 3125 2378 3379 2068 
Q 3634 1759 3634 1313 
Q 3634 634 3220 271 
Q 2806 -91 2034 -91 
Q 1263 -91 848 271 
Q 434 634 434 1313 
Q 434 1759 690 2068 
Q 947 2378 1403 2484 
z
M 1172 3481 
Q 1172 3119 1398 2916 
Q 1625 2713 2034 2713 
Q 2441 2713 2670 2916 
Q 2900 3119 2900 3481 
Q 2900 3844 2670 4047 
Q 2441 4250 2034 4250 
Q 1625 4250 1398 4047 
Q 1172 3844 1172 3481 
z
" transform="scale(0.015625)"/>
     </defs>
     <use xlink:href="#DejaVuSans-33"/>
     <use xlink:href="#DejaVuSans-31" transform="translate(63.623047 0)"/>
     <use xlink:href="#DejaVuSans-34" transform="translate(127.246094 0)"/>
     <use xlink:href="#DejaVuSans-38" transform="translate(190.869141 0)"/>
    </g>
   </g>
   <g id="text_3">
    <!-- 1894 -->
    <g style="fill: #262626" transform="translate(54.155111 83.86375) scale(0.096 -0.096)">
     <defs>
      <path id="DejaVuSans-39" d="M 703 97 
L 703 672 
Q 941 559 1184 500 
Q 1428 441 1663 441 
Q 2288 441 2617 861 
Q 2947 1281 2994 2138 
Q 2813 1869 2534 1725 
Q 2256 1581 1919 1581 
Q 1219 1581 811 2004 
Q 403 2428 403 3163 
Q 403 3881 828 4315 
Q 1253 4750 1959 4750 
Q 2769 4750 3195 4129 
Q 3622 3509 3622 2328 
Q 3622 1225 3098 567 
Q 2575 -91 1691 -91 
Q 1453 -91 1209 -44 
Q 966 3 703 97 
z
M 1959 2075 
Q 2384 2075 2632 2365 
Q 2881 2656 2881 3163 
Q 2881 3666 2632 3958 
Q 2384 4250 1959 4250 
Q 1534 4250 1286 3958 
Q 1038 3666 1038 3163 
Q 1038 2656 1286 2365 
Q 1534 2075 1959 2075 
z
" transform="scale(0.015625)"/>
     </defs>
     <use xlink:href="#DejaVuSans-31"/>
     <use xlink:href="#DejaVuSans-38" transform="translate(63.623047 0)"/>
     <use xlink:href="#DejaVuSans-39" transform="translate(127.246094 0)"/>
     <use xlink:href="#DejaVuSans-34" transform="translate(190.869141 0)"/>
    </g>
   </g>
   <g id="text_4">
    <!-- Light -->
    <g style="fill: #262626" transform="translate(30.152872 134.765424) scale(0.1152 -0.1152)">
     <defs>
      <path id="DejaVuSans-4c" d="M 628 4666 
L 1259 4666 
L 1259 531 
L 3531 531 
L 3531 0 
L 628 0 
L 628 4666 
z
" transform="scale(0.015625)"/>
      <path id="DejaVuSans-69" d="M 603 3500 
L 1178 3500 
L 1178 0 
L 603 0 
L 603 3500 
z
M 603 4863 
L 1178 4863 
L 1178 4134 
L 603 4134 
L 603 4863 
z
" transform="scale(0.015625)"/>
      <path id="DejaVuSans-67" d="M 2906 1791 
Q 2906 2416 2648 2759 
Q 2391 3103 1925 3103 
Q 1463 3103 1205 2759 
Q 947 2416 947 1791 
Q 947 1169 1205 825 
Q 1463 481 1925 481 
Q 2391 481 2648 825 
Q 2906 1169 2906 1791 
z
M 3481 434 
Q 3481 -459 3084 -895 
Q 2688 -1331 1869 -1331 
Q 1566 -1331 1297 -1286 
Q 1028 -1241 775 -1147 
L 775 -588 
Q 1028 -725 1275 -790 
Q 1522 -856 1778 -856 
Q 2344 -856 2625 -561 
Q 2906 -266 2906 331 
L 2906 616 
Q 2728 306 2450 153 
Q 2172 0 1784 0 
Q 1141 0 747 490 
Q 353 981 353 1791 
Q 353 2603 747 3093 
Q 1141 3584 1784 3584 
Q 2172 3584 2450 3431 
Q 2728 3278 2906 2969 
L 2906 3500 
L 3481 3500 
L 3481 434 
z
" transform="scale(0.015625)"/>
      <path id="DejaVuSans-68" d="M 3513 2113 
L 3513 0 
L 2938 0 
L 2938 2094 
Q 2938 2591 2744 2837 
Q 2550 3084 2163 3084 
Q 1697 3084 1428 2787 
Q 1159 2491 1159 1978 
L 1159 0 
L 581 0 
L 581 4863 
L 1159 4863 
L 1159 2956 
Q 1366 3272 1645 3428 
Q 1925 3584 2291 3584 
Q 2894 3584 3203 3211 
Q 3513 2838 3513 2113 
z
" transform="scale(0.015625)"/>
      <path id="DejaVuSans-74" d="M 1172 4494 
L 1172 3500 
L 2356 3500 
L 2356 3053 
L 1172 3053 
L 1172 1153 
Q 1172 725 1289 603 
Q 1406 481 1766 481 
L 2356 481 
L 2356 0 
L 1766 0 
Q 1100 0 847 248 
Q 594 497 594 1153 
L 594 3053 
L 172 3053 
L 172 3500 
L 594 3500 
L 594 4494 
L 1172 4494 
z
" transform="scale(0.015625)"/>
     </defs>
     <use xlink:href="#DejaVuSans-4c"/>
     <use xlink:href="#DejaVuSans-69" transform="translate(55.712891 0)"/>
     <use xlink:href="#DejaVuSans-67" transform="translate(83.496094 0)"/>
     <use xlink:href="#DejaVuSans-68" transform="translate(146.972656 0)"/>
     <use xlink:href="#DejaVuSans-74" transform="translate(210.351562 0)"/>
    </g>
   </g>
   <g id="text_5">
    <!-- Interaction -->
    <g style="fill: #262626" transform="translate(92.81864 153.744315) scale(0.1152 -0.1152)">
     <defs>
      <path id="DejaVuSans-49" d="M 628 4666 
L 1259 4666 
L 1259 0 
L 628 0 
L 628 4666 
z
" transform="scale(0.015625)"/>
      <path id="DejaVuSans-6e" d="M 3513 2113 
L 3513 0 
L 2938 0 
L 2938 2094 
Q 2938 2591 2744 2837 
Q 2550 3084 2163 3084 
Q 1697 3084 1428 2787 
Q 1159 2491 1159 1978 
L 1159 0 
L 581 0 
L 581 3500 
L 1159 3500 
L 1159 2956 
Q 1366 3272 1645 3428 
Q 1925 3584 2291 3584 
Q 2894 3584 3203 3211 
Q 3513 2838 3513 2113 
z
" transform="scale(0.015625)"/>
      <path id="DejaVuSans-65" d="M 3597 1894 
L 3597 1613 
L 953 1613 
Q 991 1019 1311 708 
Q 1631 397 2203 397 
Q 2534 397 2845 478 
Q 3156 559 3463 722 
L 3463 178 
Q 3153 47 2828 -22 
Q 2503 -91 2169 -91 
Q 1331 -91 842 396 
Q 353 884 353 1716 
Q 353 2575 817 3079 
Q 1281 3584 2069 3584 
Q 2775 3584 3186 3129 
Q 3597 2675 3597 1894 
z
M 3022 2063 
Q 3016 2534 2758 2815 
Q 2500 3097 2075 3097 
Q 1594 3097 1305 2825 
Q 1016 2553 972 2059 
L 3022 2063 
z
" transform="scale(0.015625)"/>
      <path id="DejaVuSans-72" d="M 2631 2963 
Q 2534 3019 2420 3045 
Q 2306 3072 2169 3072 
Q 1681 3072 1420 2755 
Q 1159 2438 1159 1844 
L 1159 0 
L 581 0 
L 581 3500 
L 1159 3500 
L 1159 2956 
Q 1341 3275 1631 3429 
Q 1922 3584 2338 3584 
Q 2397 3584 2469 3576 
Q 2541 3569 2628 3553 
L 2631 2963 
z
" transform="scale(0.015625)"/>
      <path id="DejaVuSans-61" d="M 2194 1759 
Q 1497 1759 1228 1600 
Q 959 1441 959 1056 
Q 959 750 1161 570 
Q 1363 391 1709 391 
Q 2188 391 2477 730 
Q 2766 1069 2766 1631 
L 2766 1759 
L 2194 1759 
z
M 3341 1997 
L 3341 0 
L 2766 0 
L 2766 531 
Q 2569 213 2275 61 
Q 1981 -91 1556 -91 
Q 1019 -91 701 211 
Q 384 513 384 1019 
Q 384 1609 779 1909 
Q 1175 2209 1959 2209 
L 2766 2209 
L 2766 2266 
Q 2766 2663 2505 2880 
Q 2244 3097 1772 3097 
Q 1472 3097 1187 3025 
Q 903 2953 641 2809 
L 641 3341 
Q 956 3463 1253 3523 
Q 1550 3584 1831 3584 
Q 2591 3584 2966 3190 
Q 3341 2797 3341 1997 
z
" transform="scale(0.015625)"/>
      <path id="DejaVuSans-63" d="M 3122 3366 
L 3122 2828 
Q 2878 2963 2633 3030 
Q 2388 3097 2138 3097 
Q 1578 3097 1268 2742 
Q 959 2388 959 1747 
Q 959 1106 1268 751 
Q 1578 397 2138 397 
Q 2388 397 2633 464 
Q 2878 531 3122 666 
L 3122 134 
Q 2881 22 2623 -34 
Q 2366 -91 2075 -91 
Q 1284 -91 818 406 
Q 353 903 353 1747 
Q 353 2603 823 3093 
Q 1294 3584 2113 3584 
Q 2378 3584 2631 3529 
Q 2884 3475 3122 3366 
z
" transform="scale(0.015625)"/>
      <path id="DejaVuSans-6f" d="M 1959 3097 
Q 1497 3097 1228 2736 
Q 959 2375 959 1747 
Q 959 1119 1226 758 
Q 1494 397 1959 397 
Q 2419 397 2687 759 
Q 2956 1122 2956 1747 
Q 2956 2369 2687 2733 
Q 2419 3097 1959 3097 
z
M 1959 3584 
Q 2709 3584 3137 3096 
Q 3566 2609 3566 1747 
Q 3566 888 3137 398 
Q 2709 -91 1959 -91 
Q 1206 -91 779 398 
Q 353 888 353 1747 
Q 353 2609 779 3096 
Q 1206 3584 1959 3584 
z
" transform="scale(0.015625)"/>
     </defs>
     <use xlink:href="#DejaVuSans-49"/>
     <use xlink:href="#DejaVuSans-6e" transform="translate(29.492188 0)"/>
     <use xlink:href="#DejaVuSans-74" transform="translate(92.871094 0)"/>
     <use xlink:href="#DejaVuSans-65" transform="translate(132.080078 0)"/>
     <use xlink:href="#DejaVuSans-72" transform="translate(193.603516 0)"/>
     <use xlink:href="#DejaVuSans-61" transform="translate(234.716797 0)"/>
     <use xlink:href="#DejaVuSans-63" transform="translate(295.996094 0)"/>
     <use xlink:href="#DejaVuSans-74" transform="translate(350.976562 0)"/>
     <use xlink:href="#DejaVuSans-69" transform="translate(390.185547 0)"/>
     <use xlink:href="#DejaVuSans-6f" transform="translate(417.96875 0)"/>
     <use xlink:href="#DejaVuSans-6e" transform="translate(479.150391 0)"/>
    </g>
   </g>
   <g id="text_6">
    <!-- a  Leaf: Light vs Interaction -->
    <g style="fill: #262626" transform="translate(8.185364 7.51875) scale(0.08 -0.08)">
     <defs>
      <path id="DejaVuSans-Bold-61" d="M 2106 1575 
Q 1756 1575 1579 1456 
Q 1403 1338 1403 1106 
Q 1403 894 1545 773 
Q 1688 653 1941 653 
Q 2256 653 2472 879 
Q 2688 1106 2688 1447 
L 2688 1575 
L 2106 1575 
z
M 3816 1997 
L 3816 0 
L 2688 0 
L 2688 519 
Q 2463 200 2181 54 
Q 1900 -91 1497 -91 
Q 953 -91 614 226 
Q 275 544 275 1050 
Q 275 1666 698 1953 
Q 1122 2241 2028 2241 
L 2688 2241 
L 2688 2328 
Q 2688 2594 2478 2717 
Q 2269 2841 1825 2841 
Q 1466 2841 1156 2769 
Q 847 2697 581 2553 
L 581 3406 
Q 941 3494 1303 3539 
Q 1666 3584 2028 3584 
Q 2975 3584 3395 3211 
Q 3816 2838 3816 1997 
z
" transform="scale(0.015625)"/>
      <path id="DejaVuSans-Bold-20" transform="scale(0.015625)"/>
      <path id="DejaVuSans-Bold-4c" d="M 588 4666 
L 1791 4666 
L 1791 909 
L 3903 909 
L 3903 0 
L 588 0 
L 588 4666 
z
" transform="scale(0.015625)"/>
      <path id="DejaVuSans-Bold-65" d="M 4031 1759 
L 4031 1441 
L 1416 1441 
Q 1456 1047 1700 850 
Q 1944 653 2381 653 
Q 2734 653 3104 758 
Q 3475 863 3866 1075 
L 3866 213 
Q 3469 63 3072 -14 
Q 2675 -91 2278 -91 
Q 1328 -91 801 392 
Q 275 875 275 1747 
Q 275 2603 792 3093 
Q 1309 3584 2216 3584 
Q 3041 3584 3536 3087 
Q 4031 2591 4031 1759 
z
M 2881 2131 
Q 2881 2450 2695 2645 
Q 2509 2841 2209 2841 
Q 1884 2841 1681 2658 
Q 1478 2475 1428 2131 
L 2881 2131 
z
" transform="scale(0.015625)"/>
      <path id="DejaVuSans-Bold-66" d="M 2841 4863 
L 2841 4128 
L 2222 4128 
Q 1984 4128 1890 4042 
Q 1797 3956 1797 3744 
L 1797 3500 
L 2753 3500 
L 2753 2700 
L 1797 2700 
L 1797 0 
L 678 0 
L 678 2700 
L 122 2700 
L 122 3500 
L 678 3500 
L 678 3744 
Q 678 4316 997 4589 
Q 1316 4863 1984 4863 
L 2841 4863 
z
" transform="scale(0.015625)"/>
      <path id="DejaVuSans-Bold-3a" d="M 716 3500 
L 1844 3500 
L 1844 2291 
L 716 2291 
L 716 3500 
z
M 716 1209 
L 1844 1209 
L 1844 0 
L 716 0 
L 716 1209 
z
" transform="scale(0.015625)"/>
      <path id="DejaVuSans-Bold-69" d="M 538 3500 
L 1656 3500 
L 1656 0 
L 538 0 
L 538 3500 
z
M 538 4863 
L 1656 4863 
L 1656 3950 
L 538 3950 
L 538 4863 
z
" transform="scale(0.015625)"/>
      <path id="DejaVuSans-Bold-67" d="M 2919 594 
Q 2688 288 2409 144 
Q 2131 0 1766 0 
Q 1125 0 706 504 
Q 288 1009 288 1791 
Q 288 2575 706 3076 
Q 1125 3578 1766 3578 
Q 2131 3578 2409 3434 
Q 2688 3291 2919 2981 
L 2919 3500 
L 4044 3500 
L 4044 353 
Q 4044 -491 3511 -936 
Q 2978 -1381 1966 -1381 
Q 1638 -1381 1331 -1331 
Q 1025 -1281 716 -1178 
L 716 -306 
Q 1009 -475 1290 -558 
Q 1572 -641 1856 -641 
Q 2406 -641 2662 -400 
Q 2919 -159 2919 353 
L 2919 594 
z
M 2181 2772 
Q 1834 2772 1640 2515 
Q 1447 2259 1447 1791 
Q 1447 1309 1634 1061 
Q 1822 813 2181 813 
Q 2531 813 2725 1069 
Q 2919 1325 2919 1791 
Q 2919 2259 2725 2515 
Q 2531 2772 2181 2772 
z
" transform="scale(0.015625)"/>
      <path id="DejaVuSans-Bold-68" d="M 4056 2131 
L 4056 0 
L 2931 0 
L 2931 347 
L 2931 1625 
Q 2931 2084 2911 2256 
Q 2891 2428 2841 2509 
Q 2775 2619 2662 2680 
Q 2550 2741 2406 2741 
Q 2056 2741 1856 2470 
Q 1656 2200 1656 1722 
L 1656 0 
L 538 0 
L 538 4863 
L 1656 4863 
L 1656 2988 
Q 1909 3294 2193 3439 
Q 2478 3584 2822 3584 
Q 3428 3584 3742 3212 
Q 4056 2841 4056 2131 
z
" transform="scale(0.015625)"/>
      <path id="DejaVuSans-Bold-74" d="M 1759 4494 
L 1759 3500 
L 2913 3500 
L 2913 2700 
L 1759 2700 
L 1759 1216 
Q 1759 972 1856 886 
Q 1953 800 2241 800 
L 2816 800 
L 2816 0 
L 1856 0 
Q 1194 0 917 276 
Q 641 553 641 1216 
L 641 2700 
L 84 2700 
L 84 3500 
L 641 3500 
L 641 4494 
L 1759 4494 
z
" transform="scale(0.015625)"/>
      <path id="DejaVuSans-Bold-76" d="M 97 3500 
L 1216 3500 
L 2088 1081 
L 2956 3500 
L 4078 3500 
L 2700 0 
L 1472 0 
L 97 3500 
z
" transform="scale(0.015625)"/>
      <path id="DejaVuSans-Bold-73" d="M 3272 3391 
L 3272 2541 
Q 2913 2691 2578 2766 
Q 2244 2841 1947 2841 
Q 1628 2841 1473 2761 
Q 1319 2681 1319 2516 
Q 1319 2381 1436 2309 
Q 1553 2238 1856 2203 
L 2053 2175 
Q 2913 2066 3209 1816 
Q 3506 1566 3506 1031 
Q 3506 472 3093 190 
Q 2681 -91 1863 -91 
Q 1516 -91 1145 -36 
Q 775 19 384 128 
L 384 978 
Q 719 816 1070 734 
Q 1422 653 1784 653 
Q 2113 653 2278 743 
Q 2444 834 2444 1013 
Q 2444 1163 2330 1236 
Q 2216 1309 1875 1350 
L 1678 1375 
Q 931 1469 631 1722 
Q 331 1975 331 2491 
Q 331 3047 712 3315 
Q 1094 3584 1881 3584 
Q 2191 3584 2531 3537 
Q 2872 3491 3272 3391 
z
" transform="scale(0.015625)"/>
      <path id="DejaVuSans-Bold-49" d="M 588 4666 
L 1791 4666 
L 1791 0 
L 588 0 
L 588 4666 
z
" transform="scale(0.015625)"/>
      <path id="DejaVuSans-Bold-6e" d="M 4056 2131 
L 4056 0 
L 2931 0 
L 2931 347 
L 2931 1631 
Q 2931 2084 2911 2256 
Q 2891 2428 2841 2509 
Q 2775 2619 2662 2680 
Q 2550 2741 2406 2741 
Q 2056 2741 1856 2470 
Q 1656 2200 1656 1722 
L 1656 0 
L 538 0 
L 538 3500 
L 1656 3500 
L 1656 2988 
Q 1909 3294 2193 3439 
Q 2478 3584 2822 3584 
Q 3428 3584 3742 3212 
Q 4056 2841 4056 2131 
z
" transform="scale(0.015625)"/>
      <path id="DejaVuSans-Bold-72" d="M 3138 2547 
Q 2991 2616 2845 2648 
Q 2700 2681 2553 2681 
Q 2122 2681 1889 2404 
Q 1656 2128 1656 1613 
L 1656 0 
L 538 0 
L 538 3500 
L 1656 3500 
L 1656 2925 
Q 1872 3269 2151 3426 
Q 2431 3584 2822 3584 
Q 2878 3584 2943 3579 
Q 3009 3575 3134 3559 
L 3138 2547 
z
" transform="scale(0.015625)"/>
      <path id="DejaVuSans-Bold-63" d="M 3366 3391 
L 3366 2478 
Q 3138 2634 2908 2709 
Q 2678 2784 2431 2784 
Q 1963 2784 1702 2511 
Q 1441 2238 1441 1747 
Q 1441 1256 1702 982 
Q 1963 709 2431 709 
Q 2694 709 2930 787 
Q 3166 866 3366 1019 
L 3366 103 
Q 3103 6 2833 -42 
Q 2563 -91 2291 -91 
Q 1344 -91 809 395 
Q 275 881 275 1747 
Q 275 2613 809 3098 
Q 1344 3584 2291 3584 
Q 2566 3584 2833 3536 
Q 3100 3488 3366 3391 
z
" transform="scale(0.015625)"/>
      <path id="DejaVuSans-Bold-6f" d="M 2203 2784 
Q 1831 2784 1636 2517 
Q 1441 2250 1441 1747 
Q 1441 1244 1636 976 
Q 1831 709 2203 709 
Q 2569 709 2762 976 
Q 2956 1244 2956 1747 
Q 2956 2250 2762 2517 
Q 2569 2784 2203 2784 
z
M 2203 3584 
Q 3106 3584 3614 3096 
Q 4122 2609 4122 1747 
Q 4122 884 3614 396 
Q 3106 -91 2203 -91 
Q 1297 -91 786 396 
Q 275 884 275 1747 
Q 275 2609 786 3096 
Q 1297 3584 2203 3584 
z
" transform="scale(0.015625)"/>
     </defs>
     <use xlink:href="#DejaVuSans-Bold-61"/>
     <use xlink:href="#DejaVuSans-Bold-20" transform="translate(67.480469 0)"/>
     <use xlink:href="#DejaVuSans-Bold-20" transform="translate(102.294922 0)"/>
     <use xlink:href="#DejaVuSans-Bold-4c" transform="translate(137.109375 0)"/>
     <use xlink:href="#DejaVuSans-Bold-65" transform="translate(200.830078 0)"/>
     <use xlink:href="#DejaVuSans-Bold-61" transform="translate(268.652344 0)"/>
     <use xlink:href="#DejaVuSans-Bold-66" transform="translate(336.132812 0)"/>
     <use xlink:href="#DejaVuSans-Bold-3a" transform="translate(379.638672 0)"/>
     <use xlink:href="#DejaVuSans-Bold-20" transform="translate(419.628906 0)"/>
     <use xlink:href="#DejaVuSans-Bold-4c" transform="translate(454.443359 0)"/>
     <use xlink:href="#DejaVuSans-Bold-69" transform="translate(518.164062 0)"/>
     <use xlink:href="#DejaVuSans-Bold-67" transform="translate(552.441406 0)"/>
     <use xlink:href="#DejaVuSans-Bold-68" transform="translate(624.023438 0)"/>
     <use xlink:href="#DejaVuSans-Bold-74" transform="translate(695.214844 0)"/>
     <use xlink:href="#DejaVuSans-Bold-20" transform="translate(743.017578 0)"/>
     <use xlink:href="#DejaVuSans-Bold-76" transform="translate(777.832031 0)"/>
     <use xlink:href="#DejaVuSans-Bold-73" transform="translate(843.017578 0)"/>
     <use xlink:href="#DejaVuSans-Bold-20" transform="translate(902.539062 0)"/>
     <use xlink:href="#DejaVuSans-Bold-49" transform="translate(937.353516 0)"/>
     <use xlink:href="#DejaVuSans-Bold-6e" transform="translate(974.560547 0)"/>
     <use xlink:href="#DejaVuSans-Bold-74" transform="translate(1045.751953 0)"/>
     <use xlink:href="#DejaVuSans-Bold-65" transform="translate(1093.554688 0)"/>
     <use xlink:href="#DejaVuSans-Bold-72" transform="translate(1161.376953 0)"/>
     <use xlink:href="#DejaVuSans-Bold-61" transform="translate(1210.693359 0)"/>
     <use xlink:href="#DejaVuSans-Bold-63" transform="translate(1278.173828 0)"/>
     <use xlink:href="#DejaVuSans-Bold-74" transform="translate(1337.451172 0)"/>
     <use xlink:href="#DejaVuSans-Bold-69" transform="translate(1385.253906 0)"/>
     <use xlink:href="#DejaVuSans-Bold-6f" transform="translate(1419.53125 0)"/>
     <use xlink:href="#DejaVuSans-Bold-6e" transform="translate(1488.232422 0)"/>
    </g>
   </g>
  </g>
  <g id="axes_2">
   <g id="patch_5">
    <path d="M 393.303588 104.100631 
C 388.605042 102.393997 384.544128 99.281129 381.675535 95.187218 
C 378.806942 91.093307 377.267508 86.213643 377.267508 81.21475 
C 377.267508 76.215857 378.806942 71.336193 381.675535 67.242282 
C 384.544128 63.148371 388.605042 60.035503 393.303588 58.328869 
C 390.683146 52.135643 387.018375 46.438236 382.469365 41.485533 
C 377.920355 36.53283 372.554324 32.398013 366.605682 29.261707 
C 360.657039 26.125401 354.213684 24.03395 347.557087 23.078715 
C 340.90049 22.12348 334.129011 22.318577 327.538453 23.655483 
C 320.947896 24.99239 314.635646 27.45135 308.877445 30.924949 
C 303.119244 34.398547 298.000179 38.835456 293.743869 44.041855 
C 289.487559 49.248253 286.156897 55.147209 283.897379 61.481035 
C 281.637862 67.81486 280.482876 74.489963 280.482876 81.21475 
C 280.482876 87.939537 281.637862 94.61464 283.897379 100.948465 
C 286.156897 107.282291 289.487559 113.181247 293.743869 118.387645 
C 298.000179 123.594044 303.119244 128.030953 308.877445 131.504551 
C 314.635646 134.97815 320.947896 137.43711 327.538453 138.774017 
C 334.129011 140.110923 340.90049 140.30602 347.557087 139.350785 
C 354.213684 138.39555 360.657039 136.304099 366.605682 133.167793 
C 372.554324 130.031487 377.920355 125.89667 382.469365 120.943967 
C 387.018375 115.991264 390.683146 110.293857 393.303588 104.100631 
" clip-path="url(#pb40e7cd1fc)" style="fill: #ff9400; opacity: 0.6; stroke: #ff9400; stroke-width: 0.8; stroke-linejoin: miter"/>
   </g>
   <g id="patch_6">
    <path d="M 393.303588 58.328869 
C 396.367272 65.569665 397.946029 73.35248 397.946029 81.21475 
C 397.946029 89.07702 396.367272 96.859835 393.303588 104.100631 
C 396.981276 105.436463 400.927343 105.866331 404.806395 105.353698 
C 408.685447 104.841065 412.384379 103.40088 415.588801 101.155549 
C 418.793224 98.910218 421.409704 95.92521 423.215853 92.454237 
C 425.022003 88.983263 425.965159 85.127528 425.965159 81.21475 
C 425.965159 77.301972 425.022003 73.446237 423.215853 69.975263 
C 421.409704 66.50429 418.793224 63.519282 415.588801 61.273951 
C 412.384379 59.02862 408.685447 57.588435 404.806395 57.075802 
C 400.927343 56.563169 396.981276 56.993037 393.303588 58.328869 
" clip-path="url(#pb40e7cd1fc)" style="fill: #fd9bed; opacity: 0.6; stroke: #fd9bed; stroke-width: 0.8; stroke-linejoin: miter"/>
   </g>
   <g id="patch_7">
    <path d="M 393.303588 104.100631 
C 396.367272 96.859835 397.946029 89.07702 397.946029 81.21475 
C 397.946029 73.35248 396.367272 65.569665 393.303588 58.328869 
C 388.605042 60.035503 384.544128 63.148371 381.675535 67.242282 
C 378.806942 71.336193 377.267508 76.215857 377.267508 81.21475 
C 377.267508 86.213643 378.806942 91.093307 381.675535 95.187218 
C 384.544128 99.281129 388.605042 102.393997 393.303588 104.100631 
" clip-path="url(#pb40e7cd1fc)" style="fill: #e9ed4c; opacity: 0.6; stroke: #e9ed4c; stroke-width: 0.8; stroke-linejoin: miter"/>
   </g>
   <g id="text_7">
    <!-- 240 -->
    <g style="fill: #262626" transform="translate(319.713192 83.86375) scale(0.096 -0.096)">
     <use xlink:href="#DejaVuSans-32"/>
     <use xlink:href="#DejaVuSans-34" transform="translate(63.623047 0)"/>
     <use xlink:href="#DejaVuSans-30" transform="translate(127.246094 0)"/>
    </g>
   </g>
   <g id="text_8">
    <!-- 28 -->
    <g style="fill: #262626" transform="translate(405.847594 83.86375) scale(0.096 -0.096)">
     <use xlink:href="#DejaVuSans-32"/>
     <use xlink:href="#DejaVuSans-38" transform="translate(63.623047 0)"/>
    </g>
   </g>
   <g id="text_9">
    <!-- 16 -->
    <g style="fill: #262626" transform="translate(381.498769 83.86375) scale(0.096 -0.096)">
     <defs>
      <path id="DejaVuSans-36" d="M 2113 2584 
Q 1688 2584 1439 2293 
Q 1191 2003 1191 1497 
Q 1191 994 1439 701 
Q 1688 409 2113 409 
Q 2538 409 2786 701 
Q 3034 994 3034 1497 
Q 3034 2003 2786 2293 
Q 2538 2584 2113 2584 
z
M 3366 4563 
L 3366 3988 
Q 3128 4100 2886 4159 
Q 2644 4219 2406 4219 
Q 1781 4219 1451 3797 
Q 1122 3375 1075 2522 
Q 1259 2794 1537 2939 
Q 1816 3084 2150 3084 
Q 2853 3084 3261 2657 
Q 3669 2231 3669 1497 
Q 3669 778 3244 343 
Q 2819 -91 2113 -91 
Q 1303 -91 875 529 
Q 447 1150 447 2328 
Q 447 3434 972 4092 
Q 1497 4750 2381 4750 
Q 2619 4750 2861 4703 
Q 3103 4656 3366 4563 
z
" transform="scale(0.015625)"/>
     </defs>
     <use xlink:href="#DejaVuSans-31"/>
     <use xlink:href="#DejaVuSans-36" transform="translate(63.623047 0)"/>
    </g>
   </g>
   <g id="text_10">
    <!-- Light -->
    <g style="fill: #262626" transform="translate(310.464853 152.853747) scale(0.1152 -0.1152)">
     <use xlink:href="#DejaVuSans-4c"/>
     <use xlink:href="#DejaVuSans-69" transform="translate(55.712891 0)"/>
     <use xlink:href="#DejaVuSans-67" transform="translate(83.496094 0)"/>
     <use xlink:href="#DejaVuSans-68" transform="translate(146.972656 0)"/>
     <use xlink:href="#DejaVuSans-74" transform="translate(210.351562 0)"/>
    </g>
   </g>
   <g id="text_11">
    <!-- Interaction -->
    <g style="fill: #262626" transform="translate(401.616334 118.470996) scale(0.1152 -0.1152)">
     <use xlink:href="#DejaVuSans-49"/>
     <use xlink:href="#DejaVuSans-6e" transform="translate(29.492188 0)"/>
     <use xlink:href="#DejaVuSans-74" transform="translate(92.871094 0)"/>
     <use xlink:href="#DejaVuSans-65" transform="translate(132.080078 0)"/>
     <use xlink:href="#DejaVuSans-72" transform="translate(193.603516 0)"/>
     <use xlink:href="#DejaVuSans-61" transform="translate(234.716797 0)"/>
     <use xlink:href="#DejaVuSans-63" transform="translate(295.996094 0)"/>
     <use xlink:href="#DejaVuSans-74" transform="translate(350.976562 0)"/>
     <use xlink:href="#DejaVuSans-69" transform="translate(390.185547 0)"/>
     <use xlink:href="#DejaVuSans-6f" transform="translate(417.96875 0)"/>
     <use xlink:href="#DejaVuSans-6e" transform="translate(479.150391 0)"/>
    </g>
   </g>
   <g id="text_12">
    <!-- b  Root: Light vs Interaction -->
    <g style="fill: #262626" transform="translate(269.518453 7.51875) scale(0.08 -0.08)">
     <defs>
      <path id="DejaVuSans-Bold-62" d="M 2400 722 
Q 2759 722 2948 984 
Q 3138 1247 3138 1747 
Q 3138 2247 2948 2509 
Q 2759 2772 2400 2772 
Q 2041 2772 1848 2508 
Q 1656 2244 1656 1747 
Q 1656 1250 1848 986 
Q 2041 722 2400 722 
z
M 1656 2988 
Q 1888 3294 2169 3439 
Q 2450 3584 2816 3584 
Q 3463 3584 3878 3070 
Q 4294 2556 4294 1747 
Q 4294 938 3878 423 
Q 3463 -91 2816 -91 
Q 2450 -91 2169 54 
Q 1888 200 1656 506 
L 1656 0 
L 538 0 
L 538 4863 
L 1656 4863 
L 1656 2988 
z
" transform="scale(0.015625)"/>
      <path id="DejaVuSans-Bold-52" d="M 2297 2597 
Q 2675 2597 2839 2737 
Q 3003 2878 3003 3200 
Q 3003 3519 2839 3656 
Q 2675 3794 2297 3794 
L 1791 3794 
L 1791 2597 
L 2297 2597 
z
M 1791 1766 
L 1791 0 
L 588 0 
L 588 4666 
L 2425 4666 
Q 3347 4666 3776 4356 
Q 4206 4047 4206 3378 
Q 4206 2916 3982 2619 
Q 3759 2322 3309 2181 
Q 3556 2125 3751 1926 
Q 3947 1728 4147 1325 
L 4800 0 
L 3519 0 
L 2950 1159 
Q 2778 1509 2601 1637 
Q 2425 1766 2131 1766 
L 1791 1766 
z
" transform="scale(0.015625)"/>
     </defs>
     <use xlink:href="#DejaVuSans-Bold-62"/>
     <use xlink:href="#DejaVuSans-Bold-20" transform="translate(71.582031 0)"/>
     <use xlink:href="#DejaVuSans-Bold-20" transform="translate(106.396484 0)"/>
     <use xlink:href="#DejaVuSans-Bold-52" transform="translate(141.210938 0)"/>
     <use xlink:href="#DejaVuSans-Bold-6f" transform="translate(218.212891 0)"/>
     <use xlink:href="#DejaVuSans-Bold-6f" transform="translate(286.914062 0)"/>
     <use xlink:href="#DejaVuSans-Bold-74" transform="translate(355.615234 0)"/>
     <use xlink:href="#DejaVuSans-Bold-3a" transform="translate(403.417969 0)"/>
     <use xlink:href="#DejaVuSans-Bold-20" transform="translate(443.408203 0)"/>
     <use xlink:href="#DejaVuSans-Bold-4c" transform="translate(478.222656 0)"/>
     <use xlink:href="#DejaVuSans-Bold-69" transform="translate(541.943359 0)"/>
     <use xlink:href="#DejaVuSans-Bold-67" transform="translate(576.220703 0)"/>
     <use xlink:href="#DejaVuSans-Bold-68" transform="translate(647.802734 0)"/>
     <use xlink:href="#DejaVuSans-Bold-74" transform="translate(718.994141 0)"/>
     <use xlink:href="#DejaVuSans-Bold-20" transform="translate(766.796875 0)"/>
     <use xlink:href="#DejaVuSans-Bold-76" transform="translate(801.611328 0)"/>
     <use xlink:href="#DejaVuSans-Bold-73" transform="translate(866.796875 0)"/>
     <use xlink:href="#DejaVuSans-Bold-20" transform="translate(926.318359 0)"/>
     <use xlink:href="#DejaVuSans-Bold-49" transform="translate(961.132812 0)"/>
     <use xlink:href="#DejaVuSans-Bold-6e" transform="translate(998.339844 0)"/>
     <use xlink:href="#DejaVuSans-Bold-74" transform="translate(1069.53125 0)"/>
     <use xlink:href="#DejaVuSans-Bold-65" transform="translate(1117.333984 0)"/>
     <use xlink:href="#DejaVuSans-Bold-72" transform="translate(1185.15625 0)"/>
     <use xlink:href="#DejaVuSans-Bold-61" transform="translate(1234.472656 0)"/>
     <use xlink:href="#DejaVuSans-Bold-63" transform="translate(1301.953125 0)"/>
     <use xlink:href="#DejaVuSans-Bold-74" transform="translate(1361.230469 0)"/>
     <use xlink:href="#DejaVuSans-Bold-69" transform="translate(1409.033203 0)"/>
     <use xlink:href="#DejaVuSans-Bold-6f" transform="translate(1443.310547 0)"/>
     <use xlink:href="#DejaVuSans-Bold-6e" transform="translate(1512.011719 0)"/>
    </g>
   </g>
  </g>
  <g id="axes_3">
   <g id="patch_8">
    <path d="M 127.70765 306.405042 
C 125.100505 304.60601 122.968873 302.200416 121.496613 299.395746 
C 120.024353 296.591077 119.255046 293.470355 119.255046 290.30275 
C 119.255046 287.135145 120.024353 284.014423 121.496613 281.209754 
C 122.968873 278.405084 125.100505 275.99949 127.70765 274.200458 
C 125.780797 267.43091 122.654396 261.061858 118.477439 255.396827 
C 114.300482 249.731795 109.140393 244.862228 103.243081 241.02019 
C 97.345769 237.178152 90.806427 234.42566 83.936695 232.893887 
C 77.066963 231.362114 69.97773 231.075786 63.006842 232.048547 
C 56.035953 233.021309 49.295932 235.237458 43.107981 238.591383 
C 36.92003 241.945307 31.384033 246.382868 26.763815 251.692589 
C 22.143597 257.002309 18.513736 263.098482 16.047217 269.690585 
C 13.580698 276.282689 12.317335 283.264316 12.317335 290.30275 
C 12.317335 297.341184 13.580698 304.322811 16.047217 310.914915 
C 18.513736 317.507018 22.143597 323.603191 26.763815 328.912911 
C 31.384033 334.222632 36.92003 338.660193 43.107981 342.014117 
C 49.295932 345.368042 56.035953 347.584191 63.006842 348.556953 
C 69.97773 349.529714 77.066963 349.243386 83.936695 347.711613 
C 90.806427 346.17984 97.345769 343.427348 103.243081 339.58531 
C 109.140393 335.743272 114.300482 330.873705 118.477439 325.208673 
C 122.654396 319.543642 125.780797 313.17459 127.70765 306.405042 
" clip-path="url(#p780f2eb702)" style="fill: #75a025; opacity: 0.6; stroke: #75a025; stroke-width: 0.8; stroke-linejoin: miter"/>
   </g>
   <g id="patch_9">
    <path d="M 127.70765 274.200458 
C 129.198429 279.437963 129.954665 284.857213 129.954665 290.30275 
C 129.954665 295.748287 129.198429 301.167537 127.70765 306.405042 
C 130.643781 308.431086 134.078891 309.615988 137.63972 309.830995 
C 141.200548 310.046002 144.753273 309.283033 147.911853 307.624994 
C 151.070434 305.966955 153.716166 303.476156 155.561563 300.42325 
C 157.406959 297.370344 158.382668 293.870063 158.382668 290.30275 
C 158.382668 286.735437 157.406959 283.235156 155.561563 280.18225 
C 153.716166 277.129344 151.070434 274.638545 147.911853 272.980506 
C 144.753273 271.322467 141.200548 270.559498 137.63972 270.774505 
C 134.078891 270.989512 130.643781 272.174414 127.70765 274.200458 
" clip-path="url(#p780f2eb702)" style="fill: #0279ee; opacity: 0.6; stroke: #0279ee; stroke-width: 0.8; stroke-linejoin: miter"/>
   </g>
   <g id="patch_10">
    <path d="M 127.70765 306.405042 
C 129.198429 301.167537 129.954665 295.748287 129.954665 290.30275 
C 129.954665 284.857213 129.198429 279.437963 127.70765 274.200458 
C 125.100505 275.99949 122.968873 278.405084 121.496613 281.209754 
C 120.024353 284.014423 119.255046 287.135145 119.255046 290.30275 
C 119.255046 293.470355 120.024353 296.591077 121.496613 299.395746 
C 122.968873 302.200416 125.100505 304.60601 127.70765 306.405042 
" clip-path="url(#p780f2eb702)" style="fill: #e9ed4c; opacity: 0.6; stroke: #e9ed4c; stroke-width: 0.8; stroke-linejoin: miter"/>
   </g>
   <g id="text_13">
    <!-- 2263 -->
    <g style="fill: #262626" transform="translate(53.57019 292.95175) scale(0.096 -0.096)">
     <use xlink:href="#DejaVuSans-32"/>
     <use xlink:href="#DejaVuSans-32" transform="translate(63.623047 0)"/>
     <use xlink:href="#DejaVuSans-36" transform="translate(127.246094 0)"/>
     <use xlink:href="#DejaVuSans-33" transform="translate(190.869141 0)"/>
    </g>
   </g>
   <g id="text_14">
    <!-- 205 -->
    <g style="fill: #262626" transform="translate(135.006667 292.95175) scale(0.096 -0.096)">
     <defs>
      <path id="DejaVuSans-35" d="M 691 4666 
L 3169 4666 
L 3169 4134 
L 1269 4134 
L 1269 2991 
Q 1406 3038 1543 3061 
Q 1681 3084 1819 3084 
Q 2600 3084 3056 2656 
Q 3513 2228 3513 1497 
Q 3513 744 3044 326 
Q 2575 -91 1722 -91 
Q 1428 -91 1123 -41 
Q 819 9 494 109 
L 494 744 
Q 775 591 1075 516 
Q 1375 441 1709 441 
Q 2250 441 2565 725 
Q 2881 1009 2881 1497 
Q 2881 1984 2565 2268 
Q 2250 2553 1709 2553 
Q 1456 2553 1204 2497 
Q 953 2441 691 2322 
L 691 4666 
z
" transform="scale(0.015625)"/>
     </defs>
     <use xlink:href="#DejaVuSans-32"/>
     <use xlink:href="#DejaVuSans-30" transform="translate(63.623047 0)"/>
     <use xlink:href="#DejaVuSans-35" transform="translate(127.246094 0)"/>
    </g>
   </g>
   <g id="text_15">
    <!-- 51 -->
    <g style="fill: #262626" transform="translate(118.496855 292.95175) scale(0.096 -0.096)">
     <use xlink:href="#DejaVuSans-35"/>
     <use xlink:href="#DejaVuSans-31" transform="translate(63.623047 0)"/>
    </g>
   </g>
   <g id="text_16">
    <!-- Leaf -->
    <g style="fill: #262626" transform="translate(46.7154 361.793939) scale(0.1152 -0.1152)">
     <defs>
      <path id="DejaVuSans-66" d="M 2375 4863 
L 2375 4384 
L 1825 4384 
Q 1516 4384 1395 4259 
Q 1275 4134 1275 3809 
L 1275 3500 
L 2222 3500 
L 2222 3053 
L 1275 3053 
L 1275 0 
L 697 0 
L 697 3053 
L 147 3053 
L 147 3500 
L 697 3500 
L 697 3744 
Q 697 4328 969 4595 
Q 1241 4863 1831 4863 
L 2375 4863 
z
" transform="scale(0.015625)"/>
     </defs>
     <use xlink:href="#DejaVuSans-4c"/>
     <use xlink:href="#DejaVuSans-65" transform="translate(53.962891 0)"/>
     <use xlink:href="#DejaVuSans-61" transform="translate(115.486328 0)"/>
     <use xlink:href="#DejaVuSans-66" transform="translate(176.765625 0)"/>
    </g>
   </g>
   <g id="text_17">
    <!-- Root -->
    <g style="fill: #262626" transform="translate(138.818857 322.539085) scale(0.1152 -0.1152)">
     <defs>
      <path id="DejaVuSans-52" d="M 2841 2188 
Q 3044 2119 3236 1894 
Q 3428 1669 3622 1275 
L 4263 0 
L 3584 0 
L 2988 1197 
Q 2756 1666 2539 1819 
Q 2322 1972 1947 1972 
L 1259 1972 
L 1259 0 
L 628 0 
L 628 4666 
L 2053 4666 
Q 2853 4666 3247 4331 
Q 3641 3997 3641 3322 
Q 3641 2881 3436 2590 
Q 3231 2300 2841 2188 
z
M 1259 4147 
L 1259 2491 
L 2053 2491 
Q 2509 2491 2742 2702 
Q 2975 2913 2975 3322 
Q 2975 3731 2742 3939 
Q 2509 4147 2053 4147 
L 1259 4147 
z
" transform="scale(0.015625)"/>
     </defs>
     <use xlink:href="#DejaVuSans-52"/>
     <use xlink:href="#DejaVuSans-6f" transform="translate(64.982422 0)"/>
     <use xlink:href="#DejaVuSans-6f" transform="translate(126.164062 0)"/>
     <use xlink:href="#DejaVuSans-74" transform="translate(187.345703 0)"/>
    </g>
   </g>
   <g id="text_18">
    <!-- c  Light effect: Leaf vs Root -->
    <g style="fill: #262626" transform="translate(1.44 216.60675) scale(0.08 -0.08)">
     <use xlink:href="#DejaVuSans-Bold-63"/>
     <use xlink:href="#DejaVuSans-Bold-20" transform="translate(59.277344 0)"/>
     <use xlink:href="#DejaVuSans-Bold-20" transform="translate(94.091797 0)"/>
     <use xlink:href="#DejaVuSans-Bold-4c" transform="translate(128.90625 0)"/>
     <use xlink:href="#DejaVuSans-Bold-69" transform="translate(192.626953 0)"/>
     <use xlink:href="#DejaVuSans-Bold-67" transform="translate(226.904297 0)"/>
     <use xlink:href="#DejaVuSans-Bold-68" transform="translate(298.486328 0)"/>
     <use xlink:href="#DejaVuSans-Bold-74" transform="translate(369.677734 0)"/>
     <use xlink:href="#DejaVuSans-Bold-20" transform="translate(417.480469 0)"/>
     <use xlink:href="#DejaVuSans-Bold-65" transform="translate(452.294922 0)"/>
     <use xlink:href="#DejaVuSans-Bold-66" transform="translate(520.117188 0)"/>
     <use xlink:href="#DejaVuSans-Bold-66" transform="translate(563.623047 0)"/>
     <use xlink:href="#DejaVuSans-Bold-65" transform="translate(607.128906 0)"/>
     <use xlink:href="#DejaVuSans-Bold-63" transform="translate(674.951172 0)"/>
     <use xlink:href="#DejaVuSans-Bold-74" transform="translate(734.228516 0)"/>
     <use xlink:href="#DejaVuSans-Bold-3a" transform="translate(782.03125 0)"/>
     <use xlink:href="#DejaVuSans-Bold-20" transform="translate(822.021484 0)"/>
     <use xlink:href="#DejaVuSans-Bold-4c" transform="translate(856.835938 0)"/>
     <use xlink:href="#DejaVuSans-Bold-65" transform="translate(920.556641 0)"/>
     <use xlink:href="#DejaVuSans-Bold-61" transform="translate(988.378906 0)"/>
     <use xlink:href="#DejaVuSans-Bold-66" transform="translate(1055.859375 0)"/>
     <use xlink:href="#DejaVuSans-Bold-20" transform="translate(1099.365234 0)"/>
     <use xlink:href="#DejaVuSans-Bold-76" transform="translate(1134.179688 0)"/>
     <use xlink:href="#DejaVuSans-Bold-73" transform="translate(1199.365234 0)"/>
     <use xlink:href="#DejaVuSans-Bold-20" transform="translate(1258.886719 0)"/>
     <use xlink:href="#DejaVuSans-Bold-52" transform="translate(1293.701172 0)"/>
     <use xlink:href="#DejaVuSans-Bold-6f" transform="translate(1370.703125 0)"/>
     <use xlink:href="#DejaVuSans-Bold-6f" transform="translate(1439.404297 0)"/>
     <use xlink:href="#DejaVuSans-Bold-74" transform="translate(1508.105469 0)"/>
    </g>
   </g>
  </g>
  <g id="axes_4">
   <g id="patch_11">
    <path d="M 407.809073 294.593098 
C 407.171061 294.074855 406.656612 293.420762 406.303302 292.678598 
C 405.949993 291.936434 405.766642 291.12472 405.766642 290.30275 
C 405.766642 289.48078 405.949993 288.669066 406.303302 287.926902 
C 406.656612 287.184738 407.171061 286.530645 407.809073 286.012402 
C 407.258765 278.442961 405.257202 271.049613 401.913753 264.236345 
C 398.570304 257.423077 393.946997 251.316287 388.296459 246.249663 
C 382.64592 241.183038 376.072977 237.250574 368.936789 234.667148 
C 361.800601 232.083722 354.233556 230.897262 346.649134 231.172597 
C 339.064711 231.447933 331.603616 233.179956 324.673537 236.274026 
C 317.743457 239.368096 311.472959 243.766812 306.204675 249.22982 
C 300.936391 254.692828 296.768057 261.118778 293.927439 268.156545 
C 291.086821 275.194312 289.626618 282.713332 289.626618 290.30275 
C 289.626618 297.892168 291.086821 305.411188 293.927439 312.448955 
C 296.768057 319.486722 300.936391 325.912672 306.204675 331.37568 
C 311.472959 336.838688 317.743457 341.237404 324.673537 344.331474 
C 331.603616 347.425544 339.064711 349.157567 346.649134 349.432903 
C 354.233556 349.708238 361.800601 348.521778 368.936789 345.938352 
C 376.072977 343.354926 382.64592 339.422462 388.296459 334.355837 
C 393.946997 329.289213 398.570304 323.182423 401.913753 316.369155 
C 405.257202 309.555887 407.258765 302.162539 407.809073 294.593098 
" clip-path="url(#pa85f7dd22c)" style="fill: #75a025; opacity: 0.6; stroke: #75a025; stroke-width: 0.8; stroke-linejoin: miter"/>
   </g>
   <g id="patch_12">
    <path d="M 407.809073 286.012402 
C 407.912873 287.440163 407.964824 288.871221 407.964824 290.30275 
C 407.964824 291.734279 407.912873 293.165337 407.809073 294.593098 
C 408.619864 295.251686 409.600974 295.667141 410.638161 295.791087 
C 411.675348 295.915034 412.726729 295.742465 413.669878 295.293477 
C 414.613026 294.844489 415.409857 294.137212 415.967585 293.254002 
C 416.525314 292.370793 416.821417 291.347317 416.821417 290.30275 
C 416.821417 289.258183 416.525314 288.234707 415.967585 287.351498 
C 415.409857 286.468288 414.613026 285.761011 413.669878 285.312023 
C 412.726729 284.863035 411.675348 284.690466 410.638161 284.814413 
C 409.600974 284.938359 408.619864 285.353814 407.809073 286.012402 
" clip-path="url(#pa85f7dd22c)" style="fill: #0279ee; opacity: 0.6; stroke: #0279ee; stroke-width: 0.8; stroke-linejoin: miter"/>
   </g>
   <g id="patch_13">
    <path d="M 407.809073 294.593098 
C 407.912873 293.165337 407.964824 291.734279 407.964824 290.30275 
C 407.964824 288.871221 407.912873 287.440163 407.809073 286.012402 
C 407.171061 286.530645 406.656612 287.184738 406.303302 287.926902 
C 405.949993 288.669066 405.766642 289.48078 405.766642 290.30275 
C 405.766642 291.12472 405.949993 291.936434 406.303302 292.678598 
C 406.656612 293.420762 407.171061 294.074855 407.809073 294.593098 
" clip-path="url(#pa85f7dd22c)" style="fill: #e9ed4c; opacity: 0.6; stroke: #e9ed4c; stroke-width: 0.8; stroke-linejoin: miter"/>
   </g>
   <g id="text_19">
    <!-- 5036 -->
    <g style="fill: #262626" transform="translate(335.48063 292.95175) scale(0.096 -0.096)">
     <use xlink:href="#DejaVuSans-35"/>
     <use xlink:href="#DejaVuSans-30" transform="translate(63.623047 0)"/>
     <use xlink:href="#DejaVuSans-33" transform="translate(127.246094 0)"/>
     <use xlink:href="#DejaVuSans-36" transform="translate(190.869141 0)"/>
    </g>
   </g>
   <g id="text_20">
    <!-- 38 -->
    <g style="fill: #262626" transform="translate(406.285121 292.95175) scale(0.096 -0.096)">
     <use xlink:href="#DejaVuSans-33"/>
     <use xlink:href="#DejaVuSans-38" transform="translate(63.623047 0)"/>
    </g>
   </g>
   <g id="text_21">
    <!-- 6 -->
    <g style="fill: #262626" transform="translate(403.811733 292.95175) scale(0.096 -0.096)">
     <use xlink:href="#DejaVuSans-36"/>
    </g>
   </g>
   <g id="text_22">
    <!-- Leaf -->
    <g style="fill: #262626" transform="translate(324.375121 361.460078) scale(0.1152 -0.1152)">
     <use xlink:href="#DejaVuSans-4c"/>
     <use xlink:href="#DejaVuSans-65" transform="translate(53.962891 0)"/>
     <use xlink:href="#DejaVuSans-61" transform="translate(115.486328 0)"/>
     <use xlink:href="#DejaVuSans-66" transform="translate(176.765625 0)"/>
    </g>
   </g>
   <g id="text_23">
    <!-- Root -->
    <g style="fill: #262626" transform="translate(411.29403 307.818362) scale(0.1152 -0.1152)">
     <use xlink:href="#DejaVuSans-52"/>
     <use xlink:href="#DejaVuSans-6f" transform="translate(64.982422 0)"/>
     <use xlink:href="#DejaVuSans-6f" transform="translate(126.164062 0)"/>
     <use xlink:href="#DejaVuSans-74" transform="translate(187.345703 0)"/>
    </g>
   </g>
   <g id="text_24">
    <!-- d  Interaction: Leaf vs Root -->
    <g style="fill: #262626" transform="translate(279.099721 216.60675) scale(0.08 -0.08)">
     <defs>
      <path id="DejaVuSans-Bold-64" d="M 2919 2988 
L 2919 4863 
L 4044 4863 
L 4044 0 
L 2919 0 
L 2919 506 
Q 2688 197 2409 53 
Q 2131 -91 1766 -91 
Q 1119 -91 703 423 
Q 288 938 288 1747 
Q 288 2556 703 3070 
Q 1119 3584 1766 3584 
Q 2128 3584 2408 3439 
Q 2688 3294 2919 2988 
z
M 2181 722 
Q 2541 722 2730 984 
Q 2919 1247 2919 1747 
Q 2919 2247 2730 2509 
Q 2541 2772 2181 2772 
Q 1825 2772 1636 2509 
Q 1447 2247 1447 1747 
Q 1447 1247 1636 984 
Q 1825 722 2181 722 
z
" transform="scale(0.015625)"/>
     </defs>
     <use xlink:href="#DejaVuSans-Bold-64"/>
     <use xlink:href="#DejaVuSans-Bold-20" transform="translate(71.582031 0)"/>
     <use xlink:href="#DejaVuSans-Bold-20" transform="translate(106.396484 0)"/>
     <use xlink:href="#DejaVuSans-Bold-49" transform="translate(141.210938 0)"/>
     <use xlink:href="#DejaVuSans-Bold-6e" transform="translate(178.417969 0)"/>
     <use xlink:href="#DejaVuSans-Bold-74" transform="translate(249.609375 0)"/>
     <use xlink:href="#DejaVuSans-Bold-65" transform="translate(297.412109 0)"/>
     <use xlink:href="#DejaVuSans-Bold-72" transform="translate(365.234375 0)"/>
     <use xlink:href="#DejaVuSans-Bold-61" transform="translate(414.550781 0)"/>
     <use xlink:href="#DejaVuSans-Bold-63" transform="translate(482.03125 0)"/>
     <use xlink:href="#DejaVuSans-Bold-74" transform="translate(541.308594 0)"/>
     <use xlink:href="#DejaVuSans-Bold-69" transform="translate(589.111328 0)"/>
     <use xlink:href="#DejaVuSans-Bold-6f" transform="translate(623.388672 0)"/>
     <use xlink:href="#DejaVuSans-Bold-6e" transform="translate(692.089844 0)"/>
     <use xlink:href="#DejaVuSans-Bold-3a" transform="translate(763.28125 0)"/>
     <use xlink:href="#DejaVuSans-Bold-20" transform="translate(803.271484 0)"/>
     <use xlink:href="#DejaVuSans-Bold-4c" transform="translate(838.085938 0)"/>
     <use xlink:href="#DejaVuSans-Bold-65" transform="translate(901.806641 0)"/>
     <use xlink:href="#DejaVuSans-Bold-61" transform="translate(969.628906 0)"/>
     <use xlink:href="#DejaVuSans-Bold-66" transform="translate(1037.109375 0)"/>
     <use xlink:href="#DejaVuSans-Bold-20" transform="translate(1080.615234 0)"/>
     <use xlink:href="#DejaVuSans-Bold-76" transform="translate(1115.429688 0)"/>
     <use xlink:href="#DejaVuSans-Bold-73" transform="translate(1180.615234 0)"/>
     <use xlink:href="#DejaVuSans-Bold-20" transform="translate(1240.136719 0)"/>
     <use xlink:href="#DejaVuSans-Bold-52" transform="translate(1274.951172 0)"/>
     <use xlink:href="#DejaVuSans-Bold-6f" transform="translate(1351.953125 0)"/>
     <use xlink:href="#DejaVuSans-Bold-6f" transform="translate(1420.654297 0)"/>
     <use xlink:href="#DejaVuSans-Bold-74" transform="translate(1489.355469 0)"/>
    </g>
   </g>
  </g>
 </g>
 <defs>
  <clipPath id="pd9a51697b7">
   <rect x="8.185364" y="11.51875" width="154.329276" height="139.392"/>
  </clipPath>
  <clipPath id="pb40e7cd1fc">
   <rect x="269.518453" y="11.51875" width="167.41113" height="139.392"/>
  </clipPath>
  <clipPath id="p780f2eb702">
   <rect x="1.44" y="220.60675" width="167.820003" height="139.392"/>
  </clipPath>
  <clipPath id="pa85f7dd22c">
   <rect x="279.099721" y="220.60675" width="148.248593" height="139.392"/>
  </clipPath>
 </defs>
</svg>
